<svg xmlns="http://www.w3.org/2000/svg" xmlns:xlink="http://www.w3.org/1999/xlink" width="16" height="16" viewBox="0 0 16 16">
    <defs>
        <path id="a" d="M18.791 11.005H7.621l4.88-4.88c.39-.39.39-1.03 0-1.42a.996.996 0 0 0-1.41 0l-6.59 6.59a.996.996 0 0 0 0 1.41l6.59 6.59a.996.996 0 1 0 1.41-1.41l-4.88-4.88h11.17c.55 0 1-.45 1-1s-.45-1-1-1z"/>
    </defs>
    <g fill="none" fill-rule="evenodd" transform="translate(-4 -4)">
        <path d="M0 0h24v24H0z"/>
        <mask id="b" fill="#fff">
            <use xlink:href="#a"/>
        </mask>
        <path fill="currentColor" fill-rule="nonzero" d="M0 0h24v24H0z" mask="url(#b)"/>
    </g>
</svg>
