<svg xmlns="http://www.w3.org/2000/svg" xmlns:xlink="http://www.w3.org/1999/xlink" width="17" height="17" viewBox="0 0 17 17">
    <defs>
        <path id="a" d="M15 13c.55 0 1 .45 1 1v2c0 .51-.388.935-.884.993L15 17H1c-.55 0-1-.45-1-1v-2c0-.55.45-1 1-1s1 .45 1 1v1h12v-1c0-.55.45-1 1-1zM8 0a1 1 0 0 1 1 1v8l2.4-1.8a1 1 0 1 1 1.2 1.6l-4 3a1 1 0 0 1-1.175.018l-4-2.814a1 1 0 1 1 1.15-1.636l2.428 1.71A1.015 1.015 0 0 1 7 9V1a1 1 0 0 1 1-1z"/>
    </defs>
    <use fill="currentColor" fill-rule="nonzero" transform="translate(.69)" xlink:href="#a"/>
</svg>
