<svg xmlns="http://www.w3.org/2000/svg" width="2093" height="897" viewBox="0 0 2093 897">
    <g fill="none" fill-rule="evenodd">
        <path fill="#DBDFE7" d="M52 728c-28.719 0-52-23.281-52-52s23.281-52 52-52 52 23.281 52 52-23.281 52-52 52zm0-22c16.569 0 30-13.431 30-30 0-16.569-13.431-30-30-30-16.569 0-30 13.431-30 30 0 16.569 13.431 30 30 30z" opacity=".434"/>
        <path fill="#6096FF" fill-opacity=".787" d="M155 765c-9.941 0-18-8.059-18-18s8.059-18 18-18 18 8.059 18 18-8.059 18-18 18zm.5-7c5.799 0 10.5-4.701 10.5-10.5s-4.701-10.5-10.5-10.5-10.5 4.701-10.5 10.5 4.701 10.5 10.5 10.5z"/>
        <path fill="#FFF" d="M1961 897c-72.902 0-132-59.098-132-132s59.098-132 132-132 132 59.098 132 132-59.098 132-132 132zm.5-46c47.22 0 85.5-38.28 85.5-85.5s-38.28-85.5-85.5-85.5-85.5 38.28-85.5 85.5 38.28 85.5 85.5 85.5z" opacity=".626"/>
        <path fill="#BBC2D0" d="M1938 82c-22.644 0-41-18.356-41-41s18.356-41 41-41 41 18.356 41 41-18.356 41-41 41zm-.5-18c12.979 0 23.5-10.521 23.5-23.5S1950.479 17 1937.5 17 1914 27.521 1914 40.5s10.521 23.5 23.5 23.5z" opacity=".444"/>
        <path fill="#6096FF" d="M1688.5 584c-14.636 0-26.5-11.864-26.5-26.5s11.864-26.5 26.5-26.5 26.5 11.864 26.5 26.5-11.864 26.5-26.5 26.5zm0-11c8.56 0 15.5-6.94 15.5-15.5 0-8.56-6.94-15.5-15.5-15.5-8.56 0-15.5 6.94-15.5 15.5 0 8.56 6.94 15.5 15.5 15.5z"/>
    </g>
</svg>
