<svg xmlns="http://www.w3.org/2000/svg" width="92" height="102" viewBox="-5 0 102 102">
    <g fill="none" fill-rule="nonzero">
        <path fill="#BBC2D0" d="M85.469 51c.222-.32.472-.642.687-.963 6.15-9.366 7.5-18.08 3.787-24.54-3.354-5.836-10.527-9.054-20.195-9.054-1.297 0-2.633.072-3.992.184C60.923 6.384 53.934 0 46 0c-7.932 0-14.923 6.384-19.754 16.627a49.094 49.094 0 0 0-3.992-.184c-9.673 0-16.848 3.218-20.2 9.055-3.709 6.455-2.363 15.173 3.79 24.54.213.32.466.638.686.962-.224.324-.474.641-.687.962-6.152 9.372-7.501 18.08-3.79 24.538 3.353 5.837 10.528 9.057 20.2 9.057 1.298 0 2.633-.073 3.993-.184C31.077 95.616 38.07 102 46.001 102c7.93 0 14.922-6.383 19.755-16.627 1.359.115 2.695.184 3.992.184 9.671 0 16.845-3.22 20.199-9.057 3.708-6.457 2.362-15.173-3.788-24.538-.218-.32-.472-.638-.69-.962zM69.752 21.304c7.87 0 13.556 2.352 16.012 6.626 2.692 4.687 1.477 11.428-3.379 19.003-3.073-3.72-6.73-7.328-10.903-10.703-.818-5.397-2.095-10.382-3.725-14.833.666-.029 1.343-.093 1.995-.093zM56.879 69.928A91.499 91.499 0 0 1 46 75.287a91.609 91.609 0 0 1-10.873-5.36 93.166 93.166 0 0 1-10.05-6.756A91.74 91.74 0 0 1 24.254 51c0-4.194.302-8.268.824-12.168a92.476 92.476 0 0 1 10.05-6.757A91.517 91.517 0 0 1 46 26.717a91.58 91.58 0 0 1 10.874 5.358 93.39 93.39 0 0 1 10.05 6.757c.52 3.9.821 7.974.821 12.168 0 4.197-.302 8.27-.822 12.17a92.788 92.788 0 0 1-10.045 6.758zm8.835.111c-.798 3.612-1.793 7.015-2.99 10.076-3.292-.491-6.723-1.3-10.234-2.423 2.29-1.091 4.561-2.255 6.803-3.556 2.227-1.294 4.354-2.678 6.421-4.097zm-26.2 7.653c-3.509 1.123-6.944 1.932-10.237 2.423-1.19-3.06-2.188-6.46-2.986-10.072 2.07 1.422 4.193 2.803 6.42 4.093 2.243 1.297 4.519 2.461 6.803 3.556zM19.747 58.695c-2.709-2.486-5.129-5.067-7.203-7.695 2.074-2.627 4.494-5.205 7.203-7.695-.19 2.514-.32 5.068-.32 7.695 0 2.628.129 5.184.32 7.695zm6.547-26.735c.798-3.612 1.794-7.011 2.987-10.07 3.293.491 6.728 1.295 10.236 2.42-2.284 1.096-4.56 2.257-6.802 3.56-2.227 1.287-4.353 2.673-6.42 4.09zm26.2-7.65c3.51-1.118 6.945-1.929 10.237-2.42 1.19 3.06 2.188 6.459 2.987 10.074-2.067-1.421-4.194-2.807-6.42-4.095-2.242-1.302-4.518-2.463-6.804-3.56zm19.769 19c2.709 2.485 5.123 5.063 7.201 7.69-2.074 2.628-4.492 5.209-7.201 7.695.19-2.514.32-5.067.32-7.695 0-2.627-.129-5.181-.32-7.69zM46.004 4.86c5.588 0 10.747 4.78 14.645 12.435-4.714.821-9.66 2.242-14.645 4.184-4.983-1.939-9.931-3.363-14.646-4.184C35.26 9.643 40.416 4.86 46.004 4.86zM6.25 27.93c2.454-4.275 8.14-6.626 16.012-6.626.647 0 1.329.064 1.996.093-1.63 4.455-2.905 9.436-3.725 14.833C16.358 39.6 12.7 43.213 9.627 46.933 4.771 39.359 3.553 32.621 6.25 27.93zm16.012 52.768c-7.871 0-13.558-2.353-16.012-6.628-2.694-4.69-1.479-11.429 3.377-19.005 3.073 3.723 6.731 7.33 10.905 10.704.82 5.396 2.092 10.382 3.726 14.834-.667.032-1.35.095-1.996.095zM46.004 97.14c-5.588 0-10.745-4.78-14.646-12.433 4.715-.823 9.659-2.245 14.646-4.184 4.984 1.939 9.928 3.361 14.645 4.184-3.898 7.653-9.06 12.433-14.645 12.433zM85.76 74.07c-2.456 4.274-8.141 6.627-16.012 6.627-.648 0-1.329-.062-1.998-.094 1.63-4.456 2.907-9.438 3.726-14.838 4.173-3.372 7.83-6.984 10.906-10.7 4.856 7.576 6.074 14.315 3.378 19.005z"/>
        <path fill="#6096FF" d="M46.001 42.964c-3.354-2.956-10.314-3.055-10.959 3.066C34.208 53.904 46.001 60 46.001 60s11.79-6.096 10.957-13.97c-.641-6.12-7.603-6.019-10.957-3.066z"/>
    </g>
</svg>
