<svg xmlns="http://www.w3.org/2000/svg" width="103" height="72" viewBox="0 -15 103 103">
    <g fill="none" fill-rule="nonzero">
        <path fill="#BBC2D0" d="M40.57 21.357l7.755 6.626 8.33 20.637a3.017 3.017 0 0 0 1.89 1.747L98.806 63.08a3.011 3.011 0 0 0 3.042-.743 3.016 3.016 0 0 0 .743-3.041L89.877 19.04a3.015 3.015 0 0 0-1.75-1.89L67.552 8.873l-6.68-7.817a3.016 3.016 0 0 0-4.427-.173l-16.05 16.048a3.017 3.017 0 0 0 .173 4.426zm52.552 27.989L72.847 29.073a3.018 3.018 0 0 0-4.267 4.266L88.855 53.61l-27.136-8.569-7.294-18.067 12.04-12.038 18.088 7.278 8.569 27.13zM58.406 7.456l3.23 3.779-10.887 10.884-3.78-3.229L58.407 7.456z"/>
        <path fill="#6096FF" d="M99.711 65.854H3.021C1.351 65.854 0 67.23 0 68.927S1.352 72 3.02 72h96.691c1.668 0 3.02-1.376 3.02-3.073s-1.352-3.073-3.02-3.073z"/>
    </g>
</svg>
