<svg xmlns="http://www.w3.org/2000/svg" width="81" height="88" viewBox="-3 0 88 88">
    <g fill="none" fill-rule="nonzero">
        <path fill="#6096FF" d="M75.456 0h-49.9a5.537 5.537 0 0 0-5.544 5.532v13.83h5.544V5.531h49.9v60.85H58.822v5.532h16.634A5.537 5.537 0 0 0 81 66.382V5.532A5.537 5.537 0 0 0 75.456 0z"/>
        <path fill="#BBC2D0" d="M17.074 38.796h27.794c1.534 0 2.78-1.272 2.78-2.839s-1.246-2.839-2.78-2.839H17.074c-1.535 0-2.78 1.272-2.78 2.839s1.245 2.839 2.78 2.839zm38.37-22.71h-49.9A5.537 5.537 0 0 0 0 21.618v60.85A5.537 5.537 0 0 0 5.544 88h49.9a5.537 5.537 0 0 0 5.544-5.532v-60.85a5.537 5.537 0 0 0-5.544-5.532zm-.173 66.237H5.718v-60.56H55.27v60.56zM17.074 49.204h27.794c1.534 0 2.78-1.271 2.78-2.838 0-1.567-1.246-2.84-2.78-2.84H17.074c-1.535 0-2.78 1.273-2.78 2.84s1.245 2.838 2.78 2.838z"/>
    </g>
</svg>
