<svg xmlns="http://www.w3.org/2000/svg" width="107" height="138" viewBox="0 0 107 138">
    <defs>
        <linearGradient id="a" x1="0%" x2="69.151%" y1="34.677%" y2="113.003%">
            <stop offset="0%" stop-color="#6096FF"/>
            <stop offset="100%" stop-color="#4684FF"/>
        </linearGradient>
        <linearGradient id="b" x1="100%" x2="27.491%" y1="119.455%" y2="0%">
            <stop offset="0%" stop-color="#E4EAF2"/>
            <stop offset="100%" stop-color="#FFF"/>
        </linearGradient>
    </defs>
    <g fill="none" fill-rule="nonzero">
        <path fill="url(#a)" stroke="#9AA3B5" stroke-width="2" d="M65.573 44.667l-40.05 18.115L57.896 134l17.431-14.7 22.515-3.312-32.268-71.321z" transform="translate(1 2)"/>
        <path fill="url(#a)" stroke="#9AA3B5" stroke-width="2" d="M38.706 44.667L78.698 62.76 46.373 134l-17.406-14.785-22.586-3.31 32.325-71.238z" transform="translate(1 2)"/>
        <path fill="url(#b)" stroke="#9AA3B5" stroke-width="2" d="M104.222 52.111c0 3.849-5.524 7.074-6.357 10.715-.834 3.745 2.814 9.05 1.25 12.483-1.667 3.433-8.025 3.85-10.318 6.762-2.293 2.913-1.25 9.362-4.169 11.755-2.918 2.393-8.754-.104-12.09 1.56-3.335 1.665-5.106 7.907-8.754 8.739-3.544.832-7.817-3.953-11.569-3.953-3.752 0-8.025 4.785-11.568 3.953-3.648-.832-5.42-7.074-8.755-8.738-3.335-1.665-9.276.832-12.09-1.56-2.918-2.393-1.876-8.843-4.169-11.756-2.293-2.913-8.65-3.329-10.318-6.762-1.563-3.329 2.085-8.738 1.25-12.483C5.525 59.185 0 55.96 0 52.11s5.524-7.074 6.358-10.715c.833-3.745-2.814-9.05-1.251-12.483 1.668-3.433 8.025-3.849 10.318-6.762 2.293-2.913 1.25-9.362 4.169-11.755 2.918-2.393 8.755.104 12.09-1.56C35.019 7.17 36.79.928 40.438.096c3.544-.832 7.817 3.953 11.569 3.953 3.752 0 8.025-4.785 11.569-3.953 3.648.832 5.42 7.074 8.754 8.738 3.335 1.665 9.276-.832 12.09 1.561 2.918 2.392 1.876 8.842 4.169 11.755 2.293 2.913 8.65 3.329 10.318 6.762 1.563 3.329-2.085 8.738-1.25 12.483 1.041 3.641 6.565 6.866 6.565 10.715z" transform="translate(1 2)"/>
        <path fill="#D8DDE7" d="M53.111 31.778c-12.395 0-22.333 10.05-22.333 22.333 0 12.283 10.05 22.333 22.333 22.333 12.395 0 22.333-10.05 22.333-22.333 0-12.283-9.938-22.333-22.333-22.333zm0 31.905a9.532 9.532 0 0 1-9.571-9.572 9.532 9.532 0 0 1 9.571-9.571 9.532 9.532 0 0 1 9.572 9.571 9.532 9.532 0 0 1-9.572 9.572zm0-48.921c-21.751 0-39.35 17.598-39.35 39.35 0 21.75 17.599 39.348 39.35 39.348 21.752 0 39.35-17.598 39.35-39.349 0-21.751-17.598-39.35-39.35-39.35zm0 72.317c-18.242 0-32.968-14.725-32.968-32.968 0-18.242 14.726-32.968 32.968-32.968 18.243 0 32.968 14.726 32.968 32.968 0 18.243-14.726 32.968-32.968 32.968z"/>
    </g>
</svg>
