<svg xmlns="http://www.w3.org/2000/svg" width="219" height="115" viewBox="0 0 219 115">
    <g fill="none" fill-rule="evenodd">
        <path fill="#96A0B4" d="M0 38.857L68 0v46.143L0 85z"/>
        <path fill="#D8DDE7" d="M0 92l40-23v46z"/>
        <path fill="#BBC2D0" d="M0 92l40-23v17.889z"/>
        <g fill="#9AA3B5">
            <path d="M112.105 49.862c7.08 0 12.023 5.227 12.023 12.688 0 7.413-4.847 12.593-11.928 12.593-4.467 0-7.888-2.044-9.741-5.513V84.22h-3.707V50.004h3.707v5.37c1.853-3.469 5.274-5.512 9.646-5.512zm-.665 22.002c5.227 0 8.934-3.944 8.934-9.41 0-5.417-3.707-9.408-8.934-9.408-5.275 0-8.981 3.944-8.981 9.409 0 5.512 3.706 9.409 8.98 9.409zm23.38-3.28V39.74h-3.66v29.272c0 4.04 2.187 6.13 5.18 6.13 1.378 0 2.852-.522 4.23-1.473l-.713-2.993c-.903.665-1.806 1.045-2.614 1.045-1.52 0-2.423-.998-2.423-3.136zm29.51-18.58v12.26c0 5.418-3.042 9.22-8.221 9.315-4.325 0-6.938-2.662-6.938-7.128V50.004h-3.707v15.397c0 6.035 3.517 9.742 9.362 9.742 4.514-.048 7.84-1.901 9.504-5.798V75h3.706V50.004h-3.706zm23.997 20.434c-1.378.808-2.708 1.236-3.944 1.283-2.186 0-3.374-1.663-3.374-5.227v-12.83h7.936v-2.9h-7.936v-6.557h-3.659v22.905c0 5.37 2.661 8.078 6.463 8.03 1.853 0 3.801-.665 5.607-1.853l-1.093-2.85zm17.393-20.576c7.413 0 12.687 5.18 12.687 12.593 0 7.508-5.274 12.688-12.687 12.688-7.414 0-12.688-5.18-12.688-12.688 0-7.413 5.274-12.593 12.688-12.593zm0 3.279c-5.228 0-8.982 3.849-8.982 9.361 0 5.608 3.754 9.41 8.982 9.41 5.227 0 8.98-3.802 8.98-9.41 0-5.512-3.753-9.361-8.98-9.361z"/>
        </g>
    </g>
</svg>
