<svg xmlns="http://www.w3.org/2000/svg" width="60" height="60" viewBox="0 0 60 60">
    <path fill="#BBC2D0" fill-rule="evenodd" d="M30.054.86C13.518.86.11 14.269.11 30.81c0 13.232 8.58 24.458 20.477 28.418 1.497.277 2.046-.65 2.046-1.44 0-.715-.027-3.074-.04-5.577-8.33 1.812-10.089-3.533-10.089-3.533-1.362-3.462-3.324-4.382-3.324-4.382-2.717-1.86.204-1.82.204-1.82 3.007.21 4.59 3.085 4.59 3.085 2.671 4.579 7.006 3.255 8.714 2.49.27-1.935 1.045-3.257 1.902-4.005-6.651-.757-13.643-3.325-13.643-14.8 0-3.27 1.17-5.942 3.085-8.04-.31-.754-1.336-3.8.29-7.925 0 0 2.515-.805 8.237 3.07 2.389-.663 4.95-.996 7.495-1.008 2.545.012 5.108.345 7.502 1.008 5.715-3.875 8.226-3.07 8.226-3.07 1.63 4.126.604 7.171.294 7.926 1.92 2.097 3.081 4.769 3.081 8.039 0 11.502-7.005 14.035-13.673 14.776 1.074.93 2.031 2.752 2.031 5.547 0 4.006-.034 7.231-.034 8.218 0 .797.539 1.731 2.057 1.437 11.89-3.965 20.46-15.187 20.46-28.414C59.998 14.269 46.591.86 30.054.86"/>
</svg>
