<svg xmlns="http://www.w3.org/2000/svg" width="90" height="90" viewBox="0 0 90 90">
    <g fill="none" fill-rule="evenodd">
        <path fill="#FFF" d="M45.87 58.339c-.579.611-1.043.91-1.416.91s-.837-.299-1.417-.91a.905.905 0 0 0-1.337 0 1.04 1.04 0 0 0 0 1.417c.938.997 1.845 1.493 2.754 1.493s1.815-.496 2.754-1.491a1.043 1.043 0 0 0 0-1.419.907.907 0 0 0-1.337 0"/>
        <path fill="#FFF" d="M62.152 56.353c-.337 1.28-.761 2.357-1.275 3.224-.514.867-1.233 1.6-2.161 2.198a14.466 14.466 0 0 1-2.693 1.388c-.867.328-1.988.583-3.362.766a38.898 38.898 0 0 1-3.692.333c-1.086.038-2.455.057-4.107.057-1.65 0-3.017-.019-4.095-.057a38.945 38.945 0 0 1-3.678-.333c-1.373-.183-2.494-.438-3.36-.766-.87-.329-1.765-.79-2.693-1.388-.927-.598-1.648-1.33-2.163-2.198-.511-.867-.94-1.944-1.275-3.224-.337-1.283-.506-2.743-.506-4.382 0-2.796 1.012-5.332 3.034-7.605a6.06 6.06 0 0 1 2.11-1.576c.8-.358 1.71-.56 2.73-.607a24.6 24.6 0 0 1 2.919.027c.927.068 2.073.16 3.438.276 1.367.115 2.546.172 3.539.172.995 0 2.175-.057 3.538-.172a305.94 305.94 0 0 1 3.44-.276 24.6 24.6 0 0 1 2.918-.027c1.021.047 1.934.249 2.742.607.81.356 1.517.882 2.125 1.576 2.023 2.273 3.033 4.81 3.033 7.605 0 1.639-.169 3.099-.506 4.382m3.451-22.426c.11-.535.215-1.293.317-2.269.102-.977.062-2.106-.116-3.386a18.868 18.868 0 0 0-.998-3.918l-.379-.077c-.252-.052-.666-.035-1.24.052-.57.085-1.24.242-2.007.466-.768.226-1.756.671-2.97 1.337-1.215.664-2.494 1.509-3.843 2.529a31.496 31.496 0 0 0-9.48-1.451c-4.027 0-7.195.741-9.504 1.45-1.348-1.02-2.632-1.86-3.856-2.515-1.22-.657-2.197-1.107-2.932-1.35a10.06 10.06 0 0 0-2.035-.466c-.622-.07-1.022-.091-1.2-.065a1.694 1.694 0 0 0-.39.09 19.451 19.451 0 0 0-1.012 3.918c-.185 1.28-.229 2.404-.126 3.372.101.969.21 1.73.328 2.283.117.554.252 1.029.404 1.426-2.628 3.097-3.943 6.806-3.943 11.129 0 2.403.201 4.584.606 6.537.404 1.956.973 3.65 1.707 5.085a14.105 14.105 0 0 0 2.78 3.774 16.35 16.35 0 0 0 3.654 2.673c1.313.701 2.817 1.266 4.512 1.7 1.692.431 3.415.734 5.168.908 1.754.172 3.683.259 5.79.259a59.7 59.7 0 0 0 5.8-.26 34.766 34.766 0 0 0 5.182-.907c1.693-.434 3.201-.999 4.524-1.7a16.512 16.512 0 0 0 3.68-2.67 14.004 14.004 0 0 0 2.792-3.777c.732-1.435 1.306-3.13 1.72-5.083.41-1.955.619-4.136.619-6.54 0-4.305-1.315-8.014-3.944-11.128.152-.414.282-.89.392-1.426"/>
        <path fill="#FFF" d="M34.748 46.778c-1.675 0-3.034 2.071-3.034 4.626 0 2.554 1.36 4.625 3.034 4.625 1.674 0 3.033-2.07 3.033-4.625s-1.359-4.626-3.033-4.626M52.775 46.778c-1.675 0-3.034 2.071-3.034 4.626 0 2.554 1.36 4.625 3.034 4.625 1.674 0 3.033-2.07 3.033-4.625s-1.359-4.626-3.033-4.626"/>
    </g>
</svg>
