<svg xmlns="http://www.w3.org/2000/svg" width="90" height="90" viewBox="0 0 90 90">
    <g fill="none" fill-rule="evenodd">
        <g fill="#FFF" fill-rule="nonzero">
            <path d="M65.678 66.195c-1.858-1.026-3.622-2.763-4.43-5.143-.159-.467-.018-.844.353-1.121 5.376-4.033 8.759-9.888 8.759-16.41C70.36 31.36 58.582 21.5 44.055 21.5c-14.529 0-26.308 9.86-26.308 22.021 0 12.168 11.78 22.03 26.308 22.03 1.898 0 3.749-.17 5.533-.49.438-.078.794.022 1.085.195 3.6 2.144 8.962 3.942 13.664 3.942 1.514 0 2.096-.932 2.096-1.781m-7.795-3.362c.082.107.126.197.126.295 0 .148-.145.25-.326.25-1.318 0-5.38-2.123-7.516-3.873-.293-.24-.702-.327-1.284-.204-1.782.377-3.652.58-5.584.58-12.092 0-21.896-7.854-21.896-17.545 0-9.687 9.804-17.538 21.896-17.538s21.895 7.851 21.895 17.538c0 5.783-3.49 10.909-8.875 14.106-.36.214-.743.615-.743 1.117 0 1.032.998 3.59 2.307 5.274"/>
            <path d="M57.212 47.331c-.242 0-.491.08-.694.258-2.65 2.31-7.16 4.354-12.616 4.368-5.466-.014-9.847-2.139-12.636-4.368-.176-.141-.503-.238-.715-.238-.648 0-1.025.536-1.026 1.125 0 .453.328.833.598 1.225 1.563 2.279 6.414 6.146 13.712 6.146h.115c7.297 0 12.149-3.867 13.711-6.146.27-.392.598-.9.598-1.355 0-.535-.447-1.015-1.047-1.015z"/>
        </g>
    </g>
</svg>
