<svg xmlns="http://www.w3.org/2000/svg" width="130" height="130" viewBox="0 0 130 130">
    <g fill="none" fill-rule="evenodd">
        <path fill="#FFF" d="M11.47 105.931h107.06v-92.69H11.47z"/>
        <path stroke="#8697CB" stroke-linecap="round" stroke-width="4" d="M25.348 39.724h17.843M25.348 33.103h9.913M25.348 46.345h17.843"/>
        <path stroke="#556080" stroke-linecap="round" stroke-width="4" d="M29.313 88.276l24.981-27.807M54.294 60.469l17.843 19.862M72.137 80.331l28.55-31.78M100.687 48.552V64M100.687 48.552H86.809M7.505 105.931h114.99M65 105.931v6.62M70.948 121.38c0 3.656-2.663 6.62-5.948 6.62-3.285 0-5.948-2.964-5.948-6.62 0-3.658 2.663-6.621 5.948-6.621 3.285 0 5.948 2.963 5.948 6.62zM65 105.931v6.62"/>
        <path stroke="#556080" stroke-linecap="round" stroke-width="4" d="M70.948 121.38c0 3.656-2.663 6.62-5.948 6.62-3.285 0-5.948-2.964-5.948-6.62 0-3.658 2.663-6.621 5.948-6.621 3.285 0 5.948 2.963 5.948 6.62z"/>
        <path stroke="#E2E2E2" stroke-linecap="round" stroke-width="4" d="M11.47 105.931h107.06v-92.69H11.47z"/>
        <path fill="#556080" d="M4.95 14.75h120.1a4 4 0 0 0 4-4V4a4 4 0 0 0-4-4H4.95a4 4 0 0 0-4 4v6.75a4 4 0 0 0 4 4z"/>
        <path stroke="#556080" stroke-linecap="round" stroke-width="4" d="M7.505 104h114.99"/>
    </g>
</svg>
