<svg xmlns="http://www.w3.org/2000/svg" xmlns:xlink="http://www.w3.org/1999/xlink" width="95" height="95" viewBox="0 0 95 95">
    <defs>
        <rect id="intuitive" width="95" height="95" rx="20"/>
        <path id="intuitiveC" d="M35.556 33.333a2.224 2.224 0 0 1-2.223 2.223H6.667a2.224 2.224 0 0 1-2.223-2.223V17.778h31.112v15.555zM8.11 6.667a2.222 2.222 0 1 1 .001 4.443 2.222 2.222 0 0 1 0-4.443zm7.889 0a2.222 2.222 0 1 1 .001 4.443A2.222 2.222 0 0 1 16 6.667zM33.333 0H6.667A6.675 6.675 0 0 0 0 6.667v26.666A6.675 6.675 0 0 0 6.667 40h26.666A6.675 6.675 0 0 0 40 33.333V6.667A6.675 6.675 0 0 0 33.333 0z"/>
        <path id="intuitiveD" d="M12.445 38.5a1.747 1.747 0 0 1-1.74-1.937L12.05 24.15H1.751a1.749 1.749 0 0 1-1.455-2.723L14.1.777c.448-.67 1.295-.948 2.053-.67a1.745 1.745 0 0 1 1.141 1.83L15.95 14.35h10.3a1.749 1.749 0 0 1 1.455 2.723l-13.806 20.65c-.33.497-.884.777-1.454.777"/>
    </defs>
    <g fill="none" fill-rule="evenodd">
        <g>
            <mask id="intuitiveB" fill="#fff">
                <use xlink:href="#intuitive"/>
            </mask>
            <use fill="#456EDA" xlink:href="#intuitive"/>
            <circle cx="28" cy="27" r="2" fill="#FF6060" fill-opacity=".028" mask="url(#intuitiveB)"/>
        </g>
        <use fill="#1B3E9A" fill-rule="nonzero" transform="translate(23 35)" xlink:href="#intuitiveC"/>
        <use fill="#00CEB0" fill-rule="nonzero" transform="translate(43 21)" xlink:href="#intuitiveD"/>
    </g>
</svg>
