<svg xmlns="http://www.w3.org/2000/svg" width="40" height="40" viewBox="0 0 40 40">
    <path fill="#666D7C" fill-rule="nonzero" d="M20 0C8.94 0 0 8.94 0 20s8.94 20 20 20 20-8.94 20-20S31.06 0 20 0zm-6.037 2.724a28.73 28.73 0 0 0-2.707 4.679h-4.54a18.136 18.136 0 0 1 7.247-4.68zm-8.679 6.38h5.252A30.092 30.092 0 0 0 8.524 19.15H1.726A18.244 18.244 0 0 1 5.284 9.104zm0 21.792A18.244 18.244 0 0 1 1.726 20.85h6.798a29.923 29.923 0 0 0 2.045 10.045H5.284zm1.432 1.701h4.58a30.751 30.751 0 0 0 2.7 4.695 18.2 18.2 0 0 1-7.28-4.695zm12.433 5.685c-.85-.04-1.693-.139-2.511-.286a28.894 28.894 0 0 1-3.46-5.39h5.971v5.676zm0-7.386h-6.748a28.465 28.465 0 0 1-2.176-10.045h8.924v10.045zm0-11.747h-8.924c.106-3.468.85-6.87 2.16-10.045h6.764V19.15zm.008-11.746h-5.995a27.942 27.942 0 0 1 3.476-5.39c.818-.156 1.66-.246 2.52-.287v5.677zm15.559 1.701a18.158 18.158 0 0 1 3.558 10.045h-6.798a29.923 29.923 0 0 0-2.045-10.045h5.285zm-1.432-1.701h-4.58a30.13 30.13 0 0 0-2.708-4.695c2.806.965 5.3 2.593 7.288 4.695zM20.851 1.726c.85.04 1.693.139 2.511.286a28.894 28.894 0 0 1 3.46 5.39h-5.971V1.727zm0 7.378h6.748a28.426 28.426 0 0 1 2.176 10.045h-8.924V9.104zm0 11.747h8.924a28.667 28.667 0 0 1-2.16 10.045h-6.764V20.85zm-.008 17.423v-5.677h5.995a27.942 27.942 0 0 1-3.476 5.39c-.818.156-1.66.246-2.52.287zm5.153-.982a30.038 30.038 0 0 0 2.691-4.695h4.605a18.258 18.258 0 0 1-7.296 4.695zm3.411-6.396a31.414 31.414 0 0 0 2.061-10.045h6.814a18.244 18.244 0 0 1-3.558 10.045h-5.317z"/>
</svg>
