<svg xmlns="http://www.w3.org/2000/svg" width="94" height="93" viewBox="0 0 94 93">
    <g fill="none" fill-rule="evenodd">
        <ellipse cx="47" cy="46.257" fill="#FAFAFA" rx="47" ry="46.257"/>
        <path fill="#E3E3E3" d="M64.032 49.149h-29.17L47.43 61.497a1.987 1.987 0 0 1 0 2.842 2.07 2.07 0 0 1-2.892 0L28.634 48.712a1.985 1.985 0 0 1-.46-.718A1.898 1.898 0 0 1 28 47.21c0-.28.066-.543.176-.783.1-.26.246-.504.458-.713l15.904-15.627a2.07 2.07 0 0 1 2.892 0 1.984 1.984 0 0 1 0 2.84L34.866 45.273h29.166c1.086 0 1.968.868 1.968 1.937 0 1.07-.882 1.939-1.968 1.939z"/>
    </g>
</svg>
