<svg xmlns="http://www.w3.org/2000/svg" width="245" height="95" viewBox="0 0 245 95">
    <g fill="none" fill-rule="evenodd">
        <path fill="#FFF" d="M116.766 35.338c8.497 0 14.427 6.273 14.427 15.226 0 8.895-5.816 15.111-14.313 15.111-5.36 0-9.466-2.452-11.69-6.615v17.507h-4.448V35.509h4.448v6.444c2.224-4.163 6.33-6.615 11.576-6.615zm-.798 26.402c6.272 0 10.72-4.733 10.72-11.29 0-6.501-4.448-11.291-10.72-11.291-6.33 0-10.778 4.733-10.778 11.29 0 6.615 4.448 11.291 10.778 11.291zm28.056-3.934V23.192h-4.391V58.32c0 4.847 2.623 7.356 6.215 7.356 1.654 0 3.422-.627 5.076-1.768l-.856-3.592c-1.083.798-2.167 1.254-3.136 1.254-1.825 0-2.908-1.197-2.908-3.763zm35.412-22.297v14.713c0 6.5-3.65 11.062-9.866 11.176-5.189 0-8.325-3.193-8.325-8.553V35.509h-4.448v18.476c0 7.242 4.22 11.69 11.234 11.69 5.417-.057 9.409-2.28 11.405-6.957v6.786h4.447V35.509h-4.447zm28.797 24.52c-1.654.97-3.25 1.483-4.733 1.54-2.623 0-4.05-1.995-4.05-6.272V39.9h9.524v-3.478h-9.523v-7.87h-4.39v27.486c0 6.444 3.192 9.694 7.754 9.637 2.224 0 4.562-.798 6.73-2.224l-1.312-3.421zm20.87-24.69c8.896 0 15.226 6.215 15.226 15.11 0 9.01-6.33 15.226-15.226 15.226-8.895 0-15.225-6.216-15.225-15.225 0-8.896 6.33-15.112 15.225-15.112zm0 3.934c-6.272 0-10.777 4.619-10.777 11.234 0 6.729 4.505 11.29 10.777 11.29 6.273 0 10.778-4.561 10.778-11.29 0-6.615-4.505-11.234-10.778-11.234zM0 32.513L57.024 0v37.251L0 69.696z"/>
        <path fill="#FFF" fill-opacity=".34" d="M0 76.645l31.68-19.621V95.04z"/>
        <path fill="#C5D8FF" d="M0 76.032l31.68-19.008v14.784z" opacity=".725"/>
    </g>
</svg>
