<svg xmlns="http://www.w3.org/2000/svg" width="207" height="115" viewBox="0 0 207 115">
    <g fill="none" fill-rule="evenodd">
        <path fill="#6096FF" d="M0 38.857L68 0v46.143L0 85z"/>
        <path fill="#6096FF" d="M0 92l40-23v46z" opacity=".5"/>
        <path fill="#6096FF" d="M0 92l40-23v17.889z" opacity=".5"/>
        <path fill="#0C1020" d="M106.18 57.048h8.184c2.376.03 4.114-.455 5.214-1.452 1.1-.997 1.65-2.435 1.65-4.312 0-1.877-.55-3.307-1.65-4.29-1.1-.983-2.838-1.474-5.214-1.474h-8.184v11.528zM102 42h13.772c3.168 0 5.566.814 7.194 2.442 1.628 1.628 2.442 3.909 2.442 6.842s-.814 5.221-2.442 6.864c-1.628 1.643-4.026 2.45-7.194 2.42h-9.592v12.848H102V42zm30.096 0v31.416h3.74V42h-3.74zm30.36 31.416V50.668h-3.74v12.848c0 1.027-.14 1.973-.418 2.838a6.446 6.446 0 0 1-1.254 2.266 5.569 5.569 0 0 1-2.09 1.496c-.836.352-1.826.528-2.97.528-1.437 0-2.567-.41-3.388-1.232-.821-.821-1.232-1.936-1.232-3.344v-15.4h-3.74v14.96c0 1.232.125 2.354.374 3.366.25 1.012.682 1.885 1.298 2.618.616.733 1.423 1.298 2.42 1.694.997.396 2.244.594 3.74.594 1.672 0 3.124-.33 4.356-.99 1.232-.66 2.244-1.694 3.036-3.102h.088v3.608h3.52zm12.804-22.748v-6.82h-3.74v6.82h-3.872v3.3h3.872v14.476c0 1.056.103 1.907.308 2.552.205.645.52 1.144.946 1.496.425.352.983.594 1.672.726.69.132 1.518.198 2.486.198h2.86v-3.3h-1.716c-.587 0-1.063-.022-1.43-.066-.367-.044-.653-.14-.858-.286a1.087 1.087 0 0 1-.418-.616c-.073-.264-.11-.616-.11-1.056V53.968h4.532v-3.3h-4.532zm13.376 11.396c0 1.379.183 2.603.55 3.674.367 1.07.873 1.965 1.518 2.684a6.587 6.587 0 0 0 2.266 1.65 6.744 6.744 0 0 0 2.75.572c.968 0 1.885-.19 2.75-.572a6.587 6.587 0 0 0 2.266-1.65c.645-.719 1.151-1.613 1.518-2.684.367-1.07.55-2.295.55-3.674s-.183-2.603-.55-3.674c-.367-1.07-.873-1.973-1.518-2.706a6.464 6.464 0 0 0-2.266-1.672 6.744 6.744 0 0 0-2.75-.572c-.968 0-1.885.19-2.75.572a6.464 6.464 0 0 0-2.266 1.672c-.645.733-1.151 1.635-1.518 2.706-.367 1.07-.55 2.295-.55 3.674zm-3.96 0c0-1.672.235-3.234.704-4.686.47-1.452 1.173-2.713 2.112-3.784.939-1.07 2.097-1.914 3.476-2.53 1.379-.616 2.963-.924 4.752-.924 1.819 0 3.41.308 4.774.924 1.364.616 2.515 1.46 3.454 2.53.939 1.07 1.643 2.332 2.112 3.784.47 1.452.704 3.014.704 4.686 0 1.672-.235 3.227-.704 4.664-.47 1.437-1.173 2.691-2.112 3.762-.939 1.07-2.09 1.907-3.454 2.508-1.364.601-2.955.902-4.774.902-1.79 0-3.373-.3-4.752-.902-1.379-.601-2.537-1.437-3.476-2.508-.939-1.07-1.643-2.325-2.112-3.762-.47-1.437-.704-2.992-.704-4.664z"/>
    </g>
</svg>
