<svg
  xmlns="http://www.w3.org/2000/svg"
  width="24"
  height="24"
  viewBox="0 0 24 24">
  <defs>
    <path
      id="mail-a"
      d="M23 5.998V18c0 1.652-1.348 3-3 3H4c-1.652 0-3-1.348-3-3V6a3.414 3.414 0 0 1 0-.002A3.006 3.006 0 0 1 4 3h16a3.006 3.006 0 0 1 3 2.998zm-2.106-.444A1.006 1.006 0 0 0 20 5H4c-.388 0-.728.227-.893.554L12 11.779l8.894-6.225zM21 7.92l-8.426 5.898a1 1 0 0 1-1.147 0L3 7.921V18c0 .548.452 1 1 1h16c.548 0 1-.452 1-1V7.92z"
    />
  </defs>
  <g fill="none" fill-rule="evenodd">
    <mask id="mail-b" fill="#fff">
      <use xlink:href="#mail-a" />
    </mask>
    <use fill="#000" fill-rule="nonzero" xlink:href="#mail-a" />
    <g fill="#FFF" mask="url(#mail-b)">
      <path d="M0 0h24v24H0z" />
    </g>
  </g>
</svg>
