<svg xmlns="http://www.w3.org/2000/svg" width="90" height="90" viewBox="0 0 90 90">
    <g fill="none" fill-rule="evenodd">
        <rect width="88.5" height="88.5" x=".75" y=".75" stroke="#FFF" stroke-width="1.5" opacity=".7" rx="44.25"/>
        <path fill="#FFF" d="M67.657 33.121a.16.16 0 0 1 .04.211L54.399 54.916l-9.562-15.517 7.62-12.366a1.516 1.516 0 0 1 1.284-.697c.122 0 .244.02.364.05.095.024.189.054.278.099l13.234 6.608.015.008c.01.005.018.014.026.02zm-27.017 3.46l12.527 20.332-12.527-6.256V36.582zm24.721 26.42L55.05 57.854 67.79 37.175v24.78c0 1.248-1.088 1.717-2.43 1.047zm-26.896-29.86a.142.142 0 0 1 .079.127v28.686c0 .918-.496 1.465-1.204 1.465-.251 0-.53-.07-.82-.215L25.134 57.52c-.668-.334-1.215-1.217-1.215-1.963v-27.87c0-.734.397-1.172.963-1.172.201 0 .423.056.657.172l12.925 6.454z"/>
    </g>
</svg>
