<svg xmlns="http://www.w3.org/2000/svg" width="173" height="61" viewBox="0 0 173 61">
    <defs>
        <linearGradient id="new_logo_a" x1="0%" y1="0%" y2="100%">
            <stop offset="0%" stop-color="#FF0037"/>
            <stop offset="100%" stop-color="#FF4789"/>
        </linearGradient>
    </defs>
    <g fill="none" fill-rule="evenodd">
        <path fill="#FFF" d="M14.6 1c8.8 0 13.85 4.35 13.85 11.95 0 7.9-5.05 12.5-13.85 12.5H6.55V36H.65V1H14.6zm-.25 19.15c5.4 0 8.45-2.3 8.45-7.05 0-4.6-3.05-6.8-8.45-6.8h-7.8v13.85h7.8zM34.3 1v35h21.05v-5.35H40.2V1h-5.9zm31.9 20.5V1h-5.9v20.5c0 9.15 5.8 14.75 15.25 14.75s15.2-5.6 15.2-14.75V1h-5.9v20.5c0 5.95-3.55 9.45-9.25 9.45-5.75 0-9.4-3.55-9.4-9.45zM95.05 1v5.3h11.05V36h5.9V6.3h11.1V1H95.05zM143.8.85c10.45 0 18.55 7.65 18.55 17.65 0 10-8.1 17.75-18.55 17.75-10.45 0-18.55-7.75-18.55-17.75 0-10.05 8.1-17.65 18.55-17.65zm.05 5.3c-6.9 0-12.6 5.4-12.6 12.35 0 6.95 5.75 12.45 12.6 12.45s12.45-5.5 12.45-12.45c0-6.95-5.6-12.35-12.45-12.35zm25.65 23.7c-1.8 0-3.15 1.35-3.15 3.25 0 1.95 1.35 3.35 3.15 3.35 1.8 0 3.15-1.4 3.15-3.35 0-1.9-1.35-3.25-3.15-3.25z"/>
        <path fill="url(#new_logo_a)" d="M0 57h172v4H0z"/>
    </g>
</svg>
