<svg xmlns="http://www.w3.org/2000/svg" xmlns:xlink="http://www.w3.org/1999/xlink" width="95" height="95" viewBox="0 0 95 95">
    <defs>
        <rect id="noMoreBundling" width="95" height="95" rx="20"/>
        <path id="noMoreBundlingB" d="M1.05 8.907a.923.923 0 0 1 .107-1.687L18.859.075c.25-.1.532-.1.781 0L37.342 7.22c.759.306.82 1.299.108 1.687L19.746 18.54a1.047 1.047 0 0 1-.991 0L1.05 8.907zm36.293 7a.997.997 0 0 1 .106 1.784L19.747 27.865a.997.997 0 0 1-.994 0L1.051 17.691a.997.997 0 0 1 .106-1.783l3.802-1.62 13.794 7.504c.308.166.686.166.994 0l13.794-7.505 3.802 1.62zm0 9.227c.758.328.82 1.394.106 1.81L19.747 37.266a.987.987 0 0 1-.994 0L1.051 26.944c-.715-.416-.652-1.482.106-1.81l3.235-1.4 14.361 7.814c.308.166.686.166.994 0l14.36-7.815 3.236 1.4z"/>
        <path id="noMoreBundlingC" d="M47.52 15.84a2.64 2.64 0 1 0-5.28 0v6.064L31.044 8.841a2.636 2.636 0 0 0-3.363-.543l-11.26 6.755L4.671.95A2.644 2.644 0 0 0 .948.612 2.643 2.643 0 0 0 .61 4.33l13.2 15.84a2.64 2.64 0 0 0 3.39.572l11.286-6.771L39.14 26.4h-7.46a2.64 2.64 0 1 0 0 5.28H44.88c.327 0 .652-.071.961-.195.13-.05.23-.135.348-.201.138-.082.286-.132.407-.24.026-.021.037-.053.06-.077.146-.132.246-.293.357-.454.087-.127.19-.237.25-.375.067-.14.088-.295.125-.446.05-.185.106-.364.11-.554.004-.035.022-.064.022-.098v-13.2z"/>
    </defs>
    <g fill="none" fill-rule="evenodd">
        <use fill="#456EDA" xlink:href="#noMoreBundling"/>
        <use fill="#1B3E9A" fill-rule="nonzero" transform="translate(28.4 37.6)" xlink:href="#noMoreBundlingB"/>
        <use fill="#00D2AF" fill-rule="nonzero" transform="translate(24 20)" xlink:href="#noMoreBundlingC"/>
    </g>
</svg>
