<svg xmlns="http://www.w3.org/2000/svg" xmlns:xlink="http://www.w3.org/1999/xlink" width="24" height="24" viewBox="0 0 24 24">
    <defs>
        <path id="options" d="M19 9c1.654 0 3 1.346 3 3s-1.346 3-3 3a2.995 2.995 0 0 1-2.815-2H3a1 1 0 1 1 0-2h13.185A2.995 2.995 0 0 1 19 9zM3 7a1 1 0 1 1 0-2h1.185A2.995 2.995 0 0 1 7 3c1.302 0 2.401.84 2.815 2H21a1 1 0 1 1 0 2H9.815A2.995 2.995 0 0 1 7 9a2.995 2.995 0 0 1-2.815-2H3zm18 10a1 1 0 1 1 0 2h-7.185A2.995 2.995 0 0 1 11 21a2.995 2.995 0 0 1-2.815-2H3a1 1 0 1 1 0-2h5.185A2.995 2.995 0 0 1 11 15c1.302 0 2.401.84 2.815 2H21z"/>
    </defs>
    <use fill="currentColor" fill-rule="nonzero" xlink:href="#options"/>
</svg>
