<svg xmlns="http://www.w3.org/2000/svg" xmlns:xlink="http://www.w3.org/1999/xlink" width="108" height="41" viewBox="0 0 108 41">
    <defs>
        <path id="pluto-new-logo-a" d="M.003 7.615L13.26.018v15.601z"/>
    </defs>
    <g fill="none" fill-rule="evenodd">
        <path fill="#5B83EE" fill-rule="nonzero" d="M0 13.73L23.87 0v15.73L0 29.43z"/>
        <g transform="translate(0 24.513)">
            <path fill="#5282F6" fill-opacity=".1" fill-rule="nonzero" d="M.003 7.615L13.26.018v15.601z"/>
            <mask id="pluto-new-logo-b" fill="#fff">
                <use xlink:href="#pluto-new-logo-a"/>
            </mask>
            <use fill="#5282F6" fill-opacity=".2" xlink:href="#pluto-new-logo-a"/>
            <path fill="#5282F6" fill-opacity=".6" fill-rule="nonzero" d="M-.456 7.674L13.258-.192v5.973z" mask="url(#pluto-new-logo-b)" opacity=".725"/>
        </g>
        <path fill="#5B83EE" fill-rule="nonzero" d="M45.126 14.117c4.153 0 7.052 3.057 7.052 7.419 0 4.335-2.843 7.363-6.996 7.363-2.62 0-4.627-1.195-5.714-3.223v8.53h-2.174V14.201h2.174v3.14c1.087-2.029 3.094-3.224 5.658-3.224zm-.39 12.865c3.066 0 5.24-2.306 5.24-5.502 0-3.167-2.174-5.501-5.24-5.501-3.094 0-5.268 2.306-5.268 5.501 0 3.224 2.174 5.502 5.268 5.502zm13.714-1.917V8.199h-2.146v17.116c0 2.362 1.282 3.584 3.038 3.584.808 0 1.672-.305 2.48-.861l-.418-1.75c-.53.388-1.059.61-1.533.61-.892 0-1.421-.583-1.421-1.833zM75.76 14.2v7.168c0 3.168-1.785 5.39-4.823 5.446-2.536 0-4.07-1.556-4.07-4.168v-8.446h-2.174v9.002c0 3.529 2.063 5.696 5.492 5.696 2.648-.028 4.599-1.111 5.574-3.39v3.307h2.174V14.2H75.76zm14.075 11.947c-.808.473-1.588.723-2.313.75-1.282 0-1.98-.972-1.98-3.056V16.34h4.656v-1.695h-4.655v-3.834h-2.146v13.392c0 3.14 1.56 4.724 3.79 4.696 1.088 0 2.23-.389 3.29-1.083l-.642-1.668zm10.202-12.03c4.348 0 7.442 3.028 7.442 7.362 0 4.39-3.094 7.42-7.442 7.42-4.348 0-7.442-3.03-7.442-7.42 0-4.334 3.094-7.363 7.442-7.363zm0 1.916c-3.066 0-5.268 2.251-5.268 5.474 0 3.279 2.202 5.502 5.268 5.502s5.268-2.223 5.268-5.502c0-3.223-2.202-5.474-5.268-5.474z"/>
    </g>
</svg>
