<svg xmlns="http://www.w3.org/2000/svg" width="210" height="39" viewBox="0 0 210 39">
    <path fill="#FFF" fill-rule="evenodd" d="M12.104 22.712v10.752c0 .859.364 1.465 1.092 1.82.728.355 1.97.644 3.724.868.523.075.784.448.784 1.12 0 .299-.037.635-.112 1.008-1.082-.075-2.436-.14-4.06-.196A154.269 154.269 0 0 0 8.24 38c-1.344 0-2.64.028-3.892.084-1.25.056-2.417.121-3.5.196a1.111 1.111 0 0 1-.112-.504v-.448c0-.635.206-.99.616-1.064.784-.15 1.42-.29 1.904-.42.486-.13.86-.28 1.12-.448.262-.168.44-.373.532-.616.094-.243.14-.55.14-.924V5.8c0-.747-.27-1.288-.812-1.624-.54-.336-1.577-.597-3.108-.784a1.02 1.02 0 0 1-.448-.336c-.112-.15-.168-.41-.168-.784v-.504c0-.187.038-.336.112-.448 1.046.075 2.25.14 3.612.196 1.363.056 2.586.084 3.668.084h8.456c3.995 0 7.112.896 9.352 2.688 2.24 1.792 3.36 4.293 3.36 7.504 0 1.456-.28 2.847-.84 4.172a9.696 9.696 0 0 1-2.492 3.472c-1.1.99-2.436 1.783-4.004 2.38-1.568.597-3.36.896-5.376.896h-4.256zm1.68-2.8c2.278 0 4.116-.579 5.516-1.736 1.4-1.157 2.1-3.117 2.1-5.88 0-2.501-.55-4.443-1.652-5.824-1.1-1.381-3.089-2.072-5.964-2.072h-1.68v15.512h1.68zM52.88 33.24c0 .784.504 1.307 1.512 1.568 1.008.261 2.669.392 4.984.392h2.128c.933 0 1.745-.103 2.436-.308a4.54 4.54 0 0 0 1.82-1.036c.522-.485.998-1.11 1.428-1.876.429-.765.849-1.69 1.26-2.772.112-.299.392-.448.84-.448.186 0 .41.056.672.168l.784.336a54.405 54.405 0 0 0-.812 3.892c-.243 1.4-.458 2.772-.644 4.116-.038.448-.159.728-.364.84-.206.112-.42.168-.644.168-.299 0-.719-.019-1.26-.056a44.967 44.967 0 0 0-1.764-.084 69.88 69.88 0 0 1-1.932-.084A30.441 30.441 0 0 0 61.615 38H48.903c-1.083 0-2.324.028-3.724.084-1.4.056-2.66.121-3.78.196-.075-.15-.112-.345-.112-.588v-.532c0-.56.186-.859.56-.896 1.418-.261 2.436-.541 3.052-.84.616-.299.924-.821.924-1.568V5.8c0-.373-.038-.681-.112-.924a1.354 1.354 0 0 0-.448-.644c-.224-.187-.57-.345-1.036-.476-.467-.13-1.092-.252-1.876-.364-.374-.112-.56-.43-.56-.952v-.504c0-.224.037-.43.112-.616 1.194.075 2.464.14 3.808.196 1.344.056 2.538.084 3.584.084.522 0 1.12-.01 1.792-.028a985.05 985.05 0 0 1 2.1-.056 85.368 85.368 0 0 0 2.184-.084c.728-.037 1.39-.075 1.988-.112.037.187.065.392.084.616.018.224.028.392.028.504 0 .523-.187.84-.56.952-1.606.224-2.679.513-3.22.868-.542.355-.812.905-.812 1.652V33.24zm59.254-9.072c0 2.128-.224 4.079-.672 5.852-.448 1.773-1.223 3.304-2.324 4.592-1.101 1.288-2.576 2.287-4.424 2.996-1.848.71-4.172 1.064-6.972 1.064-3.323 0-6.001-.373-8.036-1.12-2.035-.747-3.603-1.764-4.704-3.052-1.101-1.288-1.839-2.8-2.212-4.536-.373-1.736-.56-3.593-.56-5.572V5.8c0-.784-.243-1.335-.728-1.652-.485-.317-1.475-.57-2.968-.756-.41-.075-.616-.43-.616-1.064V1.88c0-.187.037-.373.112-.56 1.083.075 2.23.14 3.444.196 1.213.056 2.66.084 4.34.084 1.307 0 2.67-.028 4.088-.084 1.419-.056 2.688-.121 3.808-.196a5.793 5.793 0 0 1 .112 1.008c0 .635-.205.99-.616 1.064-1.53.187-2.567.448-3.108.784-.541.336-.812.877-.812 1.624v17.36c0 3.883.719 6.832 2.156 8.848 1.437 2.016 3.91 3.024 7.42 3.024 3.584 0 6.132-.943 7.644-2.828 1.512-1.885 2.268-4.956 2.268-9.212V5.8c0-.747-.261-1.288-.784-1.624-.523-.336-1.512-.597-2.968-.784-.448-.112-.672-.467-.672-1.064a5.794 5.794 0 0 1 .112-1.008c1.083.112 2.081.187 2.996.224.915.037 1.895.056 2.94.056 1.195 0 2.259-.019 3.192-.056a32.631 32.631 0 0 0 2.744-.224 5.793 5.793 0 0 1 .112 1.008c0 .597-.224.952-.672 1.064-1.381.15-2.333.401-2.856.756-.523.355-.784.905-.784 1.652v18.368zM148.37 4.4v29.456c0 .373.028.681.084.924.056.243.196.457.42.644.224.187.541.345.952.476.41.13.99.252 1.736.364.56.112.84.43.84.952 0 .112-.01.28-.028.504-.019.224-.047.41-.084.56-1.195-.075-2.473-.14-3.836-.196a89.136 89.136 0 0 0-3.612-.084 86.22 86.22 0 0 0-3.612.084c-1.325.056-2.585.121-3.78.196a1.538 1.538 0 0 1-.14-.56 6.646 6.646 0 0 1-.028-.504c0-.261.047-.476.14-.644.093-.168.345-.29.756-.364 1.381-.187 2.25-.439 2.604-.756.355-.317.532-.85.532-1.596V4.4h-4.928c-1.045 0-1.932.103-2.66.308a5.372 5.372 0 0 0-1.904.952c-.541.43-1.027.99-1.456 1.68-.43.69-.868 1.521-1.316 2.492-.15.336-.43.504-.84.504a2.68 2.68 0 0 1-.784-.14 4.804 4.804 0 0 1-.672-.252c.261-.896.485-1.69.672-2.38.187-.69.336-1.372.448-2.044.15-.859.261-1.624.336-2.296.075-.672.168-1.157.28-1.456.15-.336.448-.504.896-.504.41 0 1.223.056 2.436.168 1.213.112 2.679.168 4.396.168h17.248c1.68 0 3.127-.056 4.34-.168 1.213-.112 2.044-.168 2.492-.168.41 0 .71.168.896.504.112.299.196.784.252 1.456.056.672.177 1.437.364 2.296.112.672.252 1.353.42 2.044.168.69.401 1.484.7 2.38-.187.075-.42.159-.7.252-.28.093-.532.14-.756.14-.41 0-.71-.168-.896-.504a23.086 23.086 0 0 0-1.316-2.492c-.43-.69-.915-1.25-1.456-1.68a5.372 5.372 0 0 0-1.904-.952c-.728-.205-1.596-.308-2.604-.308h-4.928zm23.47 15.4c0-2.613.495-5.059 1.484-7.336a19.218 19.218 0 0 1 4.06-5.992c1.718-1.717 3.724-3.07 6.02-4.06 2.296-.99 4.751-1.484 7.364-1.484 2.688 0 5.19.467 7.504 1.4 2.315.933 4.322 2.24 6.02 3.92 1.699 1.68 3.034 3.677 4.004 5.992.971 2.315 1.456 4.835 1.456 7.56 0 2.613-.494 5.068-1.484 7.364-.989 2.296-2.342 4.293-4.06 5.992-1.717 1.699-3.733 3.043-6.048 4.032-2.314.99-4.778 1.484-7.392 1.484-2.688 0-5.189-.467-7.504-1.4-2.314-.933-4.312-2.24-5.992-3.92-1.68-1.68-3.005-3.668-3.976-5.964-.97-2.296-1.456-4.825-1.456-7.588zm19.768 15.96c1.568 0 2.987-.345 4.256-1.036a10.294 10.294 0 0 0 3.276-2.828c.915-1.195 1.624-2.595 2.128-4.2s.756-3.323.756-5.152c0-2.65-.252-5.115-.756-7.392s-1.269-4.247-2.296-5.908c-1.026-1.661-2.314-2.968-3.864-3.92-1.549-.952-3.35-1.428-5.404-1.428-1.306 0-2.576.29-3.808.868-1.232.579-2.314 1.419-3.248 2.52-.933 1.101-1.68 2.436-2.24 4.004-.56 1.568-.84 3.341-.84 5.32 0 2.763.271 5.32.812 7.672.542 2.352 1.326 4.377 2.352 6.076 1.027 1.699 2.287 3.024 3.78 3.976 1.494.952 3.192 1.428 5.096 1.428z"/>
</svg>
