<svg xmlns="http://www.w3.org/2000/svg" width="203" height="146" viewBox="0 0 203 146">
    <g fill="none" fill-rule="evenodd">
        <g fill="#D8DDE7" fill-rule="nonzero">
            <path d="M163.813 104.99c-1.632-.904-3.702-.705-5.68.544l-36.546 23.093a2.188 2.188 0 0 0-.682 3.011 2.172 2.172 0 0 0 3.001.685l36.546-23.093c.772-.488 1.195-.452 1.257-.417.063.035.318.374.318 1.29 0 2.46-1.82 5.767-3.894 7.078l-35.43 22.387c-1.884 1.19-3.606 1.517-4.725.898-1.119-.62-1.76-2.257-1.76-4.491 0-5.66 4.032-12.99 8.805-16.005l40.34-25.49a2.186 2.186 0 0 0 0-3.696L87.85 41.807a2.17 2.17 0 0 0-2.32 0l-40.831 25.8C38.895 71.272 34.35 79.534 34.35 86.414v1.165c0 6.88 4.545 15.142 10.348 18.808l60.73 38.373a2.172 2.172 0 0 0 3.002-.684 2.188 2.188 0 0 0-.682-3.012l-60.731-38.373c-4.507-2.848-8.314-9.768-8.314-15.112v-1.165c0-5.344 3.807-12.265 8.314-15.112l39.672-25.067 73.43 46.397-37.415 23.642c-6.078 3.84-10.839 12.494-10.839 19.701 0 3.93 1.424 6.882 4.01 8.314a6.928 6.928 0 0 0 3.397.861c1.808 0 3.768-.634 5.75-1.886l35.43-22.387c3.324-2.1 5.928-6.833 5.928-10.774 0-2.346-.936-4.21-2.567-5.113z"/>
            <path d="M136.676 94.93c.718 0 1.42-.356 1.831-1.006a2.149 2.149 0 0 0-.677-2.97L87.884 59.621a2.167 2.167 0 0 0-2.981.675 2.149 2.149 0 0 0 .677 2.97l49.946 31.333c.358.224.756.331 1.15.331zM127.793 100.6a2.12 2.12 0 0 0 1.81-1.029c.627-1.027.325-2.381-.674-3.025l-20.84-13.43c-1-.645-2.317-.334-2.942.693-.627 1.027-.325 2.381.674 3.025l20.84 13.43a2.08 2.08 0 0 0 1.132.336zM99.155 89.592c-.993-.64-2.302-.328-2.923.698-.62 1.025-.318 2.375.676 3.016l20.867 13.442c.35.225.737.332 1.121.332.708 0 1.4-.365 1.802-1.03.62-1.025.318-2.375-.676-3.016L99.155 89.592zM76.967 65.295l-18.11 11.392a2.175 2.175 0 0 0 .012 3.69l21.597 13.415a2.179 2.179 0 0 0 2.333-.02l4.81-3.106c1.011-.653 1.3-2 .648-3.01a2.18 2.18 0 0 0-3.013-.646l-3.65 2.356-17.467-10.849 14.004-8.81L95.344 80.49l-2.007 1.295c-1.01.653-1.3 2-.647 3.01a2.18 2.18 0 0 0 3.013.646l4.88-3.151a2.177 2.177 0 0 0-.025-3.672L79.286 65.293a2.18 2.18 0 0 0-2.319.002zM111.792 110.91c.615-1.025.312-2.37-.677-3.007L90.22 94.45c-.989-.637-2.288-.323-2.903.7-.615 1.025-.312 2.37.677 3.007l20.894 13.454c.346.223.73.329 1.11.329a2.09 2.09 0 0 0 1.793-1.03zM49.258 83.802a2.16 2.16 0 0 0 .698 2.982l53.163 32.93c.357.22.754.326 1.146.326.726 0 1.436-.363 1.847-1.022a2.16 2.16 0 0 0-.698-2.982L52.251 83.107a2.177 2.177 0 0 0-2.993.695z"/>
        </g>
        <text fill="#6096FF" font-family="Montserrat-Regular, Montserrat" font-size="29.16" transform="translate(-3 -29)">
            <tspan x="1.188" y="29">FAKE REVIEW</tspan>
        </text>
    </g>
</svg>
