<svg xmlns="http://www.w3.org/2000/svg" width="264" height="264" viewBox="0 0 264 264">
    <g fill="none" fill-rule="evenodd">
        <g>
            <circle cx="132" cy="132" r="132" fill="#FFF"/>
            <path fill="#D8DDE7" fill-rule="nonzero" d="M71.06 150.523a2.444 2.444 0 0 0-1.035-1.546 2.411 2.411 0 0 0-.877-.362 2.416 2.416 0 0 0-1.408.139 2.49 2.49 0 0 0-.789.527 2.469 2.469 0 0 0-.528.788 2.438 2.438 0 0 0-.137.454 2.391 2.391 0 0 0 0 .95 2.444 2.444 0 0 0 .36.875c.09.134.193.258.305.37a2.473 2.473 0 0 0 1.722.712 2.458 2.458 0 0 0 2.024-1.082 2.511 2.511 0 0 0 .363-.874 2.375 2.375 0 0 0 0-.95zM96.277 108.861c-10.296 0-18.673 8.543-18.673 19.043s8.377 19.043 18.673 19.043c10.297 0 18.673-8.542 18.673-19.043 0-10.5-8.376-19.043-18.673-19.043zm0 33.598c-7.87 0-14.272-6.53-14.272-14.555 0-8.025 6.402-14.555 14.272-14.555s14.272 6.53 14.272 14.555c0 8.026-6.402 14.555-14.272 14.555z"/>
            <path fill="#D8DDE7" fill-rule="nonzero" d="M97.977 125.061v-3.364c.798.082 1.3.343 1.706.554.35.182.651.339 1.03.339 1.145 0 1.621-1.378 1.621-2.116 0-1.88-3.2-2.186-4.357-2.235v-.501c0-.398-.504-.773-1.038-.773-.572 0-1.038.346-1.038.773v.586c-1.54.238-4.869 1.2-4.869 5.056 0 3.217 2.68 4.275 4.869 5.111v3.742c-.87-.185-1.5-.637-2.058-1.038-.52-.374-.97-.696-1.48-.696-1.01 0-1.769 1.313-1.769 2.165 0 1.664 2.419 3.153 5.307 3.284v.502c0 .427.466.773 1.038.773.533 0 1.038-.375 1.038-.773v-.612c3.005-.525 4.795-2.546 4.795-5.422 0-3.248-2.46-4.473-4.795-5.355zm-1.833-.68c-.931-.418-1.332-.831-1.332-1.367 0-.581.483-1.024 1.332-1.227v2.594zm1.589 7.819v-2.946c.87.444 1.26.927 1.26 1.553 0 .843-.656 1.222-1.26 1.393zM113.28 102.712a2.465 2.465 0 0 0-.665-1.242 2.465 2.465 0 0 0-2.2-.666 2.455 2.455 0 0 0-1.248.666 2.465 2.465 0 0 0-.665 1.242 2.412 2.412 0 0 0 0 .951 2.447 2.447 0 0 0 1.035 1.547 2.485 2.485 0 0 0 1.355.41c.641 0 1.268-.26 1.723-.712a2.496 2.496 0 0 0 .665-1.245 2.412 2.412 0 0 0 0-.95zM101.335 100.758H82.29c-1.242 0-2.25 1.088-2.25 2.431s1.008 2.431 2.25 2.431h19.046c1.242 0 2.25-1.088 2.25-2.43 0-1.344-1.008-2.432-2.25-2.432z"/>
            <path fill="#D8DDE7" fill-rule="nonzero" d="M156.306 141.869c-1.35-6.286-15.892-7.228-21.09-7.37v-11.63c0-7.693-2.458-14.99-7.107-21.102a35.282 35.282 0 0 0-9.557-8.644 2.22 2.22 0 0 0 .712-1.63v-11.15a2.234 2.234 0 0 0-2.237-2.231h-3.056c1.804-3.777 3.038-7.521 3.587-12.449l.69-6.185a2.228 2.228 0 0 0-.557-1.735 2.24 2.24 0 0 0-1.666-.743h-5.478c-.602 0-1.179.242-1.6.672l-3.4 3.47-3.4-3.47a2.24 2.24 0 0 0-1.6-.672h-8.505c-.602 0-1.18.242-1.6.672l-3.4 3.47-3.4-3.47a2.24 2.24 0 0 0-1.6-.672h-5.478c-.636 0-1.243.27-1.667.743a2.228 2.228 0 0 0-.556 1.735l.69 6.185c.549 4.928 1.783 8.673 3.587 12.449h-3.056c-1.235 0-2.237 1-2.237 2.232v11.15c0 .644.275 1.222.712 1.63a35.285 35.285 0 0 0-9.557 8.643c-4.65 6.112-7.107 13.41-7.107 21.101v27.128C53.061 151.505 50 155.65 50 160.323c0 5.085 3.623 9.545 8.54 10.663.319.173.683.271 1.07.271H133.58c8.46 0 22.777-1.68 22.777-7.983v-20.792a4 4 0 0 0-.05-.613zM133 138.94c.193-.002.384-.004.58-.004.337 0 .67.002.998.006.109.002.215.005.323.006.219.004.437.008.651.014l.366.011.582.02.373.016a67.654 67.654 0 0 1 1.459.082l.334.023c.196.014.387.03.578.045l.271.022c.277.023.55.049.817.076l.072.008c.244.024.483.05.719.077.09.01.178.022.268.033l.496.06.296.04a49.379 49.379 0 0 1 1.155.17l.285.047.41.07.26.047c.147.026.289.053.43.08l.21.041c.207.041.41.083.607.125l.104.024c.163.035.323.071.48.108l.204.048c.118.029.237.057.351.086l.219.056a26.9 26.9 0 0 1 1.3.37c.06.018.12.036.178.055.102.032.2.065.297.097l.136.045c.139.048.273.096.403.143l.07.026c.104.04.207.078.306.117l.126.051c.076.031.152.062.224.093l.129.055a13.115 13.115 0 0 1 .493.228l.106.053.167.088.089.047.173.1.053.032c.07.042.135.084.196.125-1.833 1.237-7.734 3.165-17.764 3.165-10.023 0-15.924-1.925-17.76-3.163 1.797-1.203 7.501-3.086 17.177-3.164H133zm18.883 7.922v4.612c-.011.018-.027.036-.042.054-.014.019-.025.036-.041.054-.018.02-.04.04-.06.06l-.057.057c-.022.02-.05.042-.075.063-.024.02-.046.04-.072.06-.028.022-.06.044-.09.066-.03.021-.057.042-.09.064-.031.022-.068.044-.102.066l-.108.07-.114.066c-.042.024-.082.048-.128.073-.039.022-.082.044-.123.065l-.15.079-.13.062c-.057.028-.113.057-.175.085l-.131.059c-.068.03-.133.06-.205.09-.044.02-.093.039-.139.058l-.228.094-.145.055-.254.097-.144.051c-.094.034-.188.068-.287.102l-.13.042c-.108.037-.217.073-.331.11l-.132.04c-.119.037-.237.074-.361.11-.04.013-.083.024-.123.036l-.403.114-.096.025c-.15.041-.302.082-.46.122l-.086.02c-.164.042-.33.082-.502.123l-.061.014c-.182.042-.368.084-.559.125l-.016.004c-2.958.636-6.94 1.118-11.954 1.118-5.37 0-9.557-.553-12.57-1.257-.006 0-.012-.002-.018-.004a31.99 31.99 0 0 1-.539-.131l-.05-.012c-.168-.043-.33-.086-.49-.13l-.066-.016c-.149-.041-.292-.083-.434-.124l-.09-.026c-.135-.04-.264-.08-.391-.12l-.103-.03a22.111 22.111 0 0 1-.355-.118l-.107-.035a17.178 17.178 0 0 1-.302-.107c-.043-.015-.088-.03-.129-.046l-.268-.102-.13-.05-.24-.098-.128-.053-.213-.095-.123-.055-.182-.088-.122-.059c-.055-.027-.104-.054-.155-.081l-.119-.063-.129-.074-.113-.066c-.038-.023-.071-.046-.107-.069l-.103-.066-.09-.065c-.03-.022-.062-.044-.089-.065-.027-.02-.049-.04-.073-.061-.025-.021-.052-.042-.075-.063l-.056-.057c-.02-.02-.043-.04-.06-.06-.016-.018-.027-.035-.041-.053l-.043-.054v-4.612c6.176 2.76 16.725 2.868 18.304 2.868 1.578 0 12.128-.108 18.303-2.868zM81.1 61.463l4.342 4.432a2.239 2.239 0 0 0 3.199 0l4.342-4.432h6.623l4.341 4.432a2.24 2.24 0 0 0 3.2 0l4.341-4.432h2.037l-.413 3.707c-.576 5.169-1.962 8.792-4.143 12.942H83.62c-2.18-4.15-3.566-7.773-4.143-12.942l-.413-3.707H81.1zm-3.302 21.112H114.79v6.688H77.798v-6.688zm35.384 55.938l-.18.13c-.72.538-1.262 1.122-1.63 1.757a4.435 4.435 0 0 0-.138.258l-.032.067c-.04.084-.078.169-.112.255l-.028.077a4.18 4.18 0 0 0-.162.536c-.002.012-.006.024-.01.037v.006l-.002.007c-.013.06-.019.121-.028.182l-.007.041c-.03.197-.05.395-.05.59V149.091h-34.09c-1.235 0-2.237.998-2.237 2.23a2.234 2.234 0 0 0 2.237 2.232h34.089v9.721c0 .093.004.184.01.275l.005.064c.007.073.014.146.024.218l.007.046c.161 1.079.76 2.053 1.792 2.917H60.29a2.247 2.247 0 0 0-.333-.078c-3.126-.49-5.483-3.239-5.483-6.393 0-3.155 2.357-5.903 5.483-6.393a2.233 2.233 0 0 0 1.89-2.204v-28.858c0-13.31 8.857-25.247 21.578-29.142h25.739c12.721 3.895 21.578 15.832 21.578 29.142v11.66c-3.427.13-6.686.493-9.517 1.057-3.061.594-6.02 1.503-7.999 2.896l-.044.032zm38.702 24.63h-.001c-.751 1.125-6.824 3.651-18.304 3.651-.255 0-.505-.003-.755-.005-.25-.003-.498-.006-.743-.011l-.215-.005a72.553 72.553 0 0 1-.923-.026c-9.785-.353-14.982-2.586-15.667-3.604v-6.455l.07.03c.097.043.197.085.297.128l.126.053c.138.057.278.112.42.167l.164.062a21.716 21.716 0 0 0 .771.274 26.437 26.437 0 0 0 .628.203l.152.045.337.1.203.057a28.71 28.71 0 0 0 .875.232l.184.046c.148.037.297.072.446.107l.214.048a40.512 40.512 0 0 0 .869.187l.205.042.504.097.208.038.333.06a41.789 41.789 0 0 0 .555.093l.237.039a75.038 75.038 0 0 0 1.31.192l.302.04.258.032.32.04.233.027a66.623 66.623 0 0 0 .763.084l.289.03.273.026a58.771 58.771 0 0 0 .547.05l.367.031.382.03.277.022.28.02c.086.005.171.01.257.017l.278.017a56.453 56.453 0 0 0 .722.041l.264.014a61.937 61.937 0 0 0 .515.022l.28.011.222.008.28.01a81.809 81.809 0 0 0 .708.017l.207.004.273.005.202.002.267.003h.192l.237.001h.238l.192-.001.267-.003.202-.002.273-.005a73.667 73.667 0 0 0 .915-.022l.28-.009.222-.008.28-.01.234-.01.281-.013.262-.014a69.7 69.7 0 0 0 .463-.025l.26-.016.28-.017.256-.018c.093-.006.186-.012.28-.02l.275-.02.39-.031.36-.03.27-.025.277-.026a57.43 57.43 0 0 0 .562-.056l.261-.027.502-.056.236-.029.317-.038.26-.033a63.664 63.664 0 0 0 1.61-.232l.24-.039a68.992 68.992 0 0 0 .882-.152l.214-.04c.167-.03.334-.063.5-.096l.212-.043a48.162 48.162 0 0 0 .86-.184l.22-.05c.144-.033.286-.068.428-.102l.21-.052.355-.091.21-.056a27.538 27.538 0 0 0 .834-.239l.159-.047c.152-.047.302-.095.451-.143l.18-.06.29-.1.19-.068c.096-.034.19-.069.284-.104l.17-.064c.14-.054.28-.11.416-.166.045-.018.088-.037.132-.056.098-.04.196-.083.292-.125l.07-.03v6.454z"/>
        </g>
        <g stroke="#6096FF" stroke-linecap="round" stroke-width="6.642">
            <path d="M91.406 206.102L132 165.585M132 165.585l27.604 29.172M160.416 194.757l45.465-47M206.693 147.758v21.879M206.693 147.758h-21.92"/>
        </g>
    </g>
</svg>
