<svg xmlns="http://www.w3.org/2000/svg" width="264" height="264" viewBox="0 0 264 264">
    <g fill="none" fill-rule="evenodd">
        <g>
            <circle cx="132" cy="132" r="132" fill="#FFF"/>
            <g fill="#D8DDE7" transform="translate(88.723 37)">
                <rect width="5.577" height="22.928" x="41.518" y="13.633" rx="2.789"/>
                <rect width="5.577" height="6.816" x="41.518" rx="2.789"/>
                <rect width="5.577" height="22.928" x="69.403" y="19.21" rx="2.789" transform="rotate(30 72.192 30.674)"/>
                <rect width="5.577" height="6.816" x="79.318" y="9.295" rx="2.789" transform="rotate(30 82.107 12.703)"/>
                <rect width="5.577" height="22.928" x="12.393" y="19.21" rx="2.789" transform="scale(-1 1) rotate(30 0 -25.986)"/>
                <rect width="5.577" height="6.816" x="1.859" y="9.295" rx="2.789" transform="scale(-1 1) rotate(30 0 -4.642)"/>
            </g>
            <path fill="#6096FF" d="M106.091 117.191v6.174L87.002 164h-9.639c2.688-5.586 5.45-11.245 8.284-16.978a2418.722 2418.722 0 0 0 8.285-16.916c.126-.21.304-.546.535-1.008.232-.462.431-.84.599-1.134.084-.126.168-.273.252-.441.084-.168.168-.315.252-.441.378-.84.798-1.554 1.26-2.142H74.339v-7.749h31.752zm21.357 48.006c-2.478 0-4.735-.325-6.772-.977-2.038-.65-3.791-1.574-5.261-2.772a12.422 12.422 0 0 1-3.434-4.41c-.819-1.743-1.228-3.706-1.228-5.89 0-2.688.64-5.04 1.921-7.056 1.282-2.016 3.287-3.57 6.017-4.662-1.974-1.092-3.517-2.541-4.63-4.347-1.114-1.806-1.67-3.822-1.67-6.048 0-1.932.378-3.696 1.134-5.292a12.218 12.218 0 0 1 3.118-4.095c1.324-1.134 2.909-2.016 4.757-2.646 1.848-.63 3.864-.945 6.048-.945 2.226 0 4.273.315 6.142.945 1.87.63 3.476 1.512 4.82 2.646a12.039 12.039 0 0 1 3.15 4.095c.756 1.596 1.134 3.36 1.134 5.292 0 2.268-.556 4.305-1.67 6.111-1.113 1.806-2.698 3.234-4.756 4.284 2.73 1.092 4.735 2.646 6.017 4.662 1.28 2.016 1.921 4.368 1.921 7.056 0 2.184-.41 4.147-1.228 5.89a12.422 12.422 0 0 1-3.434 4.41c-1.47 1.198-3.234 2.121-5.292 2.772-2.058.652-4.326.977-6.804.977zm39.381-34.216c3.102 0 4.972 1.43 4.972 3.85 0 1.804-1.034 3.102-2.838 3.476 2.222.33 3.52 1.782 3.52 3.894 0 2.618-2.068 4.18-5.544 4.18h-6.6v-15.4h6.49zm-.088 6.666c2.068 0 3.278-.924 3.278-2.552 0-1.584-1.21-2.486-3.278-2.486h-4.642v5.038h4.642zm0 7.106c2.508 0 3.96-.99 3.96-2.772 0-1.716-1.452-2.706-3.96-2.706h-4.642v5.478h4.642zm9.944-14.432c-.638 0-1.122.484-1.122 1.166 0 .66.484 1.166 1.122 1.166.638 0 1.122-.506 1.122-1.166 0-.682-.484-1.166-1.122-1.166zm-.836 4.488v11.572h1.694v-11.572h-1.694zm5.984-4.752v16.324h1.716v-16.324h-1.716zm6.116 0v16.324h1.716v-16.324h-1.716zm6.842.264c-.638 0-1.122.484-1.122 1.166 0 .66.484 1.166 1.122 1.166.638 0 1.122-.506 1.122-1.166 0-.682-.484-1.166-1.122-1.166zm-.836 4.488v11.572h1.694v-11.572h-1.694zm10.582-.066c3.432 0 5.874 2.398 5.874 5.83 0 3.476-2.442 5.874-5.874 5.874-3.432 0-5.874-2.398-5.874-5.874 0-3.432 2.442-5.83 5.874-5.83zm0 1.518c-2.42 0-4.158 1.782-4.158 4.334 0 2.596 1.738 4.356 4.158 4.356 2.42 0 4.158-1.76 4.158-4.356 0-2.552-1.738-4.334-4.158-4.334zm15.092-1.518c-2.112.022-3.674.858-4.488 2.618v-2.552h-1.716v11.572h1.716v-6.204c.198-2.244 1.606-3.762 3.894-3.784 2.046 0 3.278 1.232 3.278 3.3v6.688h1.716v-7.128c0-2.816-1.628-4.51-4.4-4.51zm-92.181 23.524c2.52 0 4.504-.661 5.954-1.984 1.449-1.324 2.173-3.077 2.173-5.261 0-2.52-.745-4.462-2.236-5.827-1.492-1.366-3.455-2.048-5.891-2.048s-4.368.682-5.796 2.048c-1.428 1.365-2.142 3.307-2.142 5.827 0 2.184.693 3.937 2.079 5.26 1.386 1.324 3.339 1.985 5.859 1.985zm0-21.924c1.218 0 2.268-.22 3.15-.661.882-.442 1.596-1.008 2.142-1.701a6.83 6.83 0 0 0 1.197-2.332c.252-.86.378-1.69.378-2.488 0-1.806-.577-3.328-1.732-4.567-1.156-1.24-2.867-1.859-5.135-1.859s-3.958.62-5.072 1.859c-1.113 1.239-1.669 2.761-1.669 4.567 0 .798.126 1.627.378 2.488a7.15 7.15 0 0 0 1.166 2.332c.525.693 1.217 1.26 2.078 1.7.862.442 1.901.662 3.119.662z"/>
        </g>
        <path fill="#FFF" stroke="#6096FF" stroke-width="2" d="M34.083 166.164a24.821 24.821 0 0 1-7.819-1.914c-2.487-1.06-4.704-2.628-6.65-4.704l5.126-6.228a16.83 16.83 0 0 0 4.38 3.244c1.664.865 3.319 1.449 4.963 1.752v-12.652l-3.374-1.298a32.149 32.149 0 0 1-3.374-1.817 14.172 14.172 0 0 1-3.05-2.53 12.466 12.466 0 0 1-2.205-3.406c-.563-1.276-.844-2.758-.844-4.445 0-1.643.303-3.19.908-4.639a11.546 11.546 0 0 1 2.596-3.827c1.124-1.103 2.476-2.033 4.055-2.79 1.578-.757 3.341-1.266 5.288-1.525v-6.813h6.033v6.748c2.077.303 4.088.876 6.034 1.72 1.947.843 3.72 2.065 5.32 3.665l-4.865 5.645c-1.904-1.774-4.066-2.92-6.489-3.439v12.587l3.634 1.363a43.605 43.605 0 0 1 3.763 1.914c1.168.67 2.184 1.46 3.05 2.368a9.787 9.787 0 0 1 2.01 3.146c.476 1.19.714 2.585.714 4.185 0 3.763-1.21 6.77-3.633 9.019-2.422 2.249-5.601 3.72-9.538 4.412v6.942h-6.033v-6.683zm10.964-13.041c0-1.298-.432-2.27-1.297-2.92-.865-.648-2.076-1.319-3.634-2.01v9.861a17.407 17.407 0 0 0 1.882-.616 5.98 5.98 0 0 0 1.59-.909 3.899 3.899 0 0 0 1.07-1.362c.26-.54.39-1.222.39-2.044zm-15.571-21.28c0 1.037.432 2.021 1.298 2.951.865.93 1.968 1.633 3.309 2.109v-9.927c-1.341.346-2.444.952-3.31 1.817-.865.865-1.297 1.881-1.297 3.05z"/>
    </g>
</svg>
