<?xml version="1.0" encoding="UTF-8"?>
<svg width="895px" height="820px" viewBox="0 0 895 820" version="1.1" xmlns="http://www.w3.org/2000/svg" xmlns:xlink="http://www.w3.org/1999/xlink">
    <!-- Generator: Sketch 46.2 (44496) - http://www.bohemiancoding.com/sketch -->
    <title>tiredResearcherIllustration</title>
    <desc>Created with Sketch.</desc>
    <defs>
        <linearGradient x1="39.6740419%" y1="100%" x2="63.0640628%" y2="0%" id="linearGradient-1">
            <stop stop-color="#E4EAF2" offset="0%"></stop>
            <stop stop-color="#FFFFFF" offset="100%"></stop>
        </linearGradient>
        <linearGradient x1="50%" y1="72.0134877%" x2="0%" y2="13.703108%" id="linearGradient-2">
            <stop stop-color="#FFFFFF" offset="0%"></stop>
            <stop stop-color="#E8ECF3" offset="100%"></stop>
        </linearGradient>
        <linearGradient x1="0%" y1="50%" x2="97.1976372%" y2="50%" id="linearGradient-3">
            <stop stop-color="#FFFFFF" stop-opacity="0" offset="0%"></stop>
            <stop stop-color="#FFFFFF" stop-opacity="0.646832012" offset="61.0637231%"></stop>
            <stop stop-color="#FFFFFF" stop-opacity="0.794629635" offset="78.0779453%"></stop>
            <stop stop-color="#FFFFFF" stop-opacity="0.87072577" offset="100%"></stop>
        </linearGradient>
    </defs>
    <g id="Page-1" stroke="none" stroke-width="1" fill="none" fill-rule="evenodd">
        <g id="font-changed" transform="translate(-1271.000000, -2607.000000)">
            <g id="tiredResearcherIllustration" transform="translate(1271.000000, 2607.000000)">
                <g id="Group-32">
                    <path d="M376.686099,731.595062 C473.766202,727.830566 500.206534,626.883964 575.573991,576.834568 C650.941448,526.785172 796.560538,602.962963 870.892377,448.202469 C945.224215,293.441975 708.76571,-2.27373675e-13 527.358744,-2.27373675e-13 C345.951779,-2.27373675e-13 306.372197,106.523457 230.03139,174.859259 C153.690583,243.195062 -7.02690583,231.135802 1.00896861,428.103704 C9.04484305,625.071605 170.578101,739.587354 376.686099,731.595062 Z" id="Oval-4" fill="#D8DCE4"></path>
                    <g id="Group-31" transform="translate(240.076233, 151.740741)">
                        <rect id="Rectangle-2" fill="#A5ADBE" x="0" y="105.523457" width="654.923767" height="22.108642"></rect>
                        <rect id="Rectangle-17" fill="#A5ADBE" x="450.008969" y="79.3950617" width="106.475336" height="24.1185185" rx="6"></rect>
                        <rect id="Rectangle-17" fill="#A5ADBE" x="450.008969" y="27.1382716" width="106.475336" height="24.1185185" rx="6"></rect>
                        <rect id="Rectangle-17" fill="#A5ADBE" x="427.910314" y="53.2666667" width="106.475336" height="24.1185185" rx="6"></rect>
                        <rect id="Rectangle-17" fill="#A5ADBE" transform="translate(117.524664, 53.266667) rotate(-90.000000) translate(-117.524664, -53.266667) " x="64.2869955" y="41.2074074" width="106.475336" height="24.1185185" rx="6"></rect>
                        <path d="M372.42981,218.960946 L372.42981,182.224511 L370.077175,177.249838 L395.335225,177.249838 L392.98259,182.224511 L392.98259,218.953373 L417.158849,266.531167 C418.159613,268.500625 417.374331,270.908466 415.404872,271.90923 C414.843442,272.194516 414.222584,272.34321 413.592829,272.34321 L351.82342,272.34321 C349.614281,272.34321 347.82342,270.552349 347.82342,268.34321 C347.82342,267.713454 347.972114,267.092597 348.2574,266.531167 L372.42981,218.960946 Z" id="Combined-Shape" fill="#A5ADBE"></path>
                        <path d="M463.566361,181.89666 L463.566361,154.260669 L461.222193,149.549984 L486.389341,149.549984 L484.045173,154.260669 L484.045173,181.70246 C498.064718,185.93513 508.269058,198.89867 508.269058,214.234253 C508.269058,233.006654 492.978478,248.224691 474.116592,248.224691 C455.254706,248.224691 439.964126,233.006654 439.964126,214.234253 C439.964126,199.126265 449.867829,186.320436 463.566361,181.89666 Z" id="Combined-Shape" fill="#A5ADBE"></path>
                        <path d="M456.210608,242.185185 L442.951389,274.362963 L505.281795,274.362963 L492.022576,242.185185 L456.210608,242.185185 Z" id="Rectangle-23" stroke="#A5ADBE" stroke-width="4"></path>
                        <rect id="Rectangle-17" fill="#A5ADBE" transform="translate(143.641256, 53.266667) rotate(-90.000000) translate(-143.641256, -53.266667) " x="90.4035874" y="41.2074074" width="106.475336" height="24.1185185" rx="6"></rect>
                        <rect id="Rectangle-17" fill="#A5ADBE" transform="translate(169.757848, 53.266667) rotate(-90.000000) translate(-169.757848, -53.266667) " x="116.520179" y="41.2074074" width="106.475336" height="24.1185185" rx="6"></rect>
                        <rect id="Rectangle-17" fill="#A5ADBE" transform="translate(219.982063, 53.266667) rotate(-120.000000) translate(-219.982063, -53.266667) " x="166.744395" y="41.2074074" width="106.475336" height="24.1185185" rx="6"></rect>
                        <polygon id="Rectangle-17" fill="#A5ADBE" points="506.345677 215.228707 591.757045 215.228707 596.57809 212.736202 596.57809 239.495896 591.757045 237.003392 506.345677 237.003392"></polygon>
                        <rect id="Rectangle-2" fill="#A5ADBE" x="0" y="274.353086" width="654.923767" height="22.108642"></rect>
                    </g>
                </g>
                <g id="Group-35" transform="translate(72.322870, 349.533333)">
                    <path d="M192.240128,156.955556 C241.781538,169.793011 280.553077,198.677286 308.554743,243.60838 C336.55641,288.539474 310.464099,345.409932 230.277812,414.219753 L201.933013,388.029754 C257.936346,332.400781 275.168141,297.097778 253.628397,282.120747 C232.088654,267.143715 199.779039,257.515624 156.699552,253.236472 L192.240128,156.955556 Z" id="Path-18" fill="#353F53"></path>
                    <path d="M191.981524,156.955556 C298.896592,171.852288 363.045632,200.581699 384.428646,243.143791 C405.811659,285.705882 411.157413,347.420915 400.465906,428.288889 L368.391386,428.288889 C364.114783,345.29281 351.284975,296.346405 329.901961,281.449673 C308.518948,266.552941 250.784811,256.976471 156.699552,252.720261 L191.981524,156.955556 Z" id="Path-18" fill="#283245"></path>
                    <path d="M367.038082,428.15107 L390.329037,424.816841 L390.329037,424.816841 C405.24104,422.682105 420.347707,427.09963 431.760195,436.932233 L445.641881,448.89221 L445.641881,448.89221 C446.478701,449.613185 446.572612,450.876028 445.851637,451.712849 C445.471706,452.153826 444.918512,452.407407 444.336439,452.407407 L361.540289,452.407407 L361.540289,452.407407 C360.435719,452.407407 359.540289,451.511977 359.540289,450.407407 C359.540289,450.221943 359.566086,450.037381 359.616938,449.859024 L365.398154,429.582504 L365.398154,429.582504 C365.614528,428.823613 366.256912,428.262899 367.038082,428.15107 Z" id="Rectangle-3" fill="#9AA3B5"></path>
                    <path d="M184.025293,408.124496 L206.499006,404.826283 L206.499006,404.826283 C221.181948,402.671434 236.068437,407.095643 247.191243,416.919866 L260.768917,428.912351 L260.768917,428.912351 C261.596796,429.643576 261.675151,430.907479 260.943926,431.735358 C260.564283,432.165183 260.018396,432.411359 259.444918,432.411359 L178.667651,432.411359 L178.667651,432.411359 C177.563081,432.411359 176.667651,431.515929 176.667651,430.411359 C176.667651,430.230239 176.692253,430.049959 176.740784,429.875462 L182.388834,409.567402 L182.388834,409.567402 C182.600856,408.805058 183.242401,408.239392 184.025293,408.124496 Z" id="Rectangle-3" fill="#9AA3B5" transform="translate(219.056296, 418.351505) rotate(51.000000) translate(-219.056296, -418.351505) "></path>
                    <path d="M305.34484,140.82716 C295.460922,145.516872 291.224957,149.424966 292.636945,152.55144 C294.048933,155.677915 305.34484,155.677915 326.524664,152.55144 L305.34484,140.82716 Z" id="Path-16" fill="#D7E4FC"></path>
                    <path d="M23.4098294,66.5288091 L26.7707324,67.0755305 L26.7707324,67.0755305 C38.1780903,68.9311764 47.0752974,77.9518474 48.7735687,89.3836938 C52.3560038,113.498866 54.1761163,137.762727 54.233884,162.175281 C54.2908111,186.232574 52.6342984,209.582955 49.2643459,232.226423 L49.2643411,232.226422 C47.6216262,243.264193 38.1445885,251.435175 26.9852477,251.435175 L26.9852477,251.435175 L26.9852477,251.435175 C19.8351146,251.435175 14.0387866,245.638846 14.0387866,238.488713 C14.0387866,237.099849 14.2622683,235.720032 14.7006625,234.402172 C21.379135,214.325908 24.7183794,192.195134 24.7183794,168.009845 C24.7183794,140.894317 20.5209661,111.196353 12.1261394,78.9159515 L12.1261355,78.9159525 C10.7361014,73.5708918 13.942284,68.1110187 19.2873447,66.7209846 C20.6331964,66.370983 22.0372535,66.3055309 23.4098294,66.5288091 Z" id="Rectangle-15" fill="#252E41" transform="translate(33.018541, 158.917122) rotate(-7.000000) translate(-33.018541, -158.917122) "></path>
                    <g id="Group-2" transform="translate(395.658970, 83.595062) rotate(-345.000000) translate(-395.658970, -83.595062) translate(314.658970, 21.595062)">
                        <g id="Group-30" transform="translate(0.000000, -0.000000)">
                            <path d="M7.02159379,35.7491848 L35.5630188,42.4918458 C62.9191871,31.5499507 81.1566326,27.9026524 90.2753554,31.5499507 C103.95344,37.0208983 128.573991,39.756372 128.573991,64.375636 C128.573991,88.9948999 112.16029,124.556059 71.1260376,116.349638 C60.2974968,114.184043 56.3548329,121.376938 49.2411029,116.349638 C42.0026343,111.234184 31.9720393,99.3804644 19.1493178,80.7884786 L0,72.5408154 L7.02159379,35.7491848 Z" id="Path-7" fill="#D7E4FC"></path>
                            <path d="M68.3971207,113.881649 L68.3971207,105.694332 L81.0466189,92.9489963 L81.0466144,92.9489917 C81.5880626,92.4034413 81.7689606,91.5958645 81.5119823,90.8714657 C76.6269949,77.1011262 78.5754051,70.2159564 87.3572128,70.2159564 C95.861775,70.2159564 102.764152,76.6732529 108.064343,89.5878459 L108.064343,89.5878459 C108.675344,91.0766271 110.125191,92.0488027 111.734474,92.0488027 L111.886174,92.0488027 L111.886174,92.0488027 C112.990744,92.0488027 113.886174,91.1533722 113.886174,90.0488027 C113.886174,89.8864635 113.866409,89.7247281 113.827315,89.5671666 L109.810598,73.3785699 L109.81058,73.3785741 C109.544578,72.3065023 110.198026,71.2217786 111.270098,70.955776 C111.438933,70.9138847 111.612511,70.8941989 111.786439,70.8972171 C114.859556,70.950545 118.453681,68.9040543 122.568813,64.7577449 C127.985982,59.2995333 130.415672,56.9335523 129.857885,57.6598019 C135.456639,61.0079621 140.866384,60.7223013 146.08712,56.8028198 C153.918225,50.9235974 149.705985,30.6801233 136.111735,21.0920524 C122.517486,11.5039816 112.291864,6.30945934 97.5292555,9.82184757 C82.7666469,13.3342358 81.1167191,25.8305508 71.8713069,30.6338163 C62.6258946,35.4370819 50.2263854,40.256237 48.1446824,51.0432502 C44.1797514,71.5888138 52.96617,72.6962776 57.5627823,86.5905911 C62.1593946,100.484905 60.2713669,97.5070142 62.9799515,105.694332 C64.7856746,111.152543 66.5913976,113.881649 68.3971207,113.881649 Z" id="Path-9" fill="#6096FF" transform="translate(98.573393, 61.301235) rotate(-282.000000) translate(-98.573393, -61.301235) "></path>
                        </g>
                    </g>
                    <path d="M61.0450803,259.459259 L69.5558166,259.459259 C71.1225999,259.459259 72.3651621,261.091978 72.3311569,263.106038 L69.006282,460.032116 C68.9722769,462.046177 68.2920736,463.678896 67.4870055,463.678896 L63.1138913,463.678896 C62.3088233,463.678896 61.62862,462.046177 61.5946149,460.032116 L58.2697399,263.106038 C58.2357348,261.091978 59.478297,259.459259 61.0450803,259.459259 Z" id="Rectangle-11" fill="#252E41"></path>
                    <path d="M225.780506,259.459259 L234.291243,259.459259 C235.858026,259.459259 237.100588,261.091978 237.066583,263.106038 L233.741708,460.032116 C233.707703,462.046177 233.0275,463.678896 232.222432,463.678896 L227.849317,463.678896 C227.044249,463.678896 226.364046,462.046177 226.330041,460.032116 L223.005166,263.106038 C222.971161,261.091978 224.213723,259.459259 225.780506,259.459259 Z" id="Rectangle-11" fill="#252E41"></path>
                    <path d="M52.2386315,251.419753 L243.079754,251.419753 L243.079754,251.419753 C249.739899,251.419753 255.139013,256.818867 255.139013,263.479012 L255.139013,271.538272 L255.139013,271.538272 C255.139013,273.747411 253.348152,275.538272 251.139013,275.538272 L44.1793722,275.538272 L44.1793722,275.538272 C41.9702332,275.538272 40.1793722,273.747411 40.1793722,271.538272 L40.1793722,263.479012 L40.1793722,263.479012 C40.1793722,256.818867 45.5784865,251.419753 52.2386315,251.419753 Z" id="Rectangle" fill="#252E41"></path>
                    <path d="M434.221773,145.983798 C436.280947,146.517275 439.501835,146.232086 443.884438,145.12823 C449.666778,143.671821 453.892047,138.71266 454.411751,132.772417 L454.690163,129.590156 C454.882702,127.389423 453.254739,125.449293 451.054007,125.256754 C450.502339,125.208489 449.946659,125.2753 449.422154,125.452955 L430.285414,131.934763 C429.547411,140.429719 430.85953,145.11273 434.221773,145.983798 Z" id="Path-17" fill="#D7E4FC"></path>
                    <path d="M65.2332025,226.270606 C65.5927446,219.564815 56.5770024,181.801118 65.2332025,154.466667 C77.7427522,114.964151 111.334483,72.7094655 161.67713,37.4666667 C190.165442,17.5231817 234.229696,2.91590169 263.67713,0.466666667 C291.164624,-1.81955398 317.207576,10.5870361 341.805987,37.686437 L341.805987,37.686437 C345.44495,41.6953847 346.446144,47.4431918 344.376985,52.4464208 L320.651322,109.815106 C300.178923,102.209133 278.254351,107.336857 254.877604,125.198277 C219.812483,151.990407 214.35961,250.440898 214.67713,274.704313 C214.811403,284.964819 208.199299,307.606999 194.840818,342.630852 L194.840817,342.630851 C193.659913,345.726998 190.192678,347.279609 187.096531,346.098705 C186.237886,345.771208 185.465943,345.250852 184.840249,344.577776 C154.143132,311.556051 133.810921,288.264897 123.843615,274.704313 C113.184615,260.202673 103.344763,252.371404 94.3240611,251.210507 L60.1307886,251.210507 L60.1307886,251.210528 C59.0262077,251.210528 58.130768,250.315088 58.130768,249.210507 C58.130768,248.786046 58.2658093,248.372592 58.5163538,248.029964 C62.5092466,242.569542 64.7481961,235.316423 65.2332025,226.270606 Z" id="Path-15" fill="url(#linearGradient-1)"></path>
                    <path d="M283.353051,29.2761066 C264.461655,20.8818917 241.471767,24.8789999 230.695296,49.0630871 C223.510982,65.1858119 227.103139,80.4128298 241.471767,94.7441407 C294.11566,135.525413 326.723881,155.916049 339.296431,155.916049 C351.404629,155.916049 381.13923,154.042085 428.500233,150.294156 L428.500233,150.294161 C431.620626,150.047228 434.026906,147.443004 434.026906,144.312855 L434.026906,133.614585 L434.026906,133.614585 C434.026906,130.605748 431.798388,128.062196 428.815663,127.666656 L360.782548,118.644764 L360.782548,118.644766 C359.110578,118.423045 357.609136,117.507851 356.645945,116.123326 C320.207523,63.7454488 295.776559,34.7963756 283.353051,29.2761066 Z" id="Path-10" fill="url(#linearGradient-2)"></path>
                </g>
                <g id="Group-11" transform="translate(302.372197, 109.533333)">
                    <polygon id="Rectangle-9" fill="url(#linearGradient-3)" opacity="0.504019475" transform="translate(177.885682, 196.744444) rotate(17.000000) translate(-177.885682, -196.744444) " points="63.491955 26.7911111 292.279409 93.0971835 292.279409 300.391705 63.491955 366.697778"></polygon>
                    <g id="Group" transform="translate(248.597013, 120.302222)" fill="#343A46">
                        <path d="M35.0852876,-2.69512432 L35.0852876,-2.69512432 L35.0852876,-2.69512432 C42.5380065,-2.69512432 48.579629,3.3464981 48.579629,10.7992171 L48.579629,220.981475 L48.579629,220.981475 C48.579629,228.434194 42.5380065,234.475816 35.0852876,234.475816 L35.0852876,234.475816 L35.0852876,-2.69512432 Z" id="Rectangle-8" transform="translate(41.832458, 115.890346) rotate(-343.000000) translate(-41.832458, -115.890346) "></path>
                        <polygon id="Path-3" points="51.2784972 105.109849 40.4830241 143.363226 40.4830241 253.341686 51.2784972 253.341686"></polygon>
                        <path d="M24.2636068,253.341686 L70.1967828,253.341686 L70.1967828,253.341686 C80.6161153,253.341686 89.0626531,261.788224 89.0626531,272.207557 L89.0626531,272.207557 L5.39773655,272.207557 L5.39773655,272.207557 L5.39773655,272.207557 C5.39773655,261.788224 13.8442744,253.341686 24.2636068,253.341686 Z" id="Rectangle-3"></path>
                    </g>
                    <g id="Group-3" transform="translate(0.000000, 391.952432)" fill="#4F5966">
                        <path d="M37.6683014,16.1707459 L53.8615111,16.1707459 C56.8425987,16.1707459 59.2067972,18.5840425 59.1420963,21.5609946 L52.8159225,312.634422 C52.7512216,315.611374 51.4570123,318.02467 49.9252252,318.02467 L41.6045873,318.02467 C40.0728002,318.02467 38.7785909,315.611374 38.71389,312.634422 L32.3877162,21.5609946 C32.3230153,18.5840425 34.6872138,16.1707459 37.6683014,16.1707459 Z" id="Rectangle-11"></path>
                        <path d="M310.253997,16.1707459 L326.447207,16.1707459 C329.428294,16.1707459 331.792493,18.5840425 331.727792,21.5609946 L325.401618,312.634422 C325.336917,315.611374 324.042708,318.02467 322.510921,318.02467 L314.190283,318.02467 C312.658496,318.02467 311.364287,315.611374 311.299586,312.634422 L304.973412,21.5609946 C304.908711,18.5840425 307.27291,16.1707459 310.253997,16.1707459 Z" id="Rectangle-11"></path>
                        <rect id="Rectangle-3" x="0" y="0" width="364.347217" height="21.5609946" rx="4"></rect>
                    </g>
                </g>
            </g>
        </g>
    </g>
</svg>
