<svg xmlns="http://www.w3.org/2000/svg" width="895" height="820" viewBox="0 0 895 820">
    <defs>
        <linearGradient id="a" x1="61.942%" x2="61.942%" y1="64.104%" y2="0%">
            <stop offset="0%" stop-color="#BBC2D0"/>
            <stop offset="100%" stop-color="#EDEFF3"/>
        </linearGradient>
        <linearGradient id="b" x1="36.092%" x2="145.542%" y1="7.424%" y2="99.543%">
            <stop offset="0%" stop-color="#283245"/>
            <stop offset="100%" stop-color="#353F53"/>
        </linearGradient>
        <linearGradient id="c" x1="39.674%" x2="63.064%" y1="100%" y2="0%">
            <stop offset="0%" stop-color="#E4EAF2"/>
            <stop offset="100%" stop-color="#FFF"/>
        </linearGradient>
        <linearGradient id="d" x1="50%" x2="0%" y1="72.013%" y2="13.703%">
            <stop offset="0%" stop-color="#FFF"/>
            <stop offset="100%" stop-color="#E8ECF3"/>
        </linearGradient>
        <linearGradient id="e" x1="0%" x2="97.198%" y1="50%" y2="50%">
            <stop offset="0%" stop-color="#FFF" stop-opacity="0"/>
            <stop offset="61.064%" stop-color="#FFF" stop-opacity=".647"/>
            <stop offset="78.078%" stop-color="#FFF" stop-opacity=".795"/>
            <stop offset="100%" stop-color="#FFF" stop-opacity=".871"/>
        </linearGradient>
    </defs>
    <g fill="none" fill-rule="evenodd">
        <path fill="url(#a)" d="M376.686 731.595c97.08-3.764 123.52-104.711 198.888-154.76 75.367-50.05 220.987 26.128 295.318-128.633C945.224 293.442 708.766 0 527.36 0S306.372 106.523 230.03 174.86C153.691 243.194-7.027 231.135 1.01 428.103c8.036 196.968 169.57 311.483 375.677 303.491z"/>
        <g transform="translate(240.076 151.74)">
            <path fill="#A5ADBE" d="M0 105.523h654.924v22.109H0z"/>
            <rect width="106.475" height="24.119" x="450.009" y="79.395" fill="#A5ADBE" rx="6"/>
            <rect width="106.475" height="24.119" x="450.009" y="27.138" fill="#A5ADBE" rx="6"/>
            <rect width="106.475" height="24.119" x="427.91" y="53.267" fill="#A5ADBE" rx="6"/>
            <rect width="106.475" height="24.119" x="64.287" y="41.207" fill="#A5ADBE" rx="6" transform="rotate(-90 117.525 53.267)"/>
            <path fill="#A5ADBE" d="M372.43 218.96v-36.735l-2.353-4.975h25.258l-2.352 4.975v36.728l24.176 47.578a4 4 0 0 1-3.566 5.812h-61.77a4 4 0 0 1-3.566-5.812l24.173-47.57zM463.566 181.897V154.26l-2.344-4.711h25.167l-2.344 4.71v27.442c14.02 4.233 24.224 17.197 24.224 32.532 0 18.773-15.29 33.99-34.152 33.99-18.862 0-34.153-15.217-34.153-33.99 0-15.108 9.904-27.914 23.602-32.337z"/>
            <path stroke="#A5ADBE" stroke-width="4" d="M456.21 242.185l-13.259 32.178h62.33l-13.258-32.178H456.21z"/>
            <rect width="106.475" height="24.119" x="90.404" y="41.207" fill="#A5ADBE" rx="6" transform="rotate(-90 143.641 53.267)"/>
            <rect width="106.475" height="24.119" x="116.52" y="41.207" fill="#A5ADBE" rx="6" transform="rotate(-90 169.758 53.267)"/>
            <rect width="106.475" height="24.119" x="166.744" y="41.207" fill="#A5ADBE" rx="6" transform="rotate(-120 219.982 53.267)"/>
            <path fill="#A5ADBE" d="M506.346 215.229h85.411l4.821-2.493v26.76l-4.821-2.493h-85.411zM0 274.353h654.924v22.109H0z"/>
        </g>
        <path fill="url(#b)" d="M192.24 156.956c49.542 12.837 88.313 41.721 116.315 86.652 28.001 44.931 1.91 101.802-78.277 170.612l-28.345-26.19c56.003-55.63 73.235-90.932 51.695-105.91-21.54-14.976-53.849-24.604-96.928-28.884l35.54-96.28z" transform="translate(72.323 349.533)"/>
        <path fill="url(#b)" d="M191.982 156.956c106.915 14.896 171.064 43.626 192.447 86.188 21.383 42.562 26.728 104.277 16.037 185.145H368.39c-4.276-82.996-17.106-131.943-38.489-146.84-21.383-14.896-79.117-24.473-173.202-28.729l35.282-95.764z" transform="translate(72.323 349.533)"/>
        <path fill="#9AA3B5" d="M439.361 777.684l23.29-3.334a52.152 52.152 0 0 1 41.432 12.116l13.882 11.96a2 2 0 0 1-1.306 3.515h-82.796a2 2 0 0 1-1.923-2.549l5.781-20.276a2 2 0 0 1 1.64-1.432zM277.281 734.225l16.707 15.39a50.411 50.411 0 0 1 16.21 39.234l-.776 18.099a2 2 0 0 1-3.552 1.173l-50.835-62.776a2 2 0 0 1 .758-3.093l19.337-8.391a2 2 0 0 1 2.151.364z"/>
        <path fill="#D7E4FC" d="M377.668 490.36c-9.884 4.69-14.12 8.598-12.708 11.725 1.412 3.126 12.708 3.126 33.888 0l-21.18-11.725z"/>
        <path fill="#252E41" d="M84.545 417.922l3.402.133a26.555 26.555 0 0 1 24.558 19.46 502.819 502.819 0 0 1 14.29 71.584c2.989 23.87 4.19 47.25 3.605 70.134-.285 11.156-8.696 20.421-19.772 21.781-7.097.872-13.556-4.175-14.428-11.272a12.946 12.946 0 0 1 .16-4.137c4.181-20.74 4.799-43.113 1.851-67.118-3.304-26.913-11.09-55.879-23.356-86.895-2.031-5.136.486-10.946 5.622-12.977a10 10 0 0 1 4.068-.693z"/>
        <path fill="#D7E4FC" d="M403.318 388.625l25.824 13.9c29.256-3.489 47.816-2.292 55.68 3.592 11.796 8.824 34.87 17.839 28.498 41.62-6.372 23.78-31.43 53.88-68.942 35.334-9.9-4.895-15.57 1.032-21.14-5.665-5.667-6.814-12.288-20.86-19.862-42.137l-16.362-12.923 16.304-33.721z"/>
        <path fill="#6096FF" d="M434.208 404.115l8.176.428 12.066 13.3a2 2 0 0 0 2.05.573c14.008-4.157 20.781-1.851 20.322 6.918-.445 8.493-7.255 15.048-20.43 19.665a3.967 3.967 0 0 0-2.649 3.537l-.008.151a2 2 0 0 0 2.377 2.068l16.376-3.164a2 2 0 0 1 2.375 2.103c-.214 3.067 1.641 6.763 5.567 11.09 5.167 5.695 7.402 8.245 6.706 7.65-3.636 5.416-3.634 10.833.007 16.252 5.461 8.128 25.897 4.98 36.184-8.093 10.286-13.074 16.009-23.014 13.274-37.94-2.735-14.926-15.128-17.228-19.44-26.712-4.314-9.484-8.477-22.119-19.14-24.762-20.31-5.035-21.876 3.682-35.992 7.545-14.116 3.863-11.043 2.133-19.361 4.41-5.545 1.517-8.365 3.178-8.46 4.981z"/>
        <path fill="#252E41" d="M133.368 608.993h8.51c1.567 0 2.81 1.632 2.776 3.646l-3.325 196.926c-.034 2.015-.714 3.647-1.52 3.647h-4.372c-.805 0-1.486-1.632-1.52-3.647l-3.324-196.926c-.034-2.014 1.208-3.646 2.775-3.646zM298.103 608.993h8.511c1.567 0 2.81 1.632 2.775 3.646l-3.324 196.926c-.034 2.015-.715 3.647-1.52 3.647h-4.373c-.805 0-1.485-1.632-1.52-3.647l-3.324-196.926c-.034-2.014 1.209-3.646 2.775-3.646z"/>
        <path fill="#252E41" d="M124.562 600.953h190.84c6.66 0 12.06 5.4 12.06 12.06v8.059a4 4 0 0 1-4 4h-206.96a4 4 0 0 1-4-4v-8.06c0-6.66 5.4-12.059 12.06-12.059z"/>
        <path fill="#D7E4FC" d="M506.545 495.517c2.059.534 5.28.248 9.662-.855a14 14 0 0 0 10.528-12.356l.278-3.183a4 4 0 0 0-5.268-4.137l-19.137 6.482c-.738 8.495.574 13.178 3.937 14.05z"/>
        <path fill="url(#c)" d="M65.233 226.27c.36-6.705-8.656-44.469 0-71.803 12.51-39.503 46.101-81.758 96.444-117 28.488-19.944 72.553-34.551 102-37 27.488-2.287 53.53 10.12 78.129 37.22a14 14 0 0 1 2.571 14.76l-23.726 57.368c-20.472-7.606-42.397-2.478-65.773 15.383-35.066 26.792-40.518 125.243-40.2 149.506.133 10.26-6.479 32.903-19.837 67.927a6 6 0 0 1-10 1.947c-30.698-33.022-51.03-56.313-60.997-69.874-10.66-14.501-20.5-22.333-29.52-23.493H60.131a2 2 0 0 1-1.615-3.181c3.993-5.46 6.232-12.714 6.717-21.76z" transform="translate(72.323 349.533)"/>
        <path fill="url(#d)" d="M283.353 29.276c-18.891-8.394-41.881-4.397-52.658 19.787-7.184 16.123-3.592 31.35 10.777 45.681 52.644 40.781 85.252 61.172 97.824 61.172 12.109 0 41.843-1.874 89.204-5.622a6 6 0 0 0 5.527-5.981v-10.698a6 6 0 0 0-5.211-5.948l-68.033-9.022a6 6 0 0 1-4.137-2.522c-36.438-52.378-60.87-81.327-73.293-86.847z" transform="translate(72.323 349.533)"/>
        <g>
            <path fill="url(#e)" d="M63.492 26.791l228.787 66.306v207.295L63.492 366.698z" opacity=".504" transform="rotate(17 -37.38 1263.12)"/>
            <g fill="#343A46">
                <path d="M621.02 230.35c7.127 2.178 11.139 9.722 8.96 16.85l-61.452 200.998c-2.179 7.127-9.723 11.138-16.85 8.96l69.342-226.809z"/>
                <path d="M602.248 334.945L591.452 373.2v109.978h10.796z"/>
                <path d="M575.233 483.177h45.933c10.42 0 18.866 8.447 18.866 18.866h-83.665c0-10.42 8.446-18.866 18.866-18.866z"/>
            </g>
            <g fill="#4F5966" transform="translate(302.372 501.486)">
                <path d="M37.668 16.17h16.194a5.255 5.255 0 0 1 5.28 5.391l-6.326 291.073c-.065 2.977-1.359 5.39-2.89 5.39h-8.321c-1.532 0-2.826-2.413-2.891-5.39L32.388 21.561a5.255 5.255 0 0 1 5.28-5.39zM310.254 16.17h16.193a5.255 5.255 0 0 1 5.28 5.391l-6.325 291.073c-.065 2.977-1.36 5.39-2.891 5.39h-8.32c-1.533 0-2.827-2.413-2.891-5.39l-6.327-291.073a5.255 5.255 0 0 1 5.281-5.39z"/>
                <rect width="364.347" height="21.561" rx="4"/>
            </g>
        </g>
    </g>
</svg>
