<?xml version="1.0" encoding="UTF-8"?>
<svg width="895px" height="821px" viewBox="0 0 895 821" version="1.1" xmlns="http://www.w3.org/2000/svg" xmlns:xlink="http://www.w3.org/1999/xlink">
    <!-- Generator: Sketch 51.3 (57544) - http://www.bohemiancoding.com/sketch -->
    <title>tiredResearcherIllustration</title>
    <desc>Created with Sketch.</desc>
    <defs>
        <linearGradient x1="50%" y1="-122.448153%" x2="50%" y2="205.34115%" id="linearGradient-1">
            <stop stop-color="#FFFFFF" offset="0%"></stop>
            <stop stop-color="#DBE0EA" offset="100%"></stop>
        </linearGradient>
        <linearGradient x1="50%" y1="-122.448153%" x2="50%" y2="205.34115%" id="linearGradient-2">
            <stop stop-color="#FFFFFF" offset="0%"></stop>
            <stop stop-color="#D7DDE9" offset="100%"></stop>
        </linearGradient>
        <linearGradient x1="36.0921247%" y1="7.4235295%" x2="145.541984%" y2="99.5428562%" id="linearGradient-3">
            <stop stop-color="#283245" offset="0%"></stop>
            <stop stop-color="#353F53" offset="100%"></stop>
        </linearGradient>
        <linearGradient x1="39.6740419%" y1="100%" x2="63.0640628%" y2="0%" id="linearGradient-4">
            <stop stop-color="#E4EAF2" offset="0%"></stop>
            <stop stop-color="#FFFFFF" offset="100%"></stop>
        </linearGradient>
        <linearGradient x1="50%" y1="72.0134877%" x2="0%" y2="13.703108%" id="linearGradient-5">
            <stop stop-color="#FFFFFF" offset="0%"></stop>
            <stop stop-color="#E8ECF3" offset="100%"></stop>
        </linearGradient>
        <linearGradient x1="0%" y1="50%" x2="97.1976372%" y2="50%" id="linearGradient-6">
            <stop stop-color="#FFFFFF" stop-opacity="0" offset="0%"></stop>
            <stop stop-color="#FFFFFF" stop-opacity="0.646832012" offset="61.0637231%"></stop>
            <stop stop-color="#FFFFFF" stop-opacity="0.794629635" offset="78.0779453%"></stop>
            <stop stop-color="#FFFFFF" stop-opacity="0.87072577" offset="100%"></stop>
        </linearGradient>
    </defs>
    <g id="Page-1" stroke="none" stroke-width="1" fill="none" fill-rule="evenodd">
        <g id="Home-+-video" transform="translate(-1271.000000, -2607.000000)">
            <g id="ProblemSection" transform="translate(1.000000, 2399.000000)">
                <g id="tiredResearcherIllustration" transform="translate(1270.000000, 208.000000)">
                    <g id="Group-13" transform="translate(655.000000, 582.000000)">
                        <path d="M43.7284708,159.964004 C45.5318473,159.964004 49.0253651,157.843792 50.2028429,143.308379 C51.5882565,126.206098 50.971377,112.668454 49.4168847,98.3806157 C48.3973547,89.0097886 51.1436928,73.829862 52.7928313,61.6815578 C53.90378,53.4978046 50.5466055,33.2706187 42.7213079,1 C36.5261526,12.9666369 33.0218936,24.421479 32.208531,35.3645263 C30.7918858,54.424187 37.11268,52.8267571 35.5863097,70.0676972 C32.9972625,99.3119823 34.3562139,105.965564 36.6912438,133.229085 C39.1649396,162.111652 40.7668973,159.964004 43.7284708,159.964004 Z" id="Oval-6" fill="#7DE0CE" transform="translate(42.500000, 80.500000) rotate(-359.000000) translate(-42.500000, -80.500000) "></path>
                        <path d="M39.4626477,130.572471 C39.6030014,138.488843 39.8487743,144.504323 40.1700063,148.979638 C40.3376354,151.315001 39.2628542,157.949972 34.1918988,159.809249 C32.1338086,160.563853 47.2992792,160.808022 47.7343207,161.536052 C48.829854,163.369398 51.9223984,159.245157 50.7315498,158.245658 C47.1508021,155.240274 38.9036614,99.0439551 39.4626477,130.572471 Z" id="Oval-6" fill="#75D3C2" transform="translate(42.500000, 141.500000) rotate(-359.000000) translate(-42.500000, -141.500000) "></path>
                        <path d="M26.6356318,162.968306 C27.4843965,162.968306 29.1286314,161.101452 29.682815,148.302975 C30.8978174,120.243358 29.2372476,99.2746678 30.9018011,76.4303025 C31.4267958,69.2252648 29.8467312,51.415164 26.1616074,23 C23.4029327,35.1783729 21.7536424,45.2643974 21.2137365,53.2580735 C20.83361,58.8861065 22.5217363,73.696759 21.5037172,85.1662865 C20.0043984,102.058384 22.2245501,115.422509 23.3235391,139.428125 C24.4877917,164.859316 25.241758,162.968306 26.6356318,162.968306 Z" id="Oval-6" fill="#7DE0CE" transform="translate(26.000000, 93.000000) rotate(-367.000000) translate(-26.000000, -93.000000) "></path>
                        <path d="M30.2303512,147.784011 C32.1280677,124.406623 31.8027249,112.103453 32.2124236,101.508855 C33.0718509,79.2845102 33.0407411,75.9272893 32.9644731,67.6968112 C32.8618689,56.6242468 31.0341718,42.7253098 27.4813818,26 C28.6173888,46.2740055 28.941851,66.2254357 28.4547685,85.8542904 C27.80337,112.104884 26.2800597,108.992812 26.539972,137.041326 C26.6052324,144.083918 26.7195097,149.435431 26.8688732,153.416778 C26.9468158,155.494372 26.4470739,161.396999 24.0892274,163.051056 C23.1322754,163.722369 30.1837774,163.939588 30.386059,164.587261 C30.89545,166.218248 32.3333931,162.549227 31.7796832,161.660048 C30.1147398,158.986388 30.0334134,150.210027 30.2303512,147.784011 Z" id="Oval-6" fill="#75D3C2" transform="translate(28.500000, 95.500000) rotate(-367.000000) translate(-28.500000, -95.500000) "></path>
                        <path d="M21.6342972,162.984404 C22.482861,162.984404 24.1267066,162.06575 24.6807589,155.767795 C25.8954736,141.96004 24.235297,131.641633 25.8994563,120.400233 C26.4243267,116.854732 24.8942033,109.054654 21.309086,97 C18.4519306,101.064751 16.7534639,105.063916 16.2136859,108.997495 C15.8336494,111.766973 17.5213759,119.055093 16.5035979,124.699091 C15.0046341,133.011462 17.2242601,139.587766 18.3229889,151.400602 C19.4869658,163.914944 20.2407536,162.984404 21.6342972,162.984404 Z" id="Oval-6" fill="#7DE0CE" transform="translate(21.000000, 130.000000) rotate(-374.000000) translate(-21.000000, -130.000000) "></path>
                        <path d="M23.8638414,133.747761 C24.7479637,122.902139 25.8626477,123.02319 25.7841882,119.006664 C25.6786357,113.603183 24.3048615,109.267628 21.6628656,106 C20.4832757,110.960956 19.6429415,118.230936 19.141863,127.809941 C18.471747,140.620397 20.3785927,135.560707 20.6459735,149.24856 C20.7131091,152.685389 22.6660175,155.404392 22.8196729,157.347314 C22.8998552,158.361193 22.3857535,161.241713 19.9601558,162.048903 C18.9757064,162.376508 26.2298287,162.482512 26.4379227,162.798581 C26.9619508,163.594513 28.4412122,161.804007 27.8715918,161.370082 C26.1588074,160.065319 23.4423703,138.917991 23.8638414,133.747761 Z" id="Oval-6" fill="#7DE0CE" transform="translate(23.500000, 134.500000) rotate(-374.000000) translate(-23.500000, -134.500000) "></path>
                        <path d="M18.702715,163 C19.5554855,163 21.5989389,161.879156 20.8303695,146.6142 C20.5519042,141.083457 19.6839322,136.212057 18.2264534,132 C14.7106682,137.628665 12.6815485,141.328213 12.1390945,143.098642 C11.757174,144.345131 12.1701691,150.085254 13.274345,155.401987 C14.4440924,161.034455 17.3022627,163 18.702715,163 Z" id="Oval-6" fill="#7DE0CE" transform="translate(16.500000, 147.500000) rotate(-383.000000) translate(-16.500000, -147.500000) "></path>
                        <path d="M20.5937477,157.279005 C22.3625134,152.148566 20.2176668,143.079259 20.1465813,141.272985 C20.0509491,138.842982 19.3444945,135.418654 18.0272176,131 C15.8820776,136.180161 14.5825151,140.924132 14.1285301,145.231912 C13.5213945,150.99291 15.2490267,148.717513 15.4912779,154.873086 C15.5521038,156.418664 17.0675459,160.266534 14.8699163,160.629536 C13.9779896,160.776863 20.7966374,162.254566 20.9851738,162.396705 C21.4599515,162.754644 28.4890171,164.176844 27.9729321,163.981704 C26.4211225,163.394938 20.410192,157.811423 20.5937477,157.279005 Z" id="Oval-6" fill="#75D3C2" transform="translate(21.000000, 147.500000) rotate(-383.000000) translate(-21.000000, -147.500000) "></path>
                        <path d="M60.505239,162 C61.9823763,162 59.9217961,159.602818 60.8862627,148.968301 C63.0007772,125.652987 60.8632839,116.265301 63.7601691,97.2834481 C64.478807,92.5745703 63.5824308,80.922189 61.0710405,62.3263041 C60.6166652,58.9618286 59.8183372,53.1863939 58.6760567,45 C52.4169109,52.8556321 49.544405,61.4536371 50.0585389,70.7940149 C50.7780079,83.8647567 56.0618811,100.832323 55.7176897,111.652101 C55.0858515,131.514152 52.8155689,127.693842 55.2169279,145.031237 C57.1797725,159.202634 58.079428,162 60.505239,162 Z" id="Oval-6" fill="#7DE0CE" transform="translate(57.000000, 103.500000) rotate(-350.000000) translate(-57.000000, -103.500000) "></path>
                        <path d="M63.108115,143.735228 C65.4903206,109.871183 66.2399515,100.737713 67.8820834,84.2357061 C68.6292699,76.7271266 65.8255077,63.9818912 59.4707966,46 C61.0747682,64.7937148 61.3417049,82.3638937 60.2716066,98.7105368 C58.8405137,120.571674 55.4938697,117.979983 56.0648854,141.338404 C57.010112,180.004595 62.3474728,154.548074 63.108115,143.735228 Z" id="Oval-6" fill="#75D3C2" transform="translate(62.000000, 104.000000) rotate(-350.000000) translate(-62.000000, -104.000000) "></path>
                        <path d="M69.621537,164 C71.4721902,164 66.512114,160.546348 67.7204602,155.884814 C70.369661,145.66478 70.0701188,143.952652 73.6995243,135.632147 C74.8442269,133.007887 72.7182557,125.463838 67.3216109,113 C66.4910754,117.510186 65.4872002,121.22103 64.3099852,124.132533 C63.4811545,126.182407 64.861777,134.950856 64.8138011,139.856333 C64.7477722,146.6077 59.98742,148.962239 62.9959983,156.561913 C65.4551771,162.773803 66.5823238,164 69.621537,164 Z" id="Oval-6" fill="#7DE0CE" transform="translate(68.000000, 138.500000) rotate(-336.000000) translate(-68.000000, -138.500000) "></path>
                        <path d="M68.2619696,158.928724 C67.746378,152.231535 71.5812745,139.514212 73.769745,134.070041 C74.7652768,131.593496 72.5325934,124.903483 67.0716948,114 C69.2567646,121.653219 69.7712275,129.048034 68.6150834,136.184446 C67.0689173,145.728306 63.4531721,144.596858 64.0701028,154.794384 C64.6680413,164.677981 66.7787283,166.080642 70.9010268,164.389704 C72.3089861,163.812169 68.4503488,161.375644 68.2619696,158.928724 Z" id="Oval-6" fill="#75D3C2" transform="translate(69.000000, 139.500000) rotate(-336.000000) translate(-69.000000, -139.500000) "></path>
                        <path d="M68.5018022,168.375379 C68.2320625,167.414184 70.6178176,167.985807 71.890666,156.8814 C74.6812823,132.535894 71.8603398,122.733411 75.6834848,102.91284 C76.8892921,96.6614967 74.6498356,78.6905501 68.9651152,49 C66.3401329,62.5591634 64.4076141,72.8065417 63.1675588,79.7421351 C62.2944847,84.6252136 65.1200131,106.230865 65.0694762,117.916375 C64.9999227,133.999045 61.2394217,134.666924 64.4085993,152.770377 C66.9990503,167.567941 69.1038712,170.520801 68.5018022,168.375379 Z" id="Oval-6" fill="#7DE0CE" transform="translate(69.500000, 109.000000) rotate(-345.000000) translate(-69.500000, -109.000000) "></path>
                        <path d="M36.319,163 C38.240122,163 40.7312677,152.539406 39.797499,150.553257 C38.240122,147.240677 40.4776369,139.696609 39.797499,133.928947 C39.4136697,130.674021 38.25417,126.031039 36.319,120 C34.773,123.60579 34,127.263797 34,130.97402 C34,137.339314 34.397878,140.282617 34.9281038,143.876087 C35.6984124,149.096657 34.397878,163 36.319,163 Z" id="Oval-7" fill="#66C1B0" transform="translate(37.000000, 141.500000) rotate(-7.000000) translate(-37.000000, -141.500000) "></path>
                        <path d="M46.7879681,163.843849 C52.3101741,162.840718 45.7044654,163.52964 46.0988347,159.817508 C46.6081906,155.023026 48.1822641,147.87742 47.4886084,145.135661 C47.0971504,143.588375 46.2860711,141.209822 45.0553705,138 C44.3401467,142.538136 43.9825348,145.689063 43.9825348,147.452783 C43.9825348,150.478636 44.0092146,153.303157 43.7236481,156.260197 C43.278972,160.864819 41.2657622,164.846979 46.7879681,163.843849 Z" id="Oval-7-Copy" fill="#66C1B0" transform="translate(46.000000, 151.000000) rotate(10.000000) translate(-46.000000, -151.000000) "></path>
                        <path d="M52.383648,162.983856 C54.750893,162.55165 53.290027,161.348803 53.7262425,158.622019 C54.2896458,155.100185 53.9258918,151.255557 53.1586327,149.241571 C52.7256374,148.104997 51.8284951,146.357806 50.4672057,144 C49.0338667,145.416859 48.6507182,148.083832 49.3177603,152.000919 C49.8373878,155.05234 50.016403,163.416062 52.383648,162.983856 Z" id="Oval-7-Copy-2" fill="#66C1B0" transform="translate(51.500000, 153.500000) rotate(19.000000) translate(-51.500000, -153.500000) "></path>
                        <path d="M5.87886853,160 L80.1211315,160 C83.1583811,160 85.3247762,161.746642 84.9599104,163.901235 L72.9030847,235.098765 C72.5382189,237.253358 70.5531097,239 68.4692191,239 L17.5307809,239 C15.4468903,239 13.4617811,237.253358 13.0969153,235.098765 L1.04008963,163.901235 C0.675223825,161.746642 2.84161893,160 5.87886853,160 Z" id="Rectangle-13" fill="url(#linearGradient-1)" fill-rule="nonzero"></path>
                        <path d="M4.85818188,160 L81.1418181,160 C84.1661896,160 86.3233991,161.773975 85.9600804,163.962283 L83.4915825,178.037717 C83.1282638,180.226025 81.1515715,182 79.0765167,182 L6.64634019,182 C4.57128544,182 2.59459315,180.226025 2.23127439,178.037717 L0.0399196479,163.962283 C-0.323399107,161.773975 1.83381037,160 4.85818188,160 Z" id="Rectangle-13" fill="url(#linearGradient-2)" fill-rule="nonzero"></path>
                    </g>
                    <g id="Group-32">
                        <path d="M376.686099,731.595062 C473.766202,727.830566 500.206534,626.883964 575.573991,576.834568 C650.941448,526.785172 796.560538,602.962963 870.892377,448.202469 C945.224215,293.441975 708.76571,-2.27373675e-13 527.358744,-2.27373675e-13 C345.951779,-2.27373675e-13 306.372197,106.523457 230.03139,174.859259 C153.690583,243.195062 -7.02690583,231.135802 1.00896861,428.103704 C9.04484305,625.071605 170.578101,739.587354 376.686099,731.595062 Z" id="Oval-4" fill="#D8DCE4"></path>
                        <g id="Group-31" transform="translate(240.076233, 151.740741)">
                            <rect id="Rectangle-2" fill="#A5ADBE" x="0" y="105.523457" width="654.923767" height="22.108642"></rect>
                            <rect id="Rectangle-17" fill="#A5ADBE" x="450.008969" y="79.3950617" width="106.475336" height="24.1185185" rx="6"></rect>
                            <rect id="Rectangle-17" fill="#A5ADBE" x="450.008969" y="27.1382716" width="106.475336" height="24.1185185" rx="6"></rect>
                            <rect id="Rectangle-17" fill="#A5ADBE" x="427.910314" y="53.2666667" width="106.475336" height="24.1185185" rx="6"></rect>
                            <rect id="Rectangle-17" fill="#A5ADBE" transform="translate(117.524664, 53.266667) rotate(-90.000000) translate(-117.524664, -53.266667) " x="64.2869955" y="41.2074074" width="106.475336" height="24.1185185" rx="6"></rect>
                            <path d="M372.42981,218.960946 L372.42981,182.224511 L370.077175,177.249838 L395.335225,177.249838 L392.98259,182.224511 L392.98259,218.953373 L417.158849,266.531167 C418.159613,268.500625 417.374331,270.908466 415.404872,271.90923 C414.843442,272.194516 414.222584,272.34321 413.592829,272.34321 L351.82342,272.34321 C349.614281,272.34321 347.82342,270.552349 347.82342,268.34321 C347.82342,267.713454 347.972114,267.092597 348.2574,266.531167 L372.42981,218.960946 Z" id="Combined-Shape" fill="#A5ADBE"></path>
                            <path d="M463.566361,181.89666 L463.566361,154.260669 L461.222193,149.549984 L486.389341,149.549984 L484.045173,154.260669 L484.045173,181.70246 C498.064718,185.93513 508.269058,198.89867 508.269058,214.234253 C508.269058,233.006654 492.978478,248.224691 474.116592,248.224691 C455.254706,248.224691 439.964126,233.006654 439.964126,214.234253 C439.964126,199.126265 449.867829,186.320436 463.566361,181.89666 Z" id="Combined-Shape" fill="#A5ADBE"></path>
                            <path d="M456.210608,242.185185 L442.951389,274.362963 L505.281795,274.362963 L492.022576,242.185185 L456.210608,242.185185 Z" id="Rectangle-23" stroke="#A5ADBE" stroke-width="4"></path>
                            <rect id="Rectangle-17" fill="#A5ADBE" transform="translate(143.641256, 53.266667) rotate(-90.000000) translate(-143.641256, -53.266667) " x="90.4035874" y="41.2074074" width="106.475336" height="24.1185185" rx="6"></rect>
                            <rect id="Rectangle-17" fill="#A5ADBE" transform="translate(169.757848, 53.266667) rotate(-90.000000) translate(-169.757848, -53.266667) " x="116.520179" y="41.2074074" width="106.475336" height="24.1185185" rx="6"></rect>
                            <rect id="Rectangle-17" fill="#A5ADBE" transform="translate(219.982063, 53.266667) rotate(-120.000000) translate(-219.982063, -53.266667) " x="166.744395" y="41.2074074" width="106.475336" height="24.1185185" rx="6"></rect>
                            <polygon id="Rectangle-17" fill="#A5ADBE" points="506.345677 215.228707 591.757045 215.228707 596.57809 212.736202 596.57809 239.495896 591.757045 237.003392 506.345677 237.003392"></polygon>
                            <rect id="Rectangle-2" fill="#A5ADBE" x="0" y="274.353086" width="654.923767" height="22.108642"></rect>
                        </g>
                    </g>
                    <g id="Group-35" transform="translate(72.322870, 349.533333)">
                        <path d="M192.240128,156.955556 C241.781538,169.793011 280.553077,198.677286 308.554743,243.60838 C336.55641,288.539474 310.464099,345.409932 230.277812,414.219753 L201.933013,388.029754 C257.936346,332.400781 275.168141,297.097778 253.628397,282.120747 C232.088654,267.143715 199.779039,257.515624 156.699552,253.236472 L192.240128,156.955556 Z" id="Path-18" fill="url(#linearGradient-3)"></path>
                        <path d="M191.981524,156.955556 C298.896592,171.852288 363.045632,200.581699 384.428646,243.143791 C405.811659,285.705882 411.157413,347.420915 400.465906,428.288889 L368.391386,428.288889 C364.114783,345.29281 351.284975,296.346405 329.901961,281.449673 C308.518948,266.552941 250.784811,256.976471 156.699552,252.720261 L191.981524,156.955556 Z" id="Path-18" fill="url(#linearGradient-3)"></path>
                        <path d="M367.038082,428.15107 L390.329037,424.816841 C405.24104,422.682105 420.347707,427.09963 431.760195,436.932233 L445.641881,448.89221 C446.478701,449.613185 446.572612,450.876028 445.851637,451.712849 C445.471706,452.153826 444.918512,452.407407 444.336439,452.407407 L361.540289,452.407407 C360.435719,452.407407 359.540289,451.511977 359.540289,450.407407 C359.540289,450.221943 359.566086,450.037381 359.616938,449.859024 L365.398154,429.582504 C365.614528,428.823613 366.256912,428.262899 367.038082,428.15107 Z" id="Rectangle-3" fill="#9AA3B5"></path>
                        <path d="M184.025293,408.124496 L206.499006,404.826283 C221.181948,402.671434 236.068437,407.095643 247.191243,416.919866 L260.768917,428.912351 C261.596796,429.643576 261.675151,430.907479 260.943926,431.735358 C260.564283,432.165183 260.018396,432.411359 259.444918,432.411359 L178.667651,432.411359 C177.563081,432.411359 176.667651,431.515929 176.667651,430.411359 C176.667651,430.230239 176.692253,430.049959 176.740784,429.875462 L182.388834,409.567402 C182.600856,408.805058 183.242401,408.239392 184.025293,408.124496 Z" id="Rectangle-3" fill="#9AA3B5" transform="translate(219.056296, 418.351505) rotate(51.000000) translate(-219.056296, -418.351505) "></path>
                        <path d="M305.34484,140.82716 C295.460922,145.516872 291.224957,149.424966 292.636945,152.55144 C294.048933,155.677915 305.34484,155.677915 326.524664,152.55144 L305.34484,140.82716 Z" id="Path-16" fill="#D7E4FC"></path>
                        <path d="M23.4098294,66.5288091 L26.7707324,67.0755305 C38.1780903,68.9311764 47.0752974,77.9518474 48.7735687,89.3836938 C52.3560038,113.498866 54.1761163,137.762727 54.233884,162.175281 C54.2908111,186.232574 52.6342984,209.582955 49.2643459,232.226423 L49.2643411,232.226422 C47.6216262,243.264193 38.1445885,251.435175 26.9852477,251.435175 L26.9852477,251.435175 C19.8351146,251.435175 14.0387866,245.638846 14.0387866,238.488713 C14.0387866,237.099849 14.2622683,235.720032 14.7006625,234.402172 C21.379135,214.325908 24.7183794,192.195134 24.7183794,168.009845 C24.7183794,140.894317 20.5209661,111.196353 12.1261394,78.9159515 L12.1261355,78.9159525 C10.7361014,73.5708918 13.942284,68.1110187 19.2873447,66.7209846 C20.6331964,66.370983 22.0372535,66.3055309 23.4098294,66.5288091 Z" id="Rectangle-15" fill="#252E41" transform="translate(33.018541, 158.917122) rotate(-7.000000) translate(-33.018541, -158.917122) "></path>
                        <g id="Group-2" transform="translate(395.658970, 83.595062) rotate(-345.000000) translate(-395.658970, -83.595062) translate(314.658970, 21.595062)">
                            <g id="Group-30" transform="translate(0.000000, -0.000000)">
                                <path d="M7.02159379,35.7491848 L35.5630188,42.4918458 C62.9191871,31.5499507 81.1566326,27.9026524 90.2753554,31.5499507 C103.95344,37.0208983 128.573991,39.756372 128.573991,64.375636 C128.573991,88.9948999 112.16029,124.556059 71.1260376,116.349638 C60.2974968,114.184043 56.3548329,121.376938 49.2411029,116.349638 C42.0026343,111.234184 31.9720393,99.3804644 19.1493178,80.7884786 L0,72.5408154 L7.02159379,35.7491848 Z" id="Path-7" fill="#D7E4FC"></path>
                                <path d="M68.3971207,113.881649 L68.3971207,105.694332 L81.0466144,92.9489917 C81.5880626,92.4034413 81.7689606,91.5958645 81.5119823,90.8714657 C76.6269949,77.1011262 78.5754051,70.2159564 87.3572128,70.2159564 C95.861775,70.2159564 102.764152,76.6732529 108.064343,89.5878459 L108.064343,89.5878459 C108.675344,91.0766271 110.125191,92.0488027 111.734474,92.0488027 L111.886174,92.0488027 C112.990744,92.0488027 113.886174,91.1533722 113.886174,90.0488027 C113.886174,89.8864635 113.866409,89.7247281 113.827315,89.5671666 L109.81058,73.3785741 C109.544578,72.3065023 110.198026,71.2217786 111.270098,70.955776 C111.438933,70.9138847 111.612511,70.8941989 111.786439,70.8972171 C114.859556,70.950545 118.453681,68.9040543 122.568813,64.7577449 C127.985982,59.2995333 130.415672,56.9335523 129.857885,57.6598019 C135.456639,61.0079621 140.866384,60.7223013 146.08712,56.8028198 C153.918225,50.9235974 149.705985,30.6801233 136.111735,21.0920524 C122.517486,11.5039816 112.291864,6.30945934 97.5292555,9.82184757 C82.7666469,13.3342358 81.1167191,25.8305508 71.8713069,30.6338163 C62.6258946,35.4370819 50.2263854,40.256237 48.1446824,51.0432502 C44.1797514,71.5888138 52.96617,72.6962776 57.5627823,86.5905911 C62.1593946,100.484905 60.2713669,97.5070142 62.9799515,105.694332 C64.7856746,111.152543 66.5913976,113.881649 68.3971207,113.881649 Z" id="Path-9" fill="#6096FF" transform="translate(98.573393, 61.301235) rotate(-282.000000) translate(-98.573393, -61.301235) "></path>
                            </g>
                        </g>
                        <path d="M61.0450803,259.459259 L69.5558166,259.459259 C71.1225999,259.459259 72.3651621,261.091978 72.3311569,263.106038 L69.006282,460.032116 C68.9722769,462.046177 68.2920736,463.678896 67.4870055,463.678896 L63.1138913,463.678896 C62.3088233,463.678896 61.62862,462.046177 61.5946149,460.032116 L58.2697399,263.106038 C58.2357348,261.091978 59.478297,259.459259 61.0450803,259.459259 Z" id="Rectangle-11" fill="#252E41"></path>
                        <path d="M225.780506,259.459259 L234.291243,259.459259 C235.858026,259.459259 237.100588,261.091978 237.066583,263.106038 L233.741708,460.032116 C233.707703,462.046177 233.0275,463.678896 232.222432,463.678896 L227.849317,463.678896 C227.044249,463.678896 226.364046,462.046177 226.330041,460.032116 L223.005166,263.106038 C222.971161,261.091978 224.213723,259.459259 225.780506,259.459259 Z" id="Rectangle-11" fill="#252E41"></path>
                        <path d="M52.2386315,251.419753 L243.079754,251.419753 C249.739899,251.419753 255.139013,256.818867 255.139013,263.479012 L255.139013,271.538272 C255.139013,273.747411 253.348152,275.538272 251.139013,275.538272 L44.1793722,275.538272 C41.9702332,275.538272 40.1793722,273.747411 40.1793722,271.538272 L40.1793722,263.479012 C40.1793722,256.818867 45.5784865,251.419753 52.2386315,251.419753 Z" id="Rectangle" fill="#252E41"></path>
                        <path d="M434.221773,145.983798 C436.280947,146.517275 439.501835,146.232086 443.884438,145.12823 C449.666778,143.671821 453.892047,138.71266 454.411751,132.772417 L454.690163,129.590156 C454.882702,127.389423 453.254739,125.449293 451.054007,125.256754 C450.502339,125.208489 449.946659,125.2753 449.422154,125.452955 L430.285414,131.934763 C429.547411,140.429719 430.85953,145.11273 434.221773,145.983798 Z" id="Path-17" fill="#D7E4FC"></path>
                        <path d="M65.2332025,226.270606 C65.5927446,219.564815 56.5770024,181.801118 65.2332025,154.466667 C77.7427522,114.964151 111.334483,72.7094655 161.67713,37.4666667 C190.165442,17.5231817 234.229696,2.91590169 263.67713,0.466666667 C291.164624,-1.81955398 317.207576,10.5870361 341.805987,37.686437 L341.805987,37.686437 C345.44495,41.6953847 346.446144,47.4431918 344.376985,52.4464208 L320.651322,109.815106 C300.178923,102.209133 278.254351,107.336857 254.877604,125.198277 C219.812483,151.990407 214.35961,250.440898 214.67713,274.704313 C214.811403,284.964819 208.199299,307.606999 194.840818,342.630852 L194.840817,342.630851 C193.659913,345.726998 190.192678,347.279609 187.096531,346.098705 C186.237886,345.771208 185.465943,345.250852 184.840249,344.577776 C154.143132,311.556051 133.810921,288.264897 123.843615,274.704313 C113.184615,260.202673 103.344763,252.371404 94.3240611,251.210507 L60.1307886,251.210528 C59.0262077,251.210528 58.130768,250.315088 58.130768,249.210507 C58.130768,248.786046 58.2658093,248.372592 58.5163538,248.029964 C62.5092466,242.569542 64.7481961,235.316423 65.2332025,226.270606 Z" id="Path-15" fill="url(#linearGradient-4)"></path>
                        <path d="M283.353051,29.2761066 C264.461655,20.8818917 241.471767,24.8789999 230.695296,49.0630871 C223.510982,65.1858119 227.103139,80.4128298 241.471767,94.7441407 C294.11566,135.525413 326.723881,155.916049 339.296431,155.916049 C351.404629,155.916049 381.13923,154.042085 428.500233,150.294156 L428.500233,150.294161 C431.620626,150.047228 434.026906,147.443004 434.026906,144.312855 L434.026906,133.614585 C434.026906,130.605748 431.798388,128.062196 428.815663,127.666656 L360.782548,118.644766 C359.110578,118.423045 357.609136,117.507851 356.645945,116.123326 C320.207523,63.7454488 295.776559,34.7963756 283.353051,29.2761066 Z" id="Path-10" fill="url(#linearGradient-5)"></path>
                    </g>
                    <g id="Group-11" transform="translate(302.372197, 109.533333)">
                        <polygon id="Rectangle-9" fill="url(#linearGradient-6)" opacity="0.504019475" transform="translate(177.885682, 196.744444) rotate(17.000000) translate(-177.885682, -196.744444) " points="63.491955 26.7911111 292.279409 93.0971835 292.279409 300.391705 63.491955 366.697778"></polygon>
                        <g id="Group" transform="translate(248.597013, 120.302222)" fill="#343A46">
                            <path d="M35.0852876,-2.69512432 L35.0852876,-2.69512432 C42.5380065,-2.69512432 48.579629,3.3464981 48.579629,10.7992171 L48.579629,220.981475 C48.579629,228.434194 42.5380065,234.475816 35.0852876,234.475816 L35.0852876,-2.69512432 Z" id="Rectangle-8" transform="translate(41.832458, 115.890346) rotate(-343.000000) translate(-41.832458, -115.890346) "></path>
                            <polygon id="Path-3" points="51.2784972 105.109849 40.4830241 143.363226 40.4830241 253.341686 51.2784972 253.341686"></polygon>
                            <path d="M24.2636068,253.341686 L70.1967828,253.341686 C80.6161153,253.341686 89.0626531,261.788224 89.0626531,272.207557 L5.39773655,272.207557 L5.39773655,272.207557 C5.39773655,261.788224 13.8442744,253.341686 24.2636068,253.341686 Z" id="Rectangle-3"></path>
                        </g>
                        <g id="Group-3" transform="translate(0.000000, 391.952432)" fill="#4F5966">
                            <path d="M37.6683014,16.1707459 L53.8615111,16.1707459 C56.8425987,16.1707459 59.2067972,18.5840425 59.1420963,21.5609946 L52.8159225,312.634422 C52.7512216,315.611374 51.4570123,318.02467 49.9252252,318.02467 L41.6045873,318.02467 C40.0728002,318.02467 38.7785909,315.611374 38.71389,312.634422 L32.3877162,21.5609946 C32.3230153,18.5840425 34.6872138,16.1707459 37.6683014,16.1707459 Z" id="Rectangle-11"></path>
                            <path d="M310.253997,16.1707459 L326.447207,16.1707459 C329.428294,16.1707459 331.792493,18.5840425 331.727792,21.5609946 L325.401618,312.634422 C325.336917,315.611374 324.042708,318.02467 322.510921,318.02467 L314.190283,318.02467 C312.658496,318.02467 311.364287,315.611374 311.299586,312.634422 L304.973412,21.5609946 C304.908711,18.5840425 307.27291,16.1707459 310.253997,16.1707459 Z" id="Rectangle-11"></path>
                            <rect id="Rectangle-3" x="0" y="0" width="364.347217" height="21.5609946" rx="4"></rect>
                        </g>
                    </g>
                </g>
            </g>
        </g>
    </g>
</svg>
