<svg xmlns="http://www.w3.org/2000/svg" xmlns:xlink="http://www.w3.org/1999/xlink" width="264" height="264" viewBox="0 0 264 264">
    <defs>
        <rect id="problem_4_a" width="23.006" height="30.027" x="38.343" y="100.09" rx="11.503"/>
        <path id="problem_4_b" d="M90.02 56.63c-.587-14.474-8.708-27.007-20.546-33.783-2.042 9.057-13.15 18.398-26.89 18.398-10.172 0-19.836-3.404-25.133-8.6a40.668 40.668 0 0 0-9.074 25.67v14.58c0 22.554 18.284 40.838 40.839 40.838 21.68 0 39.416-16.895 40.757-38.237 5.082-.142 9.157-4.311 9.157-9.434 0-5.107-4.05-9.266-9.11-9.432z"/>
    </defs>
    <g fill="none" fill-rule="evenodd">
        <circle cx="132" cy="132" r="132" fill="#FFF"/>
        <path stroke="#D8DDE7" stroke-linecap="round" stroke-width="4.617" d="M231.148 212.144c0-24.86-10.26-38.496-50.995-38.496-40.737 0-50.996 13.635-50.996 38.496"/>
        <path stroke="#D8DDE7" stroke-linecap="round" stroke-linejoin="round" stroke-width="4.617" d="M165.2 182.117l-6.903 20.251 6.902 3.616M193.573 182.117l6.901 20.251-6.901 3.616"/>
        <path stroke="#D8DDE7" stroke-width="4.617" d="M179.386 208.294l10.352-33.877h-20.705z"/>
        <g transform="translate(129.157 52)">
            <use fill="#FFF" xlink:href="#problem_4_a"/>
            <rect width="18.389" height="25.41" x="40.651" y="102.398" stroke="#D8DDE7" stroke-width="4.617" rx="9.194"/>
        </g>
        <g transform="translate(129.924 52)">
            <path stroke="#D8DDE7" stroke-width="4.617" d="M79.374 51.327c-6.773 4.995-16.208 8.094-26.643 8.094-5.313 0-10.741-1.162-15.872-3.143-3.658 5.703-9.736 9.435-16.614 9.435C9.064 65.713 0 55.853 0 43.692c0-8.016 3.937-15.03 9.823-18.882C10.463 10.922 17.65 0 47.097 0c27.029 0 39.59 13.311 42.357 26.612.345-.031.698-.047 1.06-.047 8.892 0 10.71 6.686 10.71 14.934 0 8.249-6.411 17.922-12.327 17.922-4.147 0-7.743-3.287-9.523-8.094z"/>
            <use fill="#FFF" xlink:href="#problem_4_b"/>
            <path stroke="#D8DDE7" stroke-width="4.617" d="M70.77 26.372c-3.903 9.538-15.558 17.182-28.186 17.182-9.526 0-18.779-2.85-24.788-7.547-4.59 6.451-7.11 14.184-7.11 22.309v14.578c0 21.28 17.25 38.53 38.53 38.53 20.365 0 37.182-15.85 38.453-36.073l.133-2.104 2.107-.059c3.842-.107 6.913-3.264 6.913-7.126 0-3.849-3.05-7-6.877-7.125l-2.144-.07-.087-2.144c-.503-12.381-6.903-23.568-16.944-30.35z"/>
            <ellipse cx="33.094" cy="63.258" fill="#D8DDE7" rx="3.672" ry="3.869"/>
            <ellipse cx="65.317" cy="63.258" fill="#D8DDE7" rx="3.672" ry="3.869"/>
            <path stroke="#D8DDE7" stroke-linecap="round" stroke-width="4.617" d="M35.254 49.284L22.688 52.78M61.782 49.284l12.566 3.496"/>
            <path stroke="#D8DDE7" stroke-linecap="round" stroke-linejoin="round" stroke-width="4.617" d="M47.82 67.46l-3.49 9.787 3.49 1.748"/>
            <path stroke="#D8DDE7" stroke-linecap="round" stroke-width="4.617" d="M56.508 95.073c0-3.474-3.42-6.291-7.641-6.291-4.22 0-7.641 2.817-7.641 6.291"/>
        </g>
        <g fill="#6096FF" fill-rule="nonzero">
            <path d="M77.191 137.999c-.562.154-1.135.291-1.703.406-1.487.305-2.47 1.88-2.194 3.518a3.051 3.051 0 0 0 1.115 1.916c.582.451 1.322.655 2.077.5.677-.138 1.36-.3 2.03-.485 1.467-.402 2.361-2.04 1.995-3.656-.365-1.618-1.851-2.602-3.32-2.2zM98.872 101.047c.2.516.585.936 1.07 1.227.718.43 1.659.575 2.556.323 1.505-.425 2.32-1.805 1.822-3.084a27.556 27.556 0 0 0-.746-1.738c-.589-1.252-2.258-1.861-3.73-1.36-1.471.5-2.188 1.92-1.599 3.172.225.479.436.97.627 1.46zM87.218 135.585c-.5.319-1.015.628-1.535.917-1.355.756-1.82 2.43-1.038 3.74.213.357.495.648.82.87.874.595 2.061.684 3.049.134.617-.345 1.232-.71 1.827-1.091 1.304-.834 1.663-2.533.801-3.795s-2.619-1.61-3.924-.775zM105.354 107.808c-.07-1.326-1.557-2.359-3.324-2.307-1.764.052-3.14 1.17-3.07 2.496.026.507.033 1.021.017 1.528-.024.831.517 1.573 1.36 2.018.5.266 1.11.426 1.77.437 1.765.03 3.229-1.022 3.268-2.35.018-.604.011-1.217-.02-1.822zM96.984 126.381c-1.168-.845-2.82-.616-3.694.51-.335.43-.688.855-1.05 1.265a2.486 2.486 0 0 0 .3 3.59c.062.051.126.099.193.143 1.102.75 2.634.578 3.526-.431.431-.49.852-.998 1.252-1.512.875-1.125.638-2.72-.527-3.565zM102.445 116.723c-1.52-.403-3.138.313-3.614 1.597-.182.49-.384.984-.602 1.467-.48 1.063-.02 2.233 1.031 2.86.193.114.406.211.636.285 1.488.48 3.154-.151 3.721-1.41.26-.573.5-1.16.717-1.744.476-1.284-.37-2.652-1.889-3.055zM65.669 138.884a29.82 29.82 0 0 1-7.284-2.262c-.028-.014-.052-.03-.08-.042a31.306 31.306 0 0 1-1.615-.799l-.008-.004a30.415 30.415 0 0 1-2.826-1.726c-13.359-9.194-16.571-27.294-7.16-40.347a29.19 29.19 0 0 1 7.284-7.08l.102-.07c9.729-6.55 22.94-6.99 33.27-.26l-2.218 3.132c-.617.872-.238 1.507.842 1.412l9.638-.843c1.081-.095 1.728-1.009 1.437-2.029l-2.588-9.11c-.29-1.022-1.032-1.145-1.649-.273l-2.224 3.14c-7.581-4.973-16.675-6.869-25.7-5.34-.909.154-1.805.342-2.69.561l-.017.003-.102.029c-7.783 1.952-14.573 6.387-19.419 12.715-.04.048-.082.094-.121.145a32.717 32.717 0 0 0-1.227 1.73c-.03.044-.054.09-.08.133-3.999 6.054-5.927 13.053-5.597 20.178v.071c.033.696.089 1.402.166 2.097.004.045.014.087.022.132a33.99 33.99 0 0 0 10.186 20.67c.012.01.024.024.037.036l.013.011a35.603 35.603 0 0 0 4.524 3.694 35.462 35.462 0 0 0 14.082 5.758c1.544.271 3.018-.733 3.295-2.24.277-1.51-.75-2.952-2.293-3.222z"/>
            <path d="M68.161 87.905c-1.248 0-2.26 1-2.26 2.23v22.209l20.579 10.5c.33.17.686.249 1.034.249.818 0 1.607-.44 2.009-1.206a2.214 2.214 0 0 0-.97-3.003l-18.135-9.255V90.135c0-1.23-1.01-2.23-2.257-2.23z"/>
        </g>
        <g stroke="#D8DDE7" stroke-width="2.308" transform="translate(31 187.506)">
            <rect width="67.491" height="5.388" x="-1.154" y="20.404" rx="2.694"/>
            <rect width="67.491" height="5.388" x="2.68" y="15.014" rx="2.694"/>
            <rect width="67.491" height="5.388" x="2.68" y="9.625" rx="2.694"/>
            <rect width="67.491" height="5.388" x="-.387" y="4.235" rx="2.694"/>
            <rect width="67.491" height="5.388" x="7.281" y="-1.154" rx="2.694"/>
        </g>
    </g>
</svg>
