<svg xmlns="http://www.w3.org/2000/svg" width="264" height="264" viewBox="0 0 264 264">
    <g fill="none" fill-rule="evenodd">
        <g>
            <circle cx="132" cy="132" r="132" fill="#FFF"/>
            <g fill="#6096FF">
                <path stroke="#6096FF" stroke-width="1.458" d="M92.086 116.92c2.25 0 4.315.345 6.196 1.038 1.882.692 3.493 1.654 4.834 2.887 1.34 1.232 2.39 2.714 3.147 4.444.757 1.73 1.135 3.633 1.135 5.71a15.145 15.145 0 0 1-.94 4.898 23.672 23.672 0 0 1-2.24 4.51 36.784 36.784 0 0 1-3.081 4.152 86.836 86.836 0 0 1-3.536 3.893l-10.057 10.121a15.463 15.463 0 0 1 2.498-.422c.8-.065 1.568-.097 2.304-.097h15.571v8.175H74.114v-5.19L90.4 145.013c2.466-2.466 4.412-4.758 5.84-6.877 1.427-2.12 2.14-4.434 2.14-6.943 0-2.249-.616-3.947-1.849-5.093-1.232-1.146-2.908-1.72-5.028-1.72-1.816 0-3.352.53-4.606 1.59-1.255 1.06-2.141 2.304-2.66 3.731a6.831 6.831 0 0 0-.357 1.492c-.065.52-.12 1.103-.163 1.752l-8.499-1.427c.735-4.975 2.617-8.651 5.645-11.03 3.028-2.38 6.769-3.569 11.224-3.569zm38.994 0c2.249.043 4.303.41 6.163 1.102 1.86.692 3.45 1.622 4.77 2.79a11.83 11.83 0 0 1 3.016 4.088c.692 1.557 1.016 3.244.973 5.06 0 2.769-.703 5.007-2.108 6.716a15.303 15.303 0 0 1-5.158 4.055c2.854 1.081 4.92 2.563 6.196 4.444 1.276 1.882 1.914 4.25 1.914 7.105-.044 2.465-.541 4.65-1.493 6.553-.951 1.903-2.206 3.492-3.763 4.768-1.557 1.276-3.373 2.239-5.45 2.888a21.624 21.624 0 0 1-6.488.973c-2.465 0-4.639-.303-6.52-.909-1.882-.605-3.504-1.481-4.866-2.627-1.363-1.147-2.53-2.552-3.504-4.218-.973-1.665-1.784-3.557-2.433-5.677l7.915-3.114c.173.649.476 1.427.909 2.336.432.908.897 1.72 1.395 2.433a10.651 10.651 0 0 0 1.752 1.946 9.489 9.489 0 0 0 2.27 1.46c.844.39 1.828.584 2.952.584 1.428 0 2.671-.205 3.731-.616 1.06-.411 1.947-.952 2.66-1.622a6.395 6.395 0 0 0 1.59-2.304 7.103 7.103 0 0 0 .519-2.66c0-1.124-.12-2.162-.357-3.114-.238-.952-.746-1.763-1.525-2.433-.778-.67-1.924-1.19-3.438-1.557-1.514-.368-3.526-.552-6.034-.552v-6.488c2.12-.043 3.87-.238 5.255-.584 1.384-.346 2.466-.832 3.244-1.46.779-.627 1.32-1.362 1.622-2.206.303-.843.454-1.784.454-2.822.044-2.25-.53-3.925-1.719-5.028-1.19-1.103-2.844-1.655-4.963-1.655-1.947 0-3.547.487-4.802 1.46-1.254.973-2.162 2.239-2.725 3.796-.302.951-.54 1.968-.713 3.05-1.384-.217-2.78-.466-4.185-.747a91.751 91.751 0 0 0-4.25-.746c.952-4.888 2.909-8.521 5.872-10.9 2.963-2.38 6.737-3.569 11.322-3.569z"/>
                <path stroke="#6096FF" stroke-width="1.458" d="M92.086 116.92c2.25 0 4.315.345 6.196 1.038 1.882.692 3.493 1.654 4.834 2.887 1.34 1.232 2.39 2.714 3.147 4.444.757 1.73 1.135 3.633 1.135 5.71a15.145 15.145 0 0 1-.94 4.898 23.672 23.672 0 0 1-2.24 4.51 36.784 36.784 0 0 1-3.081 4.152 86.836 86.836 0 0 1-3.536 3.893l-10.057 10.121a15.463 15.463 0 0 1 2.498-.422c.8-.065 1.568-.097 2.304-.097h15.571v8.175H74.114v-5.19L90.4 145.013c2.466-2.466 4.412-4.758 5.84-6.877 1.427-2.12 2.14-4.434 2.14-6.943 0-2.249-.616-3.947-1.849-5.093-1.232-1.146-2.908-1.72-5.028-1.72-1.816 0-3.352.53-4.606 1.59-1.255 1.06-2.141 2.304-2.66 3.731a6.831 6.831 0 0 0-.357 1.492c-.065.52-.12 1.103-.163 1.752l-8.499-1.427c.735-4.975 2.617-8.651 5.645-11.03 3.028-2.38 6.769-3.569 11.224-3.569zm38.994 0c2.249.043 4.303.41 6.163 1.102 1.86.692 3.45 1.622 4.77 2.79a11.83 11.83 0 0 1 3.016 4.088c.692 1.557 1.016 3.244.973 5.06 0 2.769-.703 5.007-2.108 6.716a15.303 15.303 0 0 1-5.158 4.055c2.854 1.081 4.92 2.563 6.196 4.444 1.276 1.882 1.914 4.25 1.914 7.105-.044 2.465-.541 4.65-1.493 6.553-.951 1.903-2.206 3.492-3.763 4.768-1.557 1.276-3.373 2.239-5.45 2.888a21.624 21.624 0 0 1-6.488.973c-2.465 0-4.639-.303-6.52-.909-1.882-.605-3.504-1.481-4.866-2.627-1.363-1.147-2.53-2.552-3.504-4.218-.973-1.665-1.784-3.557-2.433-5.677l7.915-3.114c.173.649.476 1.427.909 2.336.432.908.897 1.72 1.395 2.433a10.651 10.651 0 0 0 1.752 1.946 9.489 9.489 0 0 0 2.27 1.46c.844.39 1.828.584 2.952.584 1.428 0 2.671-.205 3.731-.616 1.06-.411 1.947-.952 2.66-1.622a6.395 6.395 0 0 0 1.59-2.304 7.103 7.103 0 0 0 .519-2.66c0-1.124-.12-2.162-.357-3.114-.238-.952-.746-1.763-1.525-2.433-.778-.67-1.924-1.19-3.438-1.557-1.514-.368-3.526-.552-6.034-.552v-6.488c2.12-.043 3.87-.238 5.255-.584 1.384-.346 2.466-.832 3.244-1.46.779-.627 1.32-1.362 1.622-2.206.303-.843.454-1.784.454-2.822.044-2.25-.53-3.925-1.719-5.028-1.19-1.103-2.844-1.655-4.963-1.655-1.947 0-3.547.487-4.802 1.46-1.254.973-2.162 2.239-2.725 3.796-.302.951-.54 1.968-.713 3.05-1.384-.217-2.78-.466-4.185-.747a91.751 91.751 0 0 0-4.25-.746c.952-4.888 2.909-8.521 5.872-10.9 2.963-2.38 6.737-3.569 11.322-3.569z"/>
                <path d="M177.597 132.462c4.111 0 6.59 1.895 6.59 5.103 0 2.391-1.37 4.112-3.762 4.607 2.945.438 4.666 2.362 4.666 5.162 0 3.47-2.741 5.54-7.349 5.54h-8.748v-20.412h8.603zm-.117 8.835c2.741 0 4.345-1.224 4.345-3.382 0-2.1-1.604-3.295-4.345-3.295h-6.153v6.677h6.153zm0 9.42c3.324 0 5.249-1.313 5.249-3.675 0-2.274-1.925-3.587-5.249-3.587h-6.153v7.261h6.153zm13.18-19.13c-.845 0-1.487.642-1.487 1.546 0 .874.642 1.545 1.487 1.545.846 0 1.487-.67 1.487-1.545 0-.904-.641-1.546-1.487-1.546zm-1.108 5.949v15.338h2.246v-15.338h-2.246zm7.932-6.299v21.637h2.274v-21.637h-2.274zm8.106 0v21.637h2.275v-21.637h-2.275zm14.201 6.211c4.55 0 7.786 3.179 7.786 7.728 0 4.607-3.237 7.785-7.786 7.785-4.549 0-7.786-3.178-7.786-7.785 0-4.55 3.237-7.728 7.786-7.728zm0 2.012c-3.207 0-5.511 2.362-5.511 5.745 0 3.44 2.304 5.774 5.511 5.774 3.208 0 5.511-2.333 5.511-5.774 0-3.383-2.303-5.745-5.51-5.745zm20.004-2.012c-2.8.03-4.87 1.138-5.949 3.47v-3.382h-2.274v15.338h2.274v-8.223c.263-2.974 2.129-4.986 5.162-5.016 2.711 0 4.344 1.633 4.344 4.374v8.865h2.275v-9.448c0-3.732-2.158-5.978-5.832-5.978z"/>
            </g>
            <g fill="#D8DDE7" transform="translate(88.723 37)">
                <rect width="5.577" height="22.928" x="41.518" y="13.633" rx="2.789"/>
                <rect width="5.577" height="6.816" x="41.518" rx="2.789"/>
                <rect width="5.577" height="22.928" x="69.403" y="19.21" rx="2.789" transform="rotate(30 72.192 30.674)"/>
                <rect width="5.577" height="6.816" x="79.318" y="9.295" rx="2.789" transform="rotate(30 82.107 12.703)"/>
                <rect width="5.577" height="22.928" x="12.393" y="19.21" rx="2.789" transform="scale(-1 1) rotate(30 0 -25.986)"/>
                <rect width="5.577" height="6.816" x="1.859" y="9.295" rx="2.789" transform="scale(-1 1) rotate(30 0 -4.642)"/>
            </g>
        </g>
        <path fill="#FFF" stroke="#6096FF" stroke-width="2" d="M34.083 166.164a24.821 24.821 0 0 1-7.819-1.914c-2.487-1.06-4.704-2.628-6.65-4.704l5.126-6.228a16.83 16.83 0 0 0 4.38 3.244c1.664.865 3.319 1.449 4.963 1.752v-12.652l-3.374-1.298a32.149 32.149 0 0 1-3.374-1.817 14.172 14.172 0 0 1-3.05-2.53 12.466 12.466 0 0 1-2.205-3.406c-.563-1.276-.844-2.758-.844-4.445 0-1.643.303-3.19.908-4.639a11.546 11.546 0 0 1 2.596-3.827c1.124-1.103 2.476-2.033 4.055-2.79 1.578-.757 3.341-1.266 5.288-1.525v-6.813h6.033v6.748c2.077.303 4.088.876 6.034 1.72 1.947.843 3.72 2.065 5.32 3.665l-4.865 5.645c-1.904-1.774-4.066-2.92-6.489-3.439v12.587l3.634 1.363a43.605 43.605 0 0 1 3.763 1.914c1.168.67 2.184 1.46 3.05 2.368a9.787 9.787 0 0 1 2.01 3.146c.476 1.19.714 2.585.714 4.185 0 3.763-1.21 6.77-3.633 9.019-2.422 2.249-5.601 3.72-9.538 4.412v6.942h-6.033v-6.683zm10.964-13.041c0-1.298-.432-2.27-1.297-2.92-.865-.648-2.076-1.319-3.634-2.01v9.861a17.407 17.407 0 0 0 1.882-.616 5.98 5.98 0 0 0 1.59-.909 3.899 3.899 0 0 0 1.07-1.362c.26-.54.39-1.222.39-2.044zm-15.571-21.28c0 1.037.432 2.021 1.298 2.951.865.93 1.968 1.633 3.309 2.109v-9.927c-1.341.346-2.444.952-3.31 1.817-.865.865-1.297 1.881-1.297 3.05z"/>
    </g>
</svg>
