<svg xmlns="http://www.w3.org/2000/svg" width="264" height="264" viewBox="0 0 264 264">
    <g fill="none" fill-rule="evenodd">
        <circle cx="132" cy="132" r="132" fill="#FFF"/>
        <g fill="#D8DDE7" fill-rule="nonzero">
            <path d="M194.813 163.99c-1.632-.904-3.702-.705-5.68.544l-36.546 23.093a2.188 2.188 0 0 0-.682 3.011 2.172 2.172 0 0 0 3.001.685l36.546-23.093c.772-.488 1.195-.452 1.257-.417.063.035.318.374.318 1.29 0 2.46-1.82 5.767-3.894 7.078l-35.43 22.387c-1.884 1.19-3.606 1.517-4.725.898-1.119-.62-1.76-2.257-1.76-4.491 0-5.66 4.032-12.99 8.805-16.005l40.34-25.49a2.186 2.186 0 0 0 0-3.696l-77.514-48.978a2.17 2.17 0 0 0-2.32 0l-40.831 25.8c-5.803 3.666-10.348 11.928-10.348 18.808v1.165c0 6.88 4.545 15.142 10.348 18.808l60.73 38.373a2.172 2.172 0 0 0 3.002-.684 2.188 2.188 0 0 0-.682-3.012l-60.731-38.373c-4.507-2.848-8.314-9.768-8.314-15.112v-1.165c0-5.344 3.807-12.265 8.314-15.112l39.672-25.067 73.43 46.397-37.415 23.642c-6.078 3.84-10.839 12.494-10.839 19.701 0 3.93 1.424 6.882 4.01 8.314a6.928 6.928 0 0 0 3.397.861c1.808 0 3.768-.634 5.75-1.886l35.43-22.387c3.324-2.1 5.928-6.833 5.928-10.774 0-2.346-.936-4.21-2.567-5.113z"/>
            <path d="M167.676 153.93c.718 0 1.42-.356 1.831-1.006a2.149 2.149 0 0 0-.677-2.97l-49.946-31.333a2.167 2.167 0 0 0-2.981.675 2.149 2.149 0 0 0 .677 2.97l49.946 31.333c.358.224.756.331 1.15.331zM158.793 159.6a2.12 2.12 0 0 0 1.81-1.029c.627-1.027.325-2.381-.674-3.025l-20.84-13.43c-1-.645-2.317-.334-2.942.693-.627 1.027-.325 2.381.674 3.025l20.84 13.43a2.08 2.08 0 0 0 1.132.336zM130.155 148.592c-.993-.64-2.302-.328-2.923.698-.62 1.025-.318 2.375.676 3.016l20.867 13.442c.35.225.737.332 1.121.332.708 0 1.4-.365 1.802-1.03.62-1.025.318-2.375-.676-3.016l-20.867-13.442zM107.967 124.295l-18.11 11.392a2.175 2.175 0 0 0 .012 3.69l21.597 13.415a2.179 2.179 0 0 0 2.333-.02l4.81-3.106c1.011-.653 1.3-2 .648-3.01a2.18 2.18 0 0 0-3.013-.646l-3.65 2.356-17.467-10.849 14.004-8.81 17.213 10.782-2.007 1.295c-1.01.653-1.3 2-.647 3.01a2.18 2.18 0 0 0 3.013.646l4.88-3.151a2.177 2.177 0 0 0-.025-3.672l-21.272-13.324a2.18 2.18 0 0 0-2.319.002zM142.792 169.91c.615-1.025.312-2.37-.677-3.007L121.22 153.45c-.989-.637-2.288-.323-2.903.7-.615 1.025-.312 2.37.677 3.007l20.894 13.454c.346.223.73.329 1.11.329a2.09 2.09 0 0 0 1.793-1.03zM80.258 142.802a2.16 2.16 0 0 0 .698 2.982l53.163 32.93c.357.22.754.326 1.146.326.726 0 1.436-.363 1.847-1.022a2.16 2.16 0 0 0-.698-2.982l-53.163-32.929a2.177 2.177 0 0 0-2.993.695z"/>
        </g>
        <path fill="#6096FF" d="M31.871 59.398V79.81h3.441v-8.369h9.273V68.38h-9.273v-5.89h10.235l.03-3.091H31.87zM63.772 79.81l-1.954-4.607H51.525L49.57 79.81h-3.586l9.01-20.412h3.528l8.923 20.412h-3.674zm-10.964-7.67h7.698l-3.849-9.068-3.849 9.069zm35.109 7.67l-8.428-11.693 7.903-8.719h-4.054L73.6 69.954V59.398h-3.44V79.81h3.44v-5.19l3.47-3.82 6.707 9.01h4.14zm3.178-20.412V79.81h14.93v-3.091h-11.49v-5.628h9.974v-3.09h-9.973v-5.512h11.139v-3.091h-14.58zm43.507 20.412h-3.908l-3.732-6.182c-.292.03-.613.03-.933.03h-4.84v6.152h-3.442V59.398h8.282c5.22 0 8.223 2.537 8.223 6.97 0 3.265-1.516 5.569-4.228 6.619l4.578 6.823zm-13.414-9.244h4.84c3.15 0 4.958-1.341 4.958-4.111 0-2.683-1.808-3.966-4.957-3.966h-4.84v8.077zm17.642-11.168V79.81h14.93v-3.091h-11.49v-5.628h9.974v-3.09h-9.973v-5.512h11.139v-3.091h-14.58zm16.534 0l8.135 20.412h3.558l8.252-20.412h-3.587l-6.356 16.592-6.299-16.592h-3.703zm22.715 0V79.81h3.441V59.398h-3.44zm8.807 0V79.81h14.93v-3.091h-11.49v-5.628h9.973v-3.09h-9.972v-5.512h11.139v-3.091h-14.58zm16.533 0l6.765 20.412h3.558l4.899-15.921 4.84 15.921h3.529l6.823-20.412h-3.557l-4.928 16.592-4.958-16.592h-3.382L212.08 75.99l-4.957-16.592h-3.704z"/>
    </g>
</svg>
