<svg xmlns="http://www.w3.org/2000/svg" width="250" height="165" viewBox="0 0 250 165">
    <path fill="#F7F5F3" fill-rule="evenodd" d="M242.067 15.636c-37.49 0-69.868 22.317-84.749 54.407a50.145 50.145 0 0 1 26.32-7.43c27.92 0 50.669 22.819 50.669 50.875s-22.748 50.876-50.669 50.876c-27.92 0-50.63-22.82-50.63-50.876 0-.998.036-1.988.093-2.973-.036-.308-.093-.61-.093-.926 0-60.43 48.918-109.581 109.059-109.581a7.766 7.766 0 0 1 7.798 7.788c0 4.367-3.462 7.84-7.798 7.84zm-132.415 0c-37.501 0-69.908 22.331-84.793 54.437a50.135 50.135 0 0 1 26.364-7.46c27.92 0 50.63 22.819 50.63 50.875s-22.71 50.876-50.63 50.876c-27.916 0-50.625-22.82-50.625-50.876 0-.996.037-1.984.093-2.967-.037-.309-.093-.613-.093-.932C.598 49.159 49.512.008 109.652.008c4.298 0 7.802 3.474 7.802 7.788 0 4.367-3.504 7.84-7.802 7.84z"/>
</svg>
