<svg xmlns="http://www.w3.org/2000/svg" width="90" height="90" viewBox="0 0 90 90">
    <g fill="none" fill-rule="evenodd">
        <rect width="88.5" height="88.5" x=".75" y=".75" stroke="#FFF" stroke-width="1.5" opacity=".7" rx="44.25"/>
        <path fill="#FFF" d="M52.846 43.38c-1.682 0-3.043 1.35-3.043 3.017 0 1.665 1.361 3.017 3.043 3.017 1.68 0 3.043-1.352 3.043-3.017 0-1.667-1.363-3.017-3.043-3.017"/>
        <path fill="#FFF" d="M62.934 43.385c-.975-1.513-2.293-2.894-3.883-4.088a3.048 3.048 0 0 1 2.75-1.728c1.677 0 3.043 1.354 3.043 3.017a3.02 3.02 0 0 1-1.91 2.799M43.544 61.14c-9.77 0-17.688-5.152-17.688-11.502 0-6.353 7.918-11.503 17.687-11.503 9.77 0 17.688 5.15 17.688 11.503 0 6.35-7.918 11.502-17.688 11.502m-21.3-20.554c0-1.663 1.365-3.017 3.042-3.017 1.213 0 2.263.707 2.75 1.728-1.59 1.194-2.907 2.575-3.881 4.088a3.019 3.019 0 0 1-1.912-2.799M60.28 25.313c.945 0 1.712.758 1.712 1.697 0 .937-.767 1.696-1.712 1.696s-1.712-.76-1.712-1.696c0-.94.767-1.697 1.712-1.697m1.521 9.239a6.09 6.09 0 0 0-5.318 3.102c-3.129-1.697-6.94-2.792-11.091-3.044l3.631-8.087 6.95 1.99a4.564 4.564 0 0 0 4.307 3.022c2.522 0 4.564-2.026 4.564-4.525 0-2.501-2.042-4.526-4.564-4.526a4.57 4.57 0 0 0-4.021 2.38l-7.747-2.216a1.813 1.813 0 0 0-2.151.992l-4.932 10.985c-4.049.283-7.763 1.37-10.824 3.03a6.092 6.092 0 0 0-5.32-3.103c-3.36 0-6.086 2.702-6.086 6.034 0 2.466 1.494 4.585 3.632 5.52a10.936 10.936 0 0 0-.589 3.532c0 8.33 9.537 15.085 21.301 15.085 11.764 0 21.301-6.756 21.301-15.085 0-1.217-.203-2.4-.588-3.53 2.137-.937 3.631-3.056 3.631-5.522 0-3.332-2.725-6.034-6.086-6.034"/>
        <path fill="#FFF" d="M37.805 46.397c0-1.667-1.363-3.017-3.043-3.017-1.682 0-3.043 1.35-3.043 3.017 0 1.665 1.361 3.017 3.043 3.017M49.894 53.516c-1.256.98-3.742 2.038-6.234 2.038-2.491 0-4.977-1.057-6.233-2.038a1.818 1.818 0 0 0-2.537.298 1.78 1.78 0 0 0 .298 2.515c2.184 1.705 5.508 2.808 8.472 2.808 2.963 0 6.288-1.103 8.471-2.808a1.782 1.782 0 0 0 .302-2.515 1.82 1.82 0 0 0-2.54-.298"/>
    </g>
</svg>
