<svg xmlns="http://www.w3.org/2000/svg" width="2049" height="656" viewBox="0 0 2049 656">
    <g fill="none" fill-rule="evenodd">
        <path fill="#DDE3F0" fill-opacity=".716" d="M315.5 183c-50.534 0-91.5-40.966-91.5-91.5S264.966 0 315.5 0 407 40.966 407 91.5 366.034 183 315.5 183zm0-39c28.995 0 52.5-23.505 52.5-52.5S344.495 39 315.5 39 263 62.505 263 91.5s23.505 52.5 52.5 52.5z" opacity=".3"/>
        <path fill="#A7C4FF" d="M596 278c-22.091 0-40-17.909-40-40s17.909-40 40-40 40 17.909 40 40-17.909 40-40 40zm.5-21c10.217 0 18.5-8.283 18.5-18.5s-8.283-18.5-18.5-18.5-18.5 8.283-18.5 18.5 8.283 18.5 18.5 18.5z" opacity=".3"/>
        <path fill="#6096FF" d="M2031 370c-9.941 0-18-8.059-18-18s8.059-18 18-18 18 8.059 18 18-8.059 18-18 18zm-.5-12a6.5 6.5 0 1 0 0-13 6.5 6.5 0 0 0 0 13z" opacity=".722"/>
        <path fill="#BBC2D0" d="M1579 198c-17.12 0-31-13.88-31-31 0-17.12 13.88-31 31-31 17.12 0 31 13.88 31 31 0 17.12-13.88 31-31 31zm0-13c9.941 0 18-8.059 18-18s-8.059-18-18-18-18 8.059-18 18 8.059 18 18 18z" opacity=".3"/>
        <path fill="#DAE4F8" fill-opacity=".5" d="M1921 656c-64.065 0-116-51.935-116-116s51.935-116 116-116 116 51.935 116 116-51.935 116-116 116zm-1.5-51c36.727 0 66.5-29.773 66.5-66.5 0-36.727-29.773-66.5-66.5-66.5-36.727 0-66.5 29.773-66.5 66.5 0 36.727 29.773 66.5 66.5 66.5z" opacity=".3"/>
        <path fill="#6096FF" d="M35.5 525C15.894 525 0 509.106 0 489.5S15.894 454 35.5 454 71 469.894 71 489.5 55.106 525 35.5 525zm-1-16c11.322 0 20.5-9.178 20.5-20.5S45.822 468 34.5 468 14 477.178 14 488.5 23.178 509 34.5 509z" opacity=".3"/>
    </g>
</svg>
