<svg xmlns="http://www.w3.org/2000/svg" xmlns:xlink="http://www.w3.org/1999/xlink" width="213" height="162" viewBox="0 0 213 162">
    <defs>
        <rect id="reputation_item_2_b" width="155.2" height="102.4" rx="51.2"/>
        <filter id="reputation_item_2_a" width="167%" height="201.6%" x="-33.5%" y="-37.1%" filterUnits="objectBoundingBox">
            <feOffset dy="14" in="SourceAlpha" result="shadowOffsetOuter1"/>
            <feGaussianBlur in="shadowOffsetOuter1" result="shadowBlurOuter1" stdDeviation="15"/>
            <feColorMatrix in="shadowBlurOuter1" values="0 0 0 0 0.762967217 0 0 0 0 0.825511662 0 0 0 0 0.950600553 0 0 0 0.432433197 0"/>
        </filter>
    </defs>
    <g fill="none" fill-rule="evenodd">
        <g opacity=".8" transform="translate(29 16)">
            <use fill="#000" filter="url(#reputation_item_2_a)" xlink:href="#reputation_item_2_b"/>
            <use fill="#FFF" xlink:href="#reputation_item_2_b"/>
        </g>
        <path fill="#FFCF48" stroke="#FFCF48" stroke-linejoin="round" stroke-width="3.052" d="M136.119 75.79l-10.58 7.943 3.813-13.188L119 62.267l12.937-.207L136.119 49l4.182 13.06 12.937.207-10.352 8.278 3.813 13.188z"/>
        <path fill="#666D7C" d="M71.72 69.896h-6.464v-3.328h6.464v-6.816h3.488v6.816h6.464v3.328h-6.464v6.816H71.72v-6.816zM93.096 55.88c1.11.021 2.123.203 3.04.544.917.341 1.701.8 2.352 1.376a5.834 5.834 0 0 1 1.488 2.016c.341.768.501 1.6.48 2.496 0 1.365-.347 2.47-1.04 3.312a7.548 7.548 0 0 1-2.544 2c1.408.533 2.427 1.264 3.056 2.192.63.928.944 2.096.944 3.504-.021 1.216-.267 2.293-.736 3.232a7.101 7.101 0 0 1-1.856 2.352 7.915 7.915 0 0 1-2.688 1.424c-1.024.32-2.09.48-3.2.48-1.216 0-2.288-.15-3.216-.448-.928-.299-1.728-.73-2.4-1.296a7.886 7.886 0 0 1-1.728-2.08c-.48-.821-.88-1.755-1.2-2.8l3.904-1.536c.085.32.235.704.448 1.152.213.448.443.848.688 1.2.245.352.533.672.864.96.33.288.704.528 1.12.72.416.192.901.288 1.456.288.704 0 1.317-.101 1.84-.304.523-.203.96-.47 1.312-.8.352-.33.613-.71.784-1.136.17-.427.256-.864.256-1.312 0-.555-.059-1.067-.176-1.536a2.287 2.287 0 0 0-.752-1.2c-.384-.33-.95-.587-1.696-.768-.747-.181-1.739-.272-2.976-.272v-3.2c1.045-.021 1.91-.117 2.592-.288.683-.17 1.216-.41 1.6-.72.384-.31.65-.672.8-1.088.15-.416.224-.88.224-1.392.021-1.11-.261-1.936-.848-2.48s-1.403-.816-2.448-.816c-.96 0-1.75.24-2.368.72a4.059 4.059 0 0 0-1.344 1.872c-.15.47-.267.97-.352 1.504-.683-.107-1.37-.23-2.064-.368a45.253 45.253 0 0 0-2.096-.368c.47-2.41 1.435-4.203 2.896-5.376 1.461-1.173 3.323-1.76 5.584-1.76z"/>
    </g>
</svg>
