<svg xmlns="http://www.w3.org/2000/svg" xmlns:xlink="http://www.w3.org/1999/xlink" width="270" height="162" viewBox="0 0 270 162">
    <defs>
        <rect id="reputation_item_1_b" width="212" height="102.4" rx="51.2"/>
        <filter id="reputation_item_1_a" width="149.1%" height="201.6%" x="-24.5%" y="-37.1%" filterUnits="objectBoundingBox">
            <feOffset dy="14" in="SourceAlpha" result="shadowOffsetOuter1"/>
            <feGaussianBlur in="shadowOffsetOuter1" result="shadowBlurOuter1" stdDeviation="15"/>
            <feColorMatrix in="shadowBlurOuter1" values="0 0 0 0 0.762967217 0 0 0 0 0.825511662 0 0 0 0 0.950600553 0 0 0 0.432433197 0"/>
        </filter>
    </defs>
    <g fill="none" fill-rule="evenodd">
        <g opacity=".8" transform="translate(29 16)">
            <use fill="#000" filter="url(#reputation_item_1_a)" xlink:href="#reputation_item_1_b"/>
            <use fill="#FFF" xlink:href="#reputation_item_1_b"/>
        </g>
        <path fill="#FF6E8F" d="M63.788 69.896h-6.464v-3.328h6.464v-6.816h3.488v6.816h6.464v3.328h-6.464v6.816h-3.488v-6.816zM85.004 55.88c1.11 0 2.128.17 3.056.512.928.341 1.723.816 2.384 1.424a6.451 6.451 0 0 1 1.552 2.192c.373.853.56 1.792.56 2.816a7.47 7.47 0 0 1-.464 2.416c-.288.779-.656 1.52-1.104 2.224a18.142 18.142 0 0 1-1.52 2.048 42.829 42.829 0 0 1-1.744 1.92l-4.96 4.992a7.627 7.627 0 0 1 1.232-.208c.395-.032.773-.048 1.136-.048h7.68V80.2H76.14v-2.56l8.032-7.904c1.216-1.216 2.176-2.347 2.88-3.392a6.005 6.005 0 0 0 1.056-3.424c0-1.11-.304-1.947-.912-2.512-.608-.565-1.435-.848-2.48-.848-.896 0-1.653.261-2.272.784-.619.523-1.056 1.136-1.312 1.84a3.37 3.37 0 0 0-.176.736c-.032.256-.059.544-.08.864l-4.192-.704c.363-2.453 1.29-4.267 2.784-5.44 1.493-1.173 3.339-1.76 5.536-1.76zm25.888 4.32H101.9l-.8 4.672c.49-.085.965-.144 1.424-.176.459-.032.901-.048 1.328-.048 1.28 0 2.41.192 3.392.576.981.384 1.803.912 2.464 1.584a6.67 6.67 0 0 1 1.504 2.384c.341.917.512 1.899.512 2.944 0 1.28-.23 2.453-.688 3.52a8.04 8.04 0 0 1-1.904 2.736 8.577 8.577 0 0 1-2.88 1.76c-1.11.416-2.304.624-3.584.624-.747 0-1.461-.08-2.144-.24a11.134 11.134 0 0 1-1.936-.64 12.435 12.435 0 0 1-1.712-.912 9.433 9.433 0 0 1-1.408-1.088l2.24-3.264c.533.448.944.768 1.232.96.288.192.603.379.944.56.341.181.768.363 1.28.544.512.181 1.099.272 1.76.272 1.45 0 2.565-.427 3.344-1.28.779-.853 1.168-1.973 1.168-3.36 0-1.28-.379-2.283-1.136-3.008-.757-.725-1.861-1.067-3.312-1.024-.597.043-1.19.128-1.776.256a15.01 15.01 0 0 0-1.712.48l-2.688-.8c1.003-5.952 1.664-9.941 1.984-11.968h12.096V60.2zm12.32 2.624h2.4l.256 1.984h.096c.79-.64 1.653-1.205 2.592-1.696a6.272 6.272 0 0 1 2.944-.736c1.11 0 2.096.213 2.96.64a6.105 6.105 0 0 1 2.176 1.792c.587.768 1.03 1.696 1.328 2.784.299 1.088.448 2.304.448 3.648 0 1.493-.208 2.821-.624 3.984-.416 1.163-.97 2.144-1.664 2.944a7.046 7.046 0 0 1-2.4 1.824 6.789 6.789 0 0 1-2.864.624c-.79 0-1.59-.176-2.4-.528-.81-.352-1.61-.848-2.4-1.488l.064 3.04v5.888h-2.912V62.824zm7.168 15.36c.725 0 1.392-.16 2-.48a4.795 4.795 0 0 0 1.584-1.36c.448-.587.795-1.307 1.04-2.16.245-.853.368-1.824.368-2.912 0-.96-.085-1.835-.256-2.624-.17-.79-.437-1.467-.8-2.032a3.773 3.773 0 0 0-1.408-1.312c-.576-.31-1.28-.464-2.112-.464-.747 0-1.499.203-2.256.608-.757.405-1.563 1.003-2.416 1.792v9.12c.79.683 1.552 1.157 2.288 1.424.736.267 1.392.4 1.968.4zm19.424 2.432a7.852 7.852 0 0 1-3.056-.608 7.591 7.591 0 0 1-2.576-1.776c-.747-.779-1.339-1.728-1.776-2.848-.437-1.12-.656-2.405-.656-3.856 0-1.45.219-2.741.656-3.872.437-1.13 1.03-2.09 1.776-2.88a7.49 7.49 0 0 1 2.576-1.792 7.852 7.852 0 0 1 3.056-.608c1.067 0 2.085.203 3.056.608a7.49 7.49 0 0 1 2.576 1.792c.747.79 1.339 1.75 1.776 2.88.437 1.13.656 2.421.656 3.872 0 1.45-.219 2.736-.656 3.856-.437 1.12-1.03 2.07-1.776 2.848a7.591 7.591 0 0 1-2.576 1.776c-.97.405-1.99.608-3.056.608zm0-2.432c.747 0 1.43-.16 2.048-.48a4.816 4.816 0 0 0 1.6-1.344c.448-.576.795-1.275 1.04-2.096.245-.821.368-1.733.368-2.736 0-1.003-.123-1.915-.368-2.736-.245-.821-.592-1.53-1.04-2.128a4.675 4.675 0 0 0-1.6-1.376 4.39 4.39 0 0 0-2.048-.48c-.747 0-1.43.16-2.048.48a4.53 4.53 0 0 0-1.584 1.376c-.437.597-.779 1.307-1.024 2.128-.245.821-.368 1.733-.368 2.736 0 1.003.123 1.915.368 2.736.245.821.587 1.52 1.024 2.096a4.66 4.66 0 0 0 1.584 1.344 4.39 4.39 0 0 0 2.048.48zm12.64-15.36h2.912V80.2h-2.912V62.824zm1.472-3.584c-.576 0-1.056-.176-1.44-.528-.384-.352-.576-.805-.576-1.36 0-.597.192-1.061.576-1.392.384-.33.864-.496 1.44-.496s1.056.165 1.44.496c.384.33.576.795.576 1.392 0 .555-.192 1.008-.576 1.36-.384.352-.864.528-1.44.528zm7.328 3.584h2.4l.256 2.496h.096a15.49 15.49 0 0 1 2.64-2.08c.928-.576 1.99-.864 3.184-.864 1.835 0 3.179.576 4.032 1.728.853 1.152 1.28 2.848 1.28 5.088V80.2h-2.912V69.576c0-1.643-.261-2.827-.784-3.552-.523-.725-1.36-1.088-2.512-1.088-.896 0-1.696.224-2.4.672-.704.448-1.493 1.11-2.368 1.984V80.2h-2.912V62.824zm25.024 17.792c-.939 0-1.723-.139-2.352-.416a3.804 3.804 0 0 1-1.52-1.168c-.384-.501-.661-1.11-.832-1.824-.17-.715-.256-1.51-.256-2.384v-9.632h-2.592v-2.208l2.72-.16.352-4.864h2.432v4.864h4.704v2.368h-4.704v9.696c0 1.088.192 1.92.576 2.496.384.576 1.088.864 2.112.864.299 0 .63-.048.992-.144.363-.096.693-.197.992-.304l.576 2.176c-.49.17-1.013.32-1.568.448a7.243 7.243 0 0 1-1.632.192zm11.136 0a9.36 9.36 0 0 1-3.552-.688c-1.13-.459-2.112-1.03-2.944-1.712l1.44-1.92c.747.619 1.53 1.115 2.352 1.488.821.373 1.755.56 2.8.56 1.152 0 2.01-.267 2.576-.8.565-.533.848-1.173.848-1.92 0-.448-.117-.832-.352-1.152a3.732 3.732 0 0 0-.912-.864 7.23 7.23 0 0 0-1.28-.688c-.48-.203-.955-.4-1.424-.592a20.665 20.665 0 0 1-1.84-.736 8.135 8.135 0 0 1-1.664-1.008 4.958 4.958 0 0 1-1.216-1.376c-.31-.523-.464-1.157-.464-1.904 0-.683.133-1.323.4-1.92a4.51 4.51 0 0 1 1.168-1.568c.512-.448 1.141-.8 1.888-1.056.747-.256 1.59-.384 2.528-.384 1.088 0 2.09.192 3.008.576.917.384 1.717.843 2.4 1.376l-1.408 1.888a11.012 11.012 0 0 0-1.872-1.104c-.63-.288-1.339-.432-2.128-.432-1.088 0-1.888.245-2.4.736-.512.49-.768 1.077-.768 1.76 0 .427.107.784.32 1.072.213.288.501.544.864.768.363.224.773.427 1.232.608.459.181.933.368 1.424.56.64.235 1.275.49 1.904.768.63.277 1.195.613 1.696 1.008.501.395.912.87 1.232 1.424.32.555.48 1.248.48 2.08 0 .704-.139 1.37-.416 2a4.551 4.551 0 0 1-1.216 1.632c-.533.459-1.195.827-1.984 1.104-.79.277-1.696.416-2.72.416z"/>
    </g>
</svg>
