<svg xmlns="http://www.w3.org/2000/svg" xmlns:xlink="http://www.w3.org/1999/xlink" width="282" height="162" viewBox="0 0 282 162">
    <defs>
        <rect id="reputation_item_3_b" width="224" height="102.4" rx="51.2"/>
        <filter id="reputation_item_3_a" width="146.4%" height="201.6%" x="-23.2%" y="-37.1%" filterUnits="objectBoundingBox">
            <feOffset dy="14" in="SourceAlpha" result="shadowOffsetOuter1"/>
            <feGaussianBlur in="shadowOffsetOuter1" result="shadowBlurOuter1" stdDeviation="15"/>
            <feColorMatrix in="shadowBlurOuter1" values="0 0 0 0 0.762967217 0 0 0 0 0.825511662 0 0 0 0 0.950600553 0 0 0 0.432433197 0"/>
        </filter>
    </defs>
    <g fill="none" fill-rule="evenodd">
        <g opacity=".8" transform="translate(29 16)">
            <use fill="#000" filter="url(#reputation_item_3_a)" xlink:href="#reputation_item_3_b"/>
            <use fill="#FFF" xlink:href="#reputation_item_3_b"/>
        </g>
        <path fill="#44C0C1" d="M73.948 69.896h-6.464v-3.328h6.464v-6.816h3.488v6.816H83.9v3.328h-6.464v6.816h-3.488v-6.816zm19.488.736c-.853 0-1.68-.144-2.48-.432a6.19 6.19 0 0 1-2.144-1.312c-.63-.587-1.136-1.312-1.52-2.176-.384-.864-.576-1.872-.576-3.024 0-1.088.203-2.112.608-3.072.405-.96.97-1.792 1.696-2.496.725-.704 1.595-1.264 2.608-1.68 1.013-.416 2.128-.624 3.344-.624 1.237 0 2.352.197 3.344.592.992.395 1.835.944 2.528 1.648a7.202 7.202 0 0 1 1.6 2.528c.373.981.56 2.059.56 3.232 0 .747-.101 1.488-.304 2.224-.203.736-.47 1.461-.8 2.176-.33.715-.693 1.403-1.088 2.064-.395.661-.784 1.29-1.168 1.888l-5.28 8.032h-5.12l6.912-9.504c.619-.64.981-1.013 1.088-1.12l-.672.384a4.25 4.25 0 0 1-1.488.544c-.523.085-1.072.128-1.648.128zm5.44-7.232c0-1.259-.368-2.24-1.104-2.944-.736-.704-1.69-1.056-2.864-1.056-1.195 0-2.139.368-2.832 1.104-.693.736-1.04 1.69-1.04 2.864 0 1.301.33 2.267.992 2.896.661.63 1.61.944 2.848.944 1.301 0 2.293-.352 2.976-1.056.683-.704 1.024-1.621 1.024-2.752zm13.632 7.232c-.853 0-1.68-.144-2.48-.432a6.19 6.19 0 0 1-2.144-1.312c-.63-.587-1.136-1.312-1.52-2.176-.384-.864-.576-1.872-.576-3.024 0-1.088.203-2.112.608-3.072.405-.96.97-1.792 1.696-2.496.725-.704 1.595-1.264 2.608-1.68 1.013-.416 2.128-.624 3.344-.624 1.237 0 2.352.197 3.344.592.992.395 1.835.944 2.528 1.648a7.202 7.202 0 0 1 1.6 2.528c.373.981.56 2.059.56 3.232 0 .747-.101 1.488-.304 2.224-.203.736-.47 1.461-.8 2.176-.33.715-.693 1.403-1.088 2.064-.395.661-.784 1.29-1.168 1.888l-5.28 8.032h-5.12l6.912-9.504c.619-.64.981-1.013 1.088-1.12l-.672.384a4.25 4.25 0 0 1-1.488.544c-.523.085-1.072.128-1.648.128zm5.44-7.232c0-1.259-.368-2.24-1.104-2.944-.736-.704-1.69-1.056-2.864-1.056-1.195 0-2.139.368-2.832 1.104-.693.736-1.04 1.69-1.04 2.864 0 1.301.33 2.267.992 2.896.661.63 1.61.944 2.848.944 1.301 0 2.293-.352 2.976-1.056.683-.704 1.024-1.621 1.024-2.752zm10.496 17.248c-.832 0-1.525-.293-2.08-.88-.555-.587-.832-1.317-.832-2.192 0-.875.277-1.605.832-2.192.555-.587 1.248-.88 2.08-.88.853 0 1.557.293 2.112.88.555.587.832 1.317.832 2.192 0 .875-.277 1.605-.832 2.192-.555.587-1.259.88-2.112.88zm21.056-9.856h3.008v3.616H149.5V80.2h-3.872v-5.792H134.3v-3.584a699.83 699.83 0 0 0 5.552-7.376c1.845-2.485 3.685-4.955 5.52-7.408h4.128v14.752zm-3.872-7.392a54.967 54.967 0 0 1 .064-2.016l-7.04 9.472h6.976V63.4zm17.568-6.656h6.688c1.323 0 2.523.117 3.6.352s2 .624 2.768 1.168a5.53 5.53 0 0 1 1.792 2.128c.427.875.64 1.952.64 3.232 0 1.237-.208 2.315-.624 3.232a5.932 5.932 0 0 1-1.776 2.272c-.768.597-1.68 1.04-2.736 1.328-1.056.288-2.224.432-3.504.432h-3.872V80.2h-2.976V56.744zm6.464 11.744c2.07 0 3.6-.39 4.592-1.168.992-.779 1.488-2.01 1.488-3.696 0-1.685-.517-2.853-1.552-3.504-1.035-.65-2.587-.976-4.656-.976h-3.36v9.344h3.488zm13.76-11.744h2.976v20.928h10.24V80.2H183.42V56.744zm22.24 2.496h-7.104v-2.496h17.184v2.496h-7.104V80.2h-2.976V59.24z"/>
    </g>
</svg>
