<svg xmlns="http://www.w3.org/2000/svg" width="134" height="134" viewBox="0 0 134 134">
    <g fill="none" fill-rule="evenodd">
        <path fill="#556080" d="M66.585 113.353c-25.787 0-46.768-20.98-46.768-46.768 0-25.787 20.98-46.768 46.768-46.768 25.787 0 46.768 20.98 46.768 46.768 0 25.787-20.98 46.768-46.768 46.768"/>
        <path stroke="#FFF" stroke-linecap="round" stroke-width="4" d="M66.585 26.498v4.454M66.585 102.218v4.454M106.672 66.585h-4.454M30.952 66.585h-4.454M73.266 64.358a6.68 6.68 0 1 1-13.362 0 6.68 6.68 0 1 1 13.362 0zM66.585 57.677V44.314M61.862 69.082L42.087 88.856"/>
        <path stroke="#898989" stroke-linecap="round" stroke-width="4" d="M111.126 19.858C99.53 8.798 83.836 2 66.585 2 30.972 2 2 30.974 2 66.585"/>
        <path d="M19.817 66.585c0-25.787 20.98-46.768 46.768-46.768 25.787 0 46.768 20.98 46.768 46.768 0 25.787-20.98 46.768-46.768 46.768-25.787 0-46.768-20.98-46.768-46.768z"/>
        <path stroke="#898989" stroke-linecap="round" stroke-width="4" d="M93.31 19.817h17.816V2"/>
        <path stroke="#898989" stroke-dasharray="0,6" stroke-linecap="round" stroke-width="4" d="M2 66.585c0 35.61 28.974 64.585 64.585 64.585 35.61 0 64.585-28.974 64.585-64.585"/>
    </g>
</svg>
