<svg xmlns="http://www.w3.org/2000/svg" width="25" height="24" viewBox="0 0 25 24">
    <g fill="#FFF" fill-rule="evenodd" transform="translate(.6)">
        <path fill-rule="nonzero" d="M23.532 10.813l-9.8-10.32A1.544 1.544 0 0 0 12.601 0c-.426 0-.834.178-1.128.493a1.744 1.744 0 0 0 0 2.377l8.673 9.132-8.673 9.13a1.744 1.744 0 0 0 0 2.376c.294.314.702.492 1.129.492.426 0 .834-.178 1.128-.492l9.801-10.32c.302-.318.47-.744.468-1.187 0-.43-.156-.86-.468-1.188z"/>
        <rect width="21" height="3" y="10.5" rx="1.5"/>
    </g>
</svg>
