<svg xmlns="http://www.w3.org/2000/svg" width="94" height="94" viewBox="0 0 94 94">
    <g fill="none" fill-rule="evenodd" transform="matrix(-1 0 0 1 94 0)">
        <ellipse cx="47" cy="46.755" fill="#FAFAFA" rx="47" ry="46.755"/>
        <path fill="#E3E3E3" d="M64.032 49.677h-29.17L47.43 62.158c.798.792.798 2.08 0 2.873a2.054 2.054 0 0 1-2.892 0L28.634 49.236a2.01 2.01 0 0 1-.46-.726 1.935 1.935 0 0 1-.174-.792c0-.283.066-.55.176-.792.1-.263.246-.51.458-.72L44.538 30.41a2.054 2.054 0 0 1 2.892 0 2.02 2.02 0 0 1 0 2.871L34.866 45.76h29.166c1.086 0 1.968.877 1.968 1.958 0 1.082-.882 1.96-1.968 1.96z"/>
    </g>
</svg>
