<svg xmlns="http://www.w3.org/2000/svg" width="60" height="61" viewBox="0 0 60 61">
    <path fill="#BBC2D0" fill-rule="evenodd" d="M25.01 36.742l-.51 7.647c.75 0 1.081-.343 1.5-.75l3.603-3.503 7.497 5.538c1.38.761 2.375.367 2.719-1.28l4.921-23.191c.504-2.02-.77-2.937-2.09-2.337L13.753 30.008c-1.973.791-1.961 1.892-.36 2.382l7.416 2.315 17.168-10.831c.81-.492 1.555-.228.944.314L25.01 36.742zM30 60.64c-16.569 0-30-13.431-30-30 0-16.568 13.431-30 30-30 16.569 0 30 13.432 30 30 0 16.569-13.431 30-30 30z"/>
</svg>
