<svg xmlns="http://www.w3.org/2000/svg" width="58" height="57" viewBox="0 0 58 57">
    <defs>
        <linearGradient id="telegram_color_a" x1="66.67%" x2="41.67%" y1="16.67%" y2="75%">
            <stop offset="0%" stop-color="#37AEE2"/>
            <stop offset="100%" stop-color="#1E96C8"/>
        </linearGradient>
        <linearGradient id="telegram_color_b" x1="61.235%" x2="74.706%" y1="43.69%" y2="80.24%">
            <stop offset="0%" stop-color="#EFF7FC"/>
            <stop offset="100%" stop-color="#FFF"/>
        </linearGradient>
    </defs>
    <g fill="none" fill-rule="evenodd" transform="translate(.623)">
        <ellipse cx="28.403" cy="28.5" fill="url(#telegram_color_a)" rx="28.403" ry="28.5"/>
        <path fill="#C8DAEA" d="M23.195 41.563c-.92 0-.763-.35-1.08-1.228l-2.707-8.936L40.237 19"/>
        <path fill="#A9C9DD" d="M23.195 41.563c.71 0 1.024-.326 1.42-.713l3.788-3.695-4.724-2.858"/>
        <path fill="url(#telegram_color_b)" d="M23.678 34.297l11.447 8.486c1.306.723 2.248.349 2.574-1.217l4.659-22.031c.477-1.92-.729-2.79-1.979-2.22L13.021 27.9c-1.868.752-1.857 1.797-.34 2.263l7.02 2.2 16.254-10.29c.767-.467 1.472-.216.894.298"/>
    </g>
</svg>
