<svg xmlns="http://www.w3.org/2000/svg" width="60" height="61" viewBox="0 0 60 61">
    <path fill="#BBC2D0" fill-rule="evenodd" d="M0 30.64c0-16.57 13.431-30 30-30 16.569 0 30 13.43 30 30 0 16.568-13.431 30-30 30-16.569 0-30-13.432-30-30zm29.102-5.616l.062 1.038-1.049-.127c-3.819-.487-7.155-2.14-9.988-4.915l-1.385-1.377-.357 1.017c-.755 2.267-.273 4.66 1.301 6.27.84.89.65 1.017-.797.488-.504-.17-.945-.297-.987-.233-.147.148.357 2.076.756 2.838.545 1.06 1.658 2.098 2.875 2.712l1.028.487-1.217.022c-1.175 0-1.217.02-1.091.466.42 1.377 2.077 2.838 3.924 3.474l1.3.445-1.132.678a11.815 11.815 0 0 1-5.624 1.568c-.945.02-1.721.105-1.721.169 0 .212 2.56 1.398 4.05 1.864 4.47 1.377 9.779.784 13.766-1.567 2.833-1.674 5.666-5 6.988-8.22.713-1.716 1.426-4.852 1.426-6.356 0-.974.063-1.101 1.239-2.267.692-.677 1.343-1.419 1.468-1.63.21-.403.19-.403-.88-.043-1.785.635-2.036.55-1.155-.403.65-.678 1.427-1.906 1.427-2.266 0-.064-.315.042-.672.233-.377.211-1.217.53-1.846.72l-1.133.36-1.029-.7c-.566-.38-1.364-.804-1.783-.931-1.07-.297-2.707-.254-3.673.085-2.623.953-4.28 3.41-4.091 6.1z"/>
</svg>
