<svg xmlns="http://www.w3.org/2000/svg" width="48" height="39" viewBox="0 0 48 39">
    <g fill="none" fill-rule="evenodd" transform="translate(-21 -26)">
        <rect width="90" height="90" opacity=".7" rx="45"/>
        <path fill="#A1958D" d="M67.234 27.215c-1.375.882-4.534 2.164-6.092 2.164v.003a9.74 9.74 0 0 0-7.061-3.022c-5.395 0-9.77 4.379-9.77 9.777 0 .75.088 1.481.248 2.183h-.001c-7.318-.193-15.321-3.864-20.14-10.147-2.961 5.132-.398 10.84 2.964 12.92-1.151.086-3.27-.133-4.266-1.107-.067 3.406 1.57 7.92 7.536 9.557-1.15.619-3.184.442-4.068.31.31 2.875 4.333 6.635 8.732 6.635-1.568 1.815-7.467 5.108-14.087 4.06 4.496 2.738 9.736 4.324 15.282 4.324 15.76 0 28-12.786 27.342-28.558-.003-.018-.003-.035-.004-.054.001-.04.004-.081.004-.123 0-.05-.004-.096-.006-.143 1.435-.982 3.36-2.72 4.735-5.006-.797.44-3.19 1.32-5.417 1.538 1.43-.772 3.546-3.3 4.07-5.31"/>
    </g>
</svg>
