<svg xmlns="http://www.w3.org/2000/svg" width="57" height="57" viewBox="0 0 57 57">
    <g fill="none" fill-rule="evenodd">
        <path fill="#55ACEE" d="M.195 28.5C.195 12.76 12.91 0 28.597 0 44.284 0 57 12.76 57 28.5S44.284 57 28.597 57C12.911 57 .195 44.24.195 28.5z"/>
        <path fill="#FFF" d="M27.747 23.165l.06.986-.994-.12c-3.616-.463-6.775-2.033-9.457-4.67l-1.31-1.308-.339.966c-.715 2.154-.258 4.428 1.232 5.957.795.846.616.967-.755.463-.477-.16-.894-.281-.934-.221-.139.14.338 1.972.716 2.697.516 1.006 1.57 1.992 2.721 2.576l.974.463-1.152.02c-1.113 0-1.153.02-1.034.443.398 1.308 1.967 2.697 3.716 3.3l1.231.423-1.072.644a11.157 11.157 0 0 1-5.325 1.49c-.894.02-1.629.1-1.629.16 0 .202 2.424 1.329 3.834 1.771 4.232 1.309 9.258.745 13.033-1.489 2.682-1.59 5.364-4.75 6.616-7.809.675-1.63 1.35-4.609 1.35-6.037 0-.926.06-1.047 1.173-2.154.656-.644 1.272-1.348 1.39-1.55.2-.382.18-.382-.834-.04-1.688.604-1.927.523-1.092-.382.616-.644 1.35-1.812 1.35-2.154 0-.06-.297.04-.635.222-.358.201-1.152.503-1.748.684l-1.073.342-.974-.664c-.536-.362-1.291-.765-1.688-.886-1.014-.281-2.563-.241-3.477.08-2.484.907-4.053 3.241-3.874 5.797z"/>
    </g>
</svg>
