<svg xmlns="http://www.w3.org/2000/svg" width="190" height="172" viewBox="0 0 190 172">
    <defs>
        <linearGradient id="a" x1="0%" x2="143.303%" y1="0%" y2="141.424%">
            <stop offset="0%" stop-color="#99C7FF"/>
            <stop offset="100%" stop-color="#6096FF"/>
        </linearGradient>
    </defs>
    <g fill="none" fill-rule="evenodd">
        <circle cx="96" cy="102" r="66" stroke="#E2EAF9" stroke-dasharray="8,20" stroke-linecap="round" stroke-width="6"/>
        <circle cx="96" cy="38" r="38" fill="url(#a)" opacity=".3"/>
        <path stroke="#3E7FFF" stroke-width="6" d="M81 58.104C85.548 60.033 90.558 61 96.055 61c5.477 0 10.393-.96 14.774-2.87v-4.736c0-8.16-6.614-14.774-14.774-14.774C87.74 38.62 81 45.36 81 53.675v4.43zm14.866-26.11c4.577 0 8.308-3.793 8.308-8.497S100.444 15 95.866 15c-4.578 0-8.31 3.793-8.31 8.497s3.732 8.497 8.31 8.497z"/>
        <circle cx="38" cy="134" r="38" fill="url(#a)" opacity=".3"/>
        <path stroke="#3E7FFF" stroke-width="6" d="M23 154.104c4.548 1.929 9.558 2.896 15.055 2.896 5.477 0 10.393-.96 14.774-2.87v-4.736c0-8.16-6.614-14.774-14.774-14.774-8.315 0-15.055 6.74-15.055 15.055v4.43zm14.866-26.11c4.577 0 8.308-3.793 8.308-8.497S42.444 111 37.866 111c-4.578 0-8.31 3.793-8.31 8.497s3.732 8.497 8.31 8.497z"/>
        <g transform="translate(114 96)">
            <circle cx="38" cy="38" r="38" fill="url(#a)" opacity=".3"/>
            <path stroke="#3E7FFF" stroke-width="6" d="M23 58.104C27.548 60.033 32.558 61 38.055 61c5.477 0 10.393-.96 14.774-2.87v-4.736c0-8.16-6.614-14.774-14.774-14.774C29.74 38.62 23 45.36 23 53.675v4.43zm14.866-26.11c4.577 0 8.308-3.793 8.308-8.497S42.444 15 37.866 15c-4.578 0-8.31 3.793-8.31 8.497s3.732 8.497 8.31 8.497z"/>
        </g>
    </g>
</svg>
